<svg id="visual" viewBox="0 0 900 600" width="900" height="600" xmlns="http://www.w3.org/2000/svg" xmlns:xlink="http://www.w3.org/1999/xlink" version="1.1"><path d="M0 79L13.7 83C27.3 87 54.7 95 82 99C109.3 103 136.7 103 163.8 97C191 91 218 79 245.2 76C272.3 73 299.7 79 327 81C354.3 83 381.7 81 409 79C436.3 77 463.7 75 491 73C518.3 71 545.7 69 573 64C600.3 59 627.7 51 654.8 51C682 51 709 59 736.2 63C763.3 67 790.7 67 818 70C845.3 73 872.7 79 886.3 82L900 85L900 0L886.3 0C872.7 0 845.3 0 818 0C790.7 0 763.3 0 736.2 0C709 0 682 0 654.8 0C627.7 0 600.3 0 573 0C545.7 0 518.3 0 491 0C463.7 0 436.3 0 409 0C381.7 0 354.3 0 327 0C299.7 0 272.3 0 245.2 0C218 0 191 0 163.8 0C136.7 0 109.3 0 82 0C54.7 0 27.3 0 13.7 0L0 0Z" fill="#33215d"></path><path d="M0 187L13.7 189C27.3 191 54.7 195 82 193C109.3 191 136.7 183 163.8 173C191 163 218 151 245.2 149C272.3 147 299.7 155 327 166C354.3 177 381.7 191 409 201C436.3 211 463.7 217 491 219C518.3 221 545.7 219 573 207C600.3 195 627.7 173 654.8 159C682 145 709 139 736.2 148C763.3 157 790.7 181 818 193C845.3 205 872.7 205 886.3 205L900 205L900 83L886.3 80C872.7 77 845.3 71 818 68C790.7 65 763.3 65 736.2 61C709 57 682 49 654.8 49C627.7 49 600.3 57 573 62C545.7 67 518.3 69 491 71C463.7 73 436.3 75 409 77C381.7 79 354.3 81 327 79C299.7 77 272.3 71 245.2 74C218 77 191 89 163.8 95C136.7 101 109.3 101 82 97C54.7 93 27.3 85 13.7 81L0 77Z" fill="#533386"></path><path d="M0 337L13.7 330C27.3 323 54.7 309 82 326C109.3 343 136.7 391 163.8 399C191 407 218 375 245.2 355C272.3 335 299.7 327 327 340C354.3 353 381.7 387 409 386C436.3 385 463.7 349 491 335C518.3 321 545.7 329 573 318C600.3 307 627.7 277 654.8 279C682 281 709 315 736.2 341C763.3 367 790.7 385 818 385C845.3 385 872.7 367 886.3 358L900 349L900 203L886.3 203C872.7 203 845.3 203 818 191C790.7 179 763.3 155 736.2 146C709 137 682 143 654.8 157C627.7 171 600.3 193 573 205C545.7 217 518.3 219 491 217C463.7 215 436.3 209 409 199C381.7 189 354.3 175 327 164C299.7 153 272.3 145 245.2 147C218 149 191 161 163.8 171C136.7 181 109.3 189 82 191C54.7 193 27.3 189 13.7 187L0 185Z" fill="#70529f"></path><path d="M0 445L13.7 433C27.3 421 54.7 397 82 405C109.3 413 136.7 453 163.8 461C191 469 218 445 245.2 436C272.3 427 299.7 433 327 446C354.3 459 381.7 479 409 476C436.3 473 463.7 447 491 437C518.3 427 545.7 433 573 424C600.3 415 627.7 391 654.8 388C682 385 709 403 736.2 418C763.3 433 790.7 445 818 449C845.3 453 872.7 449 886.3 447L900 445L900 347L886.3 356C872.7 365 845.3 383 818 383C790.7 383 763.3 365 736.2 339C709 313 682 279 654.8 277C627.7 275 600.3 305 573 316C545.7 327 518.3 319 491 333C463.7 347 436.3 383 409 384C381.7 385 354.3 351 327 338C299.7 325 272.3 333 245.2 353C218 373 191 405 163.8 397C136.7 389 109.3 341 82 324C54.7 307 27.3 321 13.7 328L0 335Z" fill="#533386"></path><path d="M0 601L13.7 601C27.3 601 54.7 601 82 601C109.3 601 136.7 601 163.8 601C191 601 218 601 245.2 601C272.3 601 299.7 601 327 601C354.3 601 381.7 601 409 601C436.3 601 463.7 601 491 601C518.3 601 545.7 601 573 601C600.3 601 627.7 601 654.8 601C682 601 709 601 736.2 601C763.3 601 790.7 601 818 601C845.3 601 872.7 601 886.3 601L900 601L900 443L886.3 445C872.7 447 845.3 451 818 447C790.7 443 763.3 431 736.2 416C709 401 682 383 654.8 386C627.7 389 600.3 413 573 422C545.7 431 518.3 425 491 435C463.7 445 436.3 471 409 474C381.7 477 354.3 457 327 444C299.7 431 272.3 425 245.2 434C218 443 191 467 163.8 459C136.7 451 109.3 411 82 403C54.7 395 27.3 419 13.7 431L0 443Z" fill="#33215d"></path></svg>