<svg xmlns="http://www.w3.org/2000/svg" version="1.1" xmlns:xlink="http://www.w3.org/1999/xlink" xmlns:svgjs="http://svgjs.com/svgjs" width="1440" height="560" preserveAspectRatio="none" viewBox="0 0 1440 560"><g mask="url(&quot;#SvgjsMask1572&quot;)" fill="none"><rect width="1440" height="560" x="0" y="0" fill="url(#SvgjsLinearGradient1573)"></rect><path d="M1440 0L1069.18 0L1440 247.99z" fill="rgba(255, 255, 255, .1)"></path><path d="M1069.18 0L1440 247.99L1440 262.66L621.6600000000001 0z" fill="rgba(255, 255, 255, .075)"></path><path d="M621.6600000000001 0L1440 262.66L1440 425.17L542.1600000000001 0z" fill="rgba(255, 255, 255, .05)"></path><path d="M542.1600000000001 0L1440 425.17L1440 485.25L201.69000000000005 0z" fill="rgba(255, 255, 255, .025)"></path><path d="M0 560L667.58 560L0 483.86z" fill="rgba(0, 0, 0, .1)"></path><path d="M0 483.86L667.58 560L931.29 560L0 468.84000000000003z" fill="rgba(0, 0, 0, .075)"></path><path d="M0 468.84000000000003L931.29 560L1211.61 560L0 457.28000000000003z" fill="rgba(0, 0, 0, .05)"></path><path d="M0 457.28L1211.61 560L1224.81 560L0 162.32z" fill="rgba(0, 0, 0, .025)"></path></g><defs><mask id="SvgjsMask1572"><rect width="1440" height="560" fill="#ffffff"></rect></mask><linearGradient x1="50%" y1="100%" x2="50%" y2="0%" gradientUnits="userSpaceOnUse" id="SvgjsLinearGradient1573"><stop stop-color="rgba(225, 0, 134, 1)" offset="0"></stop><stop stop-color="rgba(253, 251, 118, 1)" offset="1"></stop></linearGradient></defs></svg>