<svg xmlns="http://www.w3.org/2000/svg" version="1.1" xmlns:xlink="http://www.w3.org/1999/xlink" xmlns:svgjs="http://svgjs.com/svgjs" width="1440" height="560" preserveAspectRatio="none" viewBox="0 0 1440 560"><g mask="url(&quot;#SvgjsMask1045&quot;)" fill="none"><rect width="1440" height="560" x="0" y="0" fill="url(#SvgjsLinearGradient1046)"></rect><path d="M-101.31 358.77L-101.31 358.77" stroke="rgba(149, 14, 29, 1)" stroke-width="1.5"></path><path d="M-101.31 358.77L-42.75 523.44" stroke="rgba(149, 14, 29, 1)" stroke-width="1.5"></path><path d="M-101.31 358.77L101.4 395.02" stroke="rgba(149, 14, 29, 1)" stroke-width="1.5"></path><path d="M-101.31 358.77L63.96 528.67" stroke="rgba(149, 14, 29, 1)" stroke-width="1.5"></path><path d="M-101.31 358.77L236.05 350.19" stroke="rgba(149, 14, 29, 1)" stroke-width="1.5"></path><path d="M-101.31 358.77L86.49 654.75" stroke="rgba(149, 14, 29, 1)" stroke-width="1.5"></path><path d="M-101.31 358.77L-49.79 711.12" stroke="rgba(149, 14, 29, 1)" stroke-width="1.5"></path><path d="M-42.75 523.44L-42.75 523.44" stroke="rgba(149, 14, 29, 1)" stroke-width="1.5"></path><path d="M-42.75 523.44L63.96 528.67" stroke="rgba(149, 14, 29, 1)" stroke-width="1.5"></path><path d="M-42.75 523.44L86.49 654.75" stroke="rgba(149, 14, 29, 1)" stroke-width="1.5"></path><path d="M-42.75 523.44L-49.79 711.12" stroke="rgba(149, 14, 29, 1)" stroke-width="1.5"></path><path d="M-49.79 711.12L-49.79 711.12" stroke="rgba(149, 14, 29, 1)" stroke-width="1.5"></path><path d="M-49.79 711.12L86.49 654.75" stroke="rgba(149, 14, 29, 1)" stroke-width="1.5"></path><path d="M-49.79 711.12L63.96 528.67" stroke="rgba(149, 14, 29, 1)" stroke-width="1.5"></path><path d="M-49.79 711.12L250.99 538.18" stroke="rgba(149, 14, 29, 1)" stroke-width="1.5"></path><path d="M-49.79 711.12L101.4 395.02" stroke="rgba(149, 14, 29, 1)" stroke-width="1.5"></path><path d="M101.4 395.02L101.4 395.02" stroke="rgba(149, 14, 29, 1)" stroke-width="1.5"></path><path d="M101.4 395.02L63.96 528.67" stroke="rgba(149, 14, 29, 1)" stroke-width="1.5"></path><path d="M101.4 395.02L236.05 350.19" stroke="rgba(149, 14, 29, 1)" stroke-width="1.5"></path><path d="M101.4 395.02L-42.75 523.44" stroke="rgba(149, 14, 29, 1)" stroke-width="1.5"></path><path d="M63.96 528.67L63.96 528.67" stroke="rgba(149, 14, 29, 1)" stroke-width="1.5"></path><path d="M86.49 654.75L86.49 654.75" stroke="rgba(149, 14, 29, 1)" stroke-width="1.5"></path><path d="M86.49 654.75L63.96 528.67" stroke="rgba(149, 14, 29, 1)" stroke-width="1.5"></path><path d="M86.49 654.75L250.99 538.18" stroke="rgba(149, 14, 29, 1)" stroke-width="1.5"></path><path d="M86.49 654.75L341.86 677.93" stroke="rgba(149, 14, 29, 1)" stroke-width="1.5"></path><path d="M86.49 654.75L101.4 395.02" stroke="rgba(149, 14, 29, 1)" stroke-width="1.5"></path><path d="M236.05 350.19L236.05 350.19" stroke="rgba(149, 14, 29, 1)" stroke-width="1.5"></path><path d="M236.05 350.19L357.43 344.77" stroke="rgba(149, 14, 29, 1)" stroke-width="1.5"></path><path d="M236.05 350.19L250.99 538.18" stroke="rgba(149, 14, 29, 1)" stroke-width="1.5"></path><path d="M236.05 350.19L358.36 559.34" stroke="rgba(149, 14, 29, 1)" stroke-width="1.5"></path><path d="M236.05 350.19L63.96 528.67" stroke="rgba(149, 14, 29, 1)" stroke-width="1.5"></path><path d="M236.05 350.19L493.66 344.69" stroke="rgba(149, 14, 29, 1)" stroke-width="1.5"></path><path d="M250.99 538.18L250.99 538.18" stroke="rgba(149, 14, 29, 1)" stroke-width="1.5"></path><path d="M250.99 538.18L358.36 559.34" stroke="rgba(149, 14, 29, 1)" stroke-width="1.5"></path><path d="M250.99 538.18L341.86 677.93" stroke="rgba(149, 14, 29, 1)" stroke-width="1.5"></path><path d="M357.43 344.77L357.43 344.77" stroke="rgba(149, 14, 29, 1)" stroke-width="1.5"></path><path d="M357.43 344.77L493.66 344.69" stroke="rgba(149, 14, 29, 1)" stroke-width="1.5"></path><path d="M357.43 344.77L488.62 511.2" stroke="rgba(149, 14, 29, 1)" stroke-width="1.5"></path><path d="M357.43 344.77L358.36 559.34" stroke="rgba(149, 14, 29, 1)" stroke-width="1.5"></path><path d="M357.43 344.77L250.99 538.18" stroke="rgba(149, 14, 29, 1)" stroke-width="1.5"></path><path d="M357.43 344.77L101.4 395.02" stroke="rgba(149, 14, 29, 1)" stroke-width="1.5"></path><path d="M358.36 559.34L358.36 559.34" stroke="rgba(149, 14, 29, 1)" stroke-width="1.5"></path><path d="M358.36 559.34L341.86 677.93" stroke="rgba(149, 14, 29, 1)" stroke-width="1.5"></path><path d="M358.36 559.34L488.62 511.2" stroke="rgba(149, 14, 29, 1)" stroke-width="1.5"></path><path d="M358.36 559.34L535.95 703.98" stroke="rgba(149, 14, 29, 1)" stroke-width="1.5"></path><path d="M341.86 677.93L341.86 677.93" stroke="rgba(149, 14, 29, 1)" stroke-width="1.5"></path><path d="M341.86 677.93L535.95 703.98" stroke="rgba(149, 14, 29, 1)" stroke-width="1.5"></path><path d="M493.66 344.69L493.66 344.69" stroke="rgba(149, 14, 29, 1)" stroke-width="1.5"></path><path d="M493.66 344.69L488.62 511.2" stroke="rgba(149, 14, 29, 1)" stroke-width="1.5"></path><path d="M488.62 511.2L488.62 511.2" stroke="rgba(149, 14, 29, 1)" stroke-width="1.5"></path><path d="M488.62 511.2L535.95 703.98" stroke="rgba(149, 14, 29, 1)" stroke-width="1.5"></path><path d="M535.95 703.98L535.95 703.98" stroke="rgba(149, 14, 29, 1)" stroke-width="1.5"></path><path d="M535.95 703.98L664.25 710.65" stroke="rgba(149, 14, 29, 1)" stroke-width="1.5"></path><path d="M683.66 253.7L683.66 253.7" stroke="rgba(149, 14, 29, 1)" stroke-width="1.5"></path><path d="M683.66 253.7L798.67 188.14" stroke="rgba(149, 14, 29, 1)" stroke-width="1.5"></path><path d="M683.66 253.7L493.66 344.69" stroke="rgba(149, 14, 29, 1)" stroke-width="1.5"></path><path d="M683.66 253.7L696.44 520.59" stroke="rgba(149, 14, 29, 1)" stroke-width="1.5"></path><path d="M683.66 253.7L952.63 196.18" stroke="rgba(149, 14, 29, 1)" stroke-width="1.5"></path><path d="M683.66 253.7L842.39 497.43" stroke="rgba(149, 14, 29, 1)" stroke-width="1.5"></path><path d="M696.44 520.59L696.44 520.59" stroke="rgba(149, 14, 29, 1)" stroke-width="1.5"></path><path d="M696.44 520.59L842.39 497.43" stroke="rgba(149, 14, 29, 1)" stroke-width="1.5"></path><path d="M696.44 520.59L664.25 710.65" stroke="rgba(149, 14, 29, 1)" stroke-width="1.5"></path><path d="M696.44 520.59L488.62 511.2" stroke="rgba(149, 14, 29, 1)" stroke-width="1.5"></path><path d="M696.44 520.59L836.84 676.02" stroke="rgba(149, 14, 29, 1)" stroke-width="1.5"></path><path d="M696.44 520.59L535.95 703.98" stroke="rgba(149, 14, 29, 1)" stroke-width="1.5"></path><path d="M696.44 520.59L958.26 558.91" stroke="rgba(149, 14, 29, 1)" stroke-width="1.5"></path><path d="M664.25 710.65L664.25 710.65" stroke="rgba(149, 14, 29, 1)" stroke-width="1.5"></path><path d="M664.25 710.65L836.84 676.02" stroke="rgba(149, 14, 29, 1)" stroke-width="1.5"></path><path d="M798.67 188.14L798.67 188.14" stroke="rgba(149, 14, 29, 1)" stroke-width="1.5"></path><path d="M798.67 188.14L952.63 196.18" stroke="rgba(149, 14, 29, 1)" stroke-width="1.5"></path><path d="M798.67 188.14L937.67 101.59" stroke="rgba(149, 14, 29, 1)" stroke-width="1.5"></path><path d="M842.39 497.43L842.39 497.43" stroke="rgba(149, 14, 29, 1)" stroke-width="1.5"></path><path d="M842.39 497.43L958.26 558.91" stroke="rgba(149, 14, 29, 1)" stroke-width="1.5"></path><path d="M842.39 497.43L836.84 676.02" stroke="rgba(149, 14, 29, 1)" stroke-width="1.5"></path><path d="M836.84 676.02L836.84 676.02" stroke="rgba(149, 14, 29, 1)" stroke-width="1.5"></path><path d="M836.84 676.02L1002.96 666.69" stroke="rgba(149, 14, 29, 1)" stroke-width="1.5"></path><path d="M836.84 676.02L958.26 558.91" stroke="rgba(149, 14, 29, 1)" stroke-width="1.5"></path><path d="M972.02 -81.16L972.02 -81.16" stroke="rgba(149, 14, 29, 1)" stroke-width="1.5"></path><path d="M972.02 -81.16L1151.43 -50.53" stroke="rgba(149, 14, 29, 1)" stroke-width="1.5"></path><path d="M937.67 101.59L937.67 101.59" stroke="rgba(149, 14, 29, 1)" stroke-width="1.5"></path><path d="M937.67 101.59L952.63 196.18" stroke="rgba(149, 14, 29, 1)" stroke-width="1.5"></path><path d="M937.67 101.59L1097.12 100.87" stroke="rgba(149, 14, 29, 1)" stroke-width="1.5"></path><path d="M937.67 101.59L972.02 -81.16" stroke="rgba(149, 14, 29, 1)" stroke-width="1.5"></path><path d="M937.67 101.59L1101.59 196.88" stroke="rgba(149, 14, 29, 1)" stroke-width="1.5"></path><path d="M952.63 196.18L952.63 196.18" stroke="rgba(149, 14, 29, 1)" stroke-width="1.5"></path><path d="M952.63 196.18L1101.59 196.88" stroke="rgba(149, 14, 29, 1)" stroke-width="1.5"></path><path d="M996.71 347.46L996.71 347.46" stroke="rgba(149, 14, 29, 1)" stroke-width="1.5"></path><path d="M996.71 347.46L952.63 196.18" stroke="rgba(149, 14, 29, 1)" stroke-width="1.5"></path><path d="M996.71 347.46L1101.59 196.88" stroke="rgba(149, 14, 29, 1)" stroke-width="1.5"></path><path d="M996.71 347.46L1108.58 500.62" stroke="rgba(149, 14, 29, 1)" stroke-width="1.5"></path><path d="M958.26 558.91L958.26 558.91" stroke="rgba(149, 14, 29, 1)" stroke-width="1.5"></path><path d="M958.26 558.91L1002.96 666.69" stroke="rgba(149, 14, 29, 1)" stroke-width="1.5"></path><path d="M958.26 558.91L1108.58 500.62" stroke="rgba(149, 14, 29, 1)" stroke-width="1.5"></path><path d="M958.26 558.91L1107.61 705.16" stroke="rgba(149, 14, 29, 1)" stroke-width="1.5"></path><path d="M958.26 558.91L996.71 347.46" stroke="rgba(149, 14, 29, 1)" stroke-width="1.5"></path><path d="M1002.96 666.69L1002.96 666.69" stroke="rgba(149, 14, 29, 1)" stroke-width="1.5"></path><path d="M1002.96 666.69L1107.61 705.16" stroke="rgba(149, 14, 29, 1)" stroke-width="1.5"></path><path d="M1002.96 666.69L1108.58 500.62" stroke="rgba(149, 14, 29, 1)" stroke-width="1.5"></path><path d="M1002.96 666.69L842.39 497.43" stroke="rgba(149, 14, 29, 1)" stroke-width="1.5"></path><path d="M1002.96 666.69L1240.63 710.95" stroke="rgba(149, 14, 29, 1)" stroke-width="1.5"></path><path d="M1151.43 -50.53L1151.43 -50.53" stroke="rgba(149, 14, 29, 1)" stroke-width="1.5"></path><path d="M1151.43 -50.53L1270.66 -108.76" stroke="rgba(149, 14, 29, 1)" stroke-width="1.5"></path><path d="M1151.43 -50.53L1097.12 100.87" stroke="rgba(149, 14, 29, 1)" stroke-width="1.5"></path><path d="M1097.12 100.87L1097.12 100.87" stroke="rgba(149, 14, 29, 1)" stroke-width="1.5"></path><path d="M1097.12 100.87L1101.59 196.88" stroke="rgba(149, 14, 29, 1)" stroke-width="1.5"></path><path d="M1097.12 100.87L952.63 196.18" stroke="rgba(149, 14, 29, 1)" stroke-width="1.5"></path><path d="M1097.12 100.87L972.02 -81.16" stroke="rgba(149, 14, 29, 1)" stroke-width="1.5"></path><path d="M1101.59 196.88L1101.59 196.88" stroke="rgba(149, 14, 29, 1)" stroke-width="1.5"></path><path d="M1108.58 500.62L1108.58 500.62" stroke="rgba(149, 14, 29, 1)" stroke-width="1.5"></path><path d="M1108.58 500.62L1261.93 495.47" stroke="rgba(149, 14, 29, 1)" stroke-width="1.5"></path><path d="M1107.61 705.16L1107.61 705.16" stroke="rgba(149, 14, 29, 1)" stroke-width="1.5"></path><path d="M1107.61 705.16L1240.63 710.95" stroke="rgba(149, 14, 29, 1)" stroke-width="1.5"></path><path d="M1270.66 -108.76L1270.66 -108.76" stroke="rgba(149, 14, 29, 1)" stroke-width="1.5"></path><path d="M1270.66 -108.76L1454.5 -45.96" stroke="rgba(149, 14, 29, 1)" stroke-width="1.5"></path><path d="M1270.66 -108.76L1097.12 100.87" stroke="rgba(149, 14, 29, 1)" stroke-width="1.5"></path><path d="M1292.52 227.24L1292.52 227.24" stroke="rgba(149, 14, 29, 1)" stroke-width="1.5"></path><path d="M1292.52 227.24L1273.96 345.17" stroke="rgba(149, 14, 29, 1)" stroke-width="1.5"></path><path d="M1292.52 227.24L1439.8 231" stroke="rgba(149, 14, 29, 1)" stroke-width="1.5"></path><path d="M1292.52 227.24L1395.61 358.22" stroke="rgba(149, 14, 29, 1)" stroke-width="1.5"></path><path d="M1292.52 227.24L1101.59 196.88" stroke="rgba(149, 14, 29, 1)" stroke-width="1.5"></path><path d="M1292.52 227.24L1461.62 104.44" stroke="rgba(149, 14, 29, 1)" stroke-width="1.5"></path><path d="M1273.96 345.17L1273.96 345.17" stroke="rgba(149, 14, 29, 1)" stroke-width="1.5"></path><path d="M1273.96 345.17L1395.61 358.22" stroke="rgba(149, 14, 29, 1)" stroke-width="1.5"></path><path d="M1273.96 345.17L1261.93 495.47" stroke="rgba(149, 14, 29, 1)" stroke-width="1.5"></path><path d="M1261.93 495.47L1261.93 495.47" stroke="rgba(149, 14, 29, 1)" stroke-width="1.5"></path><path d="M1261.93 495.47L1434.02 504" stroke="rgba(149, 14, 29, 1)" stroke-width="1.5"></path><path d="M1261.93 495.47L1395.61 358.22" stroke="rgba(149, 14, 29, 1)" stroke-width="1.5"></path><path d="M1240.63 710.95L1240.63 710.95" stroke="rgba(149, 14, 29, 1)" stroke-width="1.5"></path><path d="M1240.63 710.95L1261.93 495.47" stroke="rgba(149, 14, 29, 1)" stroke-width="1.5"></path><path d="M1240.63 710.95L1108.58 500.62" stroke="rgba(149, 14, 29, 1)" stroke-width="1.5"></path><path d="M1454.5 -45.96L1454.5 -45.96" stroke="rgba(149, 14, 29, 1)" stroke-width="1.5"></path><path d="M1454.5 -45.96L1461.62 104.44" stroke="rgba(149, 14, 29, 1)" stroke-width="1.5"></path><path d="M1454.5 -45.96L1554.63 82.5" stroke="rgba(149, 14, 29, 1)" stroke-width="1.5"></path><path d="M1454.5 -45.96L1551 188.23" stroke="rgba(149, 14, 29, 1)" stroke-width="1.5"></path><path d="M1461.62 104.44L1461.62 104.44" stroke="rgba(149, 14, 29, 1)" stroke-width="1.5"></path><path d="M1461.62 104.44L1554.63 82.5" stroke="rgba(149, 14, 29, 1)" stroke-width="1.5"></path><path d="M1439.8 231L1439.8 231" stroke="rgba(149, 14, 29, 1)" stroke-width="1.5"></path><path d="M1439.8 231L1551 188.23" stroke="rgba(149, 14, 29, 1)" stroke-width="1.5"></path><path d="M1395.61 358.22L1395.61 358.22" stroke="rgba(149, 14, 29, 1)" stroke-width="1.5"></path><path d="M1395.61 358.22L1439.8 231" stroke="rgba(149, 14, 29, 1)" stroke-width="1.5"></path><path d="M1395.61 358.22L1434.02 504" stroke="rgba(149, 14, 29, 1)" stroke-width="1.5"></path><path d="M1434.02 504L1434.02 504" stroke="rgba(149, 14, 29, 1)" stroke-width="1.5"></path><path d="M1434.02 504L1581.08 540.61" stroke="rgba(149, 14, 29, 1)" stroke-width="1.5"></path><path d="M1434.02 504L1606.52 397.51" stroke="rgba(149, 14, 29, 1)" stroke-width="1.5"></path><path d="M1554.63 82.5L1554.63 82.5" stroke="rgba(149, 14, 29, 1)" stroke-width="1.5"></path><path d="M1554.63 82.5L1551 188.23" stroke="rgba(149, 14, 29, 1)" stroke-width="1.5"></path><path d="M1551 188.23L1551 188.23" stroke="rgba(149, 14, 29, 1)" stroke-width="1.5"></path><path d="M1606.52 397.51L1606.52 397.51" stroke="rgba(149, 14, 29, 1)" stroke-width="1.5"></path><path d="M1606.52 397.51L1581.08 540.61" stroke="rgba(149, 14, 29, 1)" stroke-width="1.5"></path><path d="M1606.52 397.51L1395.61 358.22" stroke="rgba(149, 14, 29, 1)" stroke-width="1.5"></path><path d="M1606.52 397.51L1551 188.23" stroke="rgba(149, 14, 29, 1)" stroke-width="1.5"></path><path d="M1606.52 397.51L1439.8 231" stroke="rgba(149, 14, 29, 1)" stroke-width="1.5"></path><path d="M1606.52 397.51L1556.44 666.98" stroke="rgba(149, 14, 29, 1)" stroke-width="1.5"></path><path d="M1581.08 540.61L1581.08 540.61" stroke="rgba(149, 14, 29, 1)" stroke-width="1.5"></path><path d="M1581.08 540.61L1556.44 666.98" stroke="rgba(149, 14, 29, 1)" stroke-width="1.5"></path><path d="M1556.44 666.98L1556.44 666.98" stroke="rgba(149, 14, 29, 1)" stroke-width="1.5"></path><circle r="5" cx="-101.31" cy="358.77" fill="rgba(149, 14, 29, 1)"></circle><circle r="5" cx="-42.75" cy="523.44" fill="rgba(149, 14, 29, 1)"></circle><circle r="5" cx="-49.79" cy="711.12" fill="rgba(149, 14, 29, 1)"></circle><circle r="5" cx="101.4" cy="395.02" fill="rgba(149, 14, 29, 1)"></circle><circle r="5" cx="63.96" cy="528.67" fill="rgba(149, 14, 29, 1)"></circle><circle r="5" cx="86.49" cy="654.75" fill="rgba(149, 14, 29, 1)"></circle><circle r="5" cx="236.05" cy="350.19" fill="rgba(149, 14, 29, 1)"></circle><circle r="5" cx="250.99" cy="538.18" fill="rgba(149, 14, 29, 1)"></circle><circle r="5" cx="357.43" cy="344.77" fill="rgba(149, 14, 29, 1)"></circle><circle r="5" cx="358.36" cy="559.34" fill="rgba(149, 14, 29, 1)"></circle><circle r="5" cx="341.86" cy="677.93" fill="rgba(149, 14, 29, 1)"></circle><circle r="5" cx="493.66" cy="344.69" fill="rgba(149, 14, 29, 1)"></circle><circle r="5" cx="488.62" cy="511.2" fill="rgba(149, 14, 29, 1)"></circle><circle r="5" cx="535.95" cy="703.98" fill="rgba(149, 14, 29, 1)"></circle><circle r="5" cx="683.66" cy="253.7" fill="rgba(149, 14, 29, 1)"></circle><circle r="5" cx="696.44" cy="520.59" fill="rgba(149, 14, 29, 1)"></circle><circle r="5" cx="664.25" cy="710.65" fill="rgba(149, 14, 29, 1)"></circle><circle r="5" cx="798.67" cy="188.14" fill="rgba(149, 14, 29, 1)"></circle><circle r="5" cx="842.39" cy="497.43" fill="rgba(149, 14, 29, 1)"></circle><circle r="5" cx="836.84" cy="676.02" fill="rgba(149, 14, 29, 1)"></circle><circle r="5" cx="972.02" cy="-81.16" fill="rgba(149, 14, 29, 1)"></circle><circle r="5" cx="937.67" cy="101.59" fill="rgba(149, 14, 29, 1)"></circle><circle r="5" cx="952.63" cy="196.18" fill="rgba(149, 14, 29, 1)"></circle><circle r="5" cx="996.71" cy="347.46" fill="rgba(149, 14, 29, 1)"></circle><circle r="5" cx="958.26" cy="558.91" fill="rgba(149, 14, 29, 1)"></circle><circle r="5" cx="1002.96" cy="666.69" fill="rgba(149, 14, 29, 1)"></circle><circle r="5" cx="1151.43" cy="-50.53" fill="rgba(149, 14, 29, 1)"></circle><circle r="5" cx="1097.12" cy="100.87" fill="rgba(149, 14, 29, 1)"></circle><circle r="5" cx="1101.59" cy="196.88" fill="rgba(149, 14, 29, 1)"></circle><circle r="5" cx="1108.58" cy="500.62" fill="rgba(149, 14, 29, 1)"></circle><circle r="5" cx="1107.61" cy="705.16" fill="rgba(149, 14, 29, 1)"></circle><circle r="5" cx="1270.66" cy="-108.76" fill="rgba(149, 14, 29, 1)"></circle><circle r="5" cx="1292.52" cy="227.24" fill="rgba(149, 14, 29, 1)"></circle><circle r="5" cx="1273.96" cy="345.17" fill="rgba(149, 14, 29, 1)"></circle><circle r="5" cx="1261.93" cy="495.47" fill="rgba(149, 14, 29, 1)"></circle><circle r="5" cx="1240.63" cy="710.95" fill="rgba(149, 14, 29, 1)"></circle><circle r="5" cx="1454.5" cy="-45.96" fill="rgba(149, 14, 29, 1)"></circle><circle r="5" cx="1461.62" cy="104.44" fill="rgba(149, 14, 29, 1)"></circle><circle r="5" cx="1439.8" cy="231" fill="rgba(149, 14, 29, 1)"></circle><circle r="5" cx="1395.61" cy="358.22" fill="rgba(149, 14, 29, 1)"></circle><circle r="5" cx="1434.02" cy="504" fill="rgba(149, 14, 29, 1)"></circle><circle r="5" cx="1554.63" cy="82.5" fill="rgba(149, 14, 29, 1)"></circle><circle r="5" cx="1551" cy="188.23" fill="rgba(149, 14, 29, 1)"></circle><circle r="5" cx="1606.52" cy="397.51" fill="rgba(149, 14, 29, 1)"></circle><circle r="5" cx="1581.08" cy="540.61" fill="rgba(149, 14, 29, 1)"></circle><circle r="5" cx="1556.44" cy="666.98" fill="rgba(149, 14, 29, 1)"></circle><path d="M70.57 697.15L70.57 697.15" stroke="hsl(319, 41.7%, 38.5%)" stroke-width="1.5"></path><path d="M70.57 697.15L224.89 645.24" stroke="hsl(319, 41.7%, 38.5%)" stroke-width="1.5"></path><path d="M70.57 697.15L-93.64 678.91" stroke="hsl(319, 41.7%, 38.5%)" stroke-width="1.5"></path><path d="M70.57 697.15L100.3 526.44" stroke="hsl(319, 41.7%, 38.5%)" stroke-width="1.5"></path><path d="M70.57 697.15L200.26 516.33" stroke="hsl(319, 41.7%, 38.5%)" stroke-width="1.5"></path><path d="M70.57 697.15L-64.98 508.48" stroke="hsl(319, 41.7%, 38.5%)" stroke-width="1.5"></path><path d="M70.57 697.15L400.27 690.5" stroke="hsl(319, 41.7%, 38.5%)" stroke-width="1.5"></path><path d="M200.26 516.33L200.26 516.33" stroke="hsl(319, 41.7%, 38.5%)" stroke-width="1.5"></path><path d="M200.26 516.33L100.3 526.44" stroke="hsl(319, 41.7%, 38.5%)" stroke-width="1.5"></path><path d="M200.26 516.33L224.89 645.24" stroke="hsl(319, 41.7%, 38.5%)" stroke-width="1.5"></path><path d="M815.58 411.64L815.58 411.64" stroke="hsl(319, 41.7%, 38.5%)" stroke-width="1.5"></path><path d="M815.58 411.64L822.19 503.84" stroke="hsl(319, 41.7%, 38.5%)" stroke-width="1.5"></path><path d="M815.58 411.64L697.4 398.36" stroke="hsl(319, 41.7%, 38.5%)" stroke-width="1.5"></path><path d="M815.58 411.64L692.37 487.77" stroke="hsl(319, 41.7%, 38.5%)" stroke-width="1.5"></path><path d="M815.58 411.64L961.59 369.4" stroke="hsl(319, 41.7%, 38.5%)" stroke-width="1.5"></path><path d="M815.58 411.64L993.47 524" stroke="hsl(319, 41.7%, 38.5%)" stroke-width="1.5"></path><path d="M815.58 411.64L845.51 643.4" stroke="hsl(319, 41.7%, 38.5%)" stroke-width="1.5"></path><path d="M987.58 650.24L987.58 650.24" stroke="hsl(319, 41.7%, 38.5%)" stroke-width="1.5"></path><path d="M987.58 650.24L993.47 524" stroke="hsl(319, 41.7%, 38.5%)" stroke-width="1.5"></path><path d="M987.58 650.24L1115.64 700.99" stroke="hsl(319, 41.7%, 38.5%)" stroke-width="1.5"></path><path d="M987.58 650.24L845.51 643.4" stroke="hsl(319, 41.7%, 38.5%)" stroke-width="1.5"></path><path d="M1157.06 194.36L1157.06 194.36" stroke="hsl(319, 41.7%, 38.5%)" stroke-width="1.5"></path><path d="M1157.06 194.36L1291.88 237.66" stroke="hsl(319, 41.7%, 38.5%)" stroke-width="1.5"></path><path d="M1157.06 194.36L1292.05 107.36" stroke="hsl(319, 41.7%, 38.5%)" stroke-width="1.5"></path><path d="M1268.86 381.37L1268.86 381.37" stroke="hsl(319, 41.7%, 38.5%)" stroke-width="1.5"></path><path d="M1268.86 381.37L1293.07 510.9" stroke="hsl(319, 41.7%, 38.5%)" stroke-width="1.5"></path><path d="M1268.86 381.37L1408.91 368.75" stroke="hsl(319, 41.7%, 38.5%)" stroke-width="1.5"></path><path d="M1268.86 381.37L1291.88 237.66" stroke="hsl(319, 41.7%, 38.5%)" stroke-width="1.5"></path><path d="M1268.86 381.37L1157.62 490.61" stroke="hsl(319, 41.7%, 38.5%)" stroke-width="1.5"></path><path d="M1433.31 543.77L1433.31 543.77" stroke="hsl(319, 41.7%, 38.5%)" stroke-width="1.5"></path><path d="M1433.31 543.77L1426.56 663.55" stroke="hsl(319, 41.7%, 38.5%)" stroke-width="1.5"></path><path d="M1433.31 543.77L1561 517.91" stroke="hsl(319, 41.7%, 38.5%)" stroke-width="1.5"></path><path d="M1433.31 543.77L1293.07 510.9" stroke="hsl(319, 41.7%, 38.5%)" stroke-width="1.5"></path><path d="M1433.31 543.77L1408.91 368.75" stroke="hsl(319, 41.7%, 38.5%)" stroke-width="1.5"></path><path d="M1433.31 543.77L1595.24 647.19" stroke="hsl(319, 41.7%, 38.5%)" stroke-width="1.5"></path><path d="M1433.31 543.77L1262.57 650.35" stroke="hsl(319, 41.7%, 38.5%)" stroke-width="1.5"></path><path d="M-64.98 508.48L-64.98 508.48" stroke="hsl(319, 41.7%, 38.5%)" stroke-width="1.5"></path><path d="M-64.98 508.48L100.3 526.44" stroke="hsl(319, 41.7%, 38.5%)" stroke-width="1.5"></path><path d="M-64.98 508.48L-93.64 678.91" stroke="hsl(319, 41.7%, 38.5%)" stroke-width="1.5"></path><path d="M-64.98 508.48L200.26 516.33" stroke="hsl(319, 41.7%, 38.5%)" stroke-width="1.5"></path><path d="M-64.98 508.48L224.89 645.24" stroke="hsl(319, 41.7%, 38.5%)" stroke-width="1.5"></path><path d="M-64.98 508.48L387.86 524.36" stroke="hsl(319, 41.7%, 38.5%)" stroke-width="1.5"></path><path d="M-93.64 678.91L-93.64 678.91" stroke="hsl(319, 41.7%, 38.5%)" stroke-width="1.5"></path><path d="M-93.64 678.91L100.3 526.44" stroke="hsl(319, 41.7%, 38.5%)" stroke-width="1.5"></path><path d="M100.3 526.44L100.3 526.44" stroke="hsl(319, 41.7%, 38.5%)" stroke-width="1.5"></path><path d="M100.3 526.44L224.89 645.24" stroke="hsl(319, 41.7%, 38.5%)" stroke-width="1.5"></path><path d="M224.89 645.24L224.89 645.24" stroke="hsl(319, 41.7%, 38.5%)" stroke-width="1.5"></path><path d="M387.86 524.36L387.86 524.36" stroke="hsl(319, 41.7%, 38.5%)" stroke-width="1.5"></path><path d="M387.86 524.36L533.69 547.25" stroke="hsl(319, 41.7%, 38.5%)" stroke-width="1.5"></path><path d="M387.86 524.36L400.27 690.5" stroke="hsl(319, 41.7%, 38.5%)" stroke-width="1.5"></path><path d="M387.86 524.36L497.96 659.31" stroke="hsl(319, 41.7%, 38.5%)" stroke-width="1.5"></path><path d="M387.86 524.36L200.26 516.33" stroke="hsl(319, 41.7%, 38.5%)" stroke-width="1.5"></path><path d="M400.27 690.5L400.27 690.5" stroke="hsl(319, 41.7%, 38.5%)" stroke-width="1.5"></path><path d="M400.27 690.5L497.96 659.31" stroke="hsl(319, 41.7%, 38.5%)" stroke-width="1.5"></path><path d="M400.27 690.5L224.89 645.24" stroke="hsl(319, 41.7%, 38.5%)" stroke-width="1.5"></path><path d="M533.69 547.25L533.69 547.25" stroke="hsl(319, 41.7%, 38.5%)" stroke-width="1.5"></path><path d="M533.69 547.25L497.96 659.31" stroke="hsl(319, 41.7%, 38.5%)" stroke-width="1.5"></path><path d="M533.69 547.25L692.37 487.77" stroke="hsl(319, 41.7%, 38.5%)" stroke-width="1.5"></path><path d="M533.69 547.25L400.27 690.5" stroke="hsl(319, 41.7%, 38.5%)" stroke-width="1.5"></path><path d="M533.69 547.25L691.84 681.69" stroke="hsl(319, 41.7%, 38.5%)" stroke-width="1.5"></path><path d="M533.69 547.25L697.4 398.36" stroke="hsl(319, 41.7%, 38.5%)" stroke-width="1.5"></path><path d="M497.96 659.31L497.96 659.31" stroke="hsl(319, 41.7%, 38.5%)" stroke-width="1.5"></path><path d="M697.4 398.36L697.4 398.36" stroke="hsl(319, 41.7%, 38.5%)" stroke-width="1.5"></path><path d="M697.4 398.36L692.37 487.77" stroke="hsl(319, 41.7%, 38.5%)" stroke-width="1.5"></path><path d="M697.4 398.36L822.19 503.84" stroke="hsl(319, 41.7%, 38.5%)" stroke-width="1.5"></path><path d="M697.4 398.36L961.59 369.4" stroke="hsl(319, 41.7%, 38.5%)" stroke-width="1.5"></path><path d="M697.4 398.36L691.84 681.69" stroke="hsl(319, 41.7%, 38.5%)" stroke-width="1.5"></path><path d="M692.37 487.77L692.37 487.77" stroke="hsl(319, 41.7%, 38.5%)" stroke-width="1.5"></path><path d="M692.37 487.77L822.19 503.84" stroke="hsl(319, 41.7%, 38.5%)" stroke-width="1.5"></path><path d="M691.84 681.69L691.84 681.69" stroke="hsl(319, 41.7%, 38.5%)" stroke-width="1.5"></path><path d="M691.84 681.69L845.51 643.4" stroke="hsl(319, 41.7%, 38.5%)" stroke-width="1.5"></path><path d="M691.84 681.69L692.37 487.77" stroke="hsl(319, 41.7%, 38.5%)" stroke-width="1.5"></path><path d="M691.84 681.69L497.96 659.31" stroke="hsl(319, 41.7%, 38.5%)" stroke-width="1.5"></path><path d="M822.19 503.84L822.19 503.84" stroke="hsl(319, 41.7%, 38.5%)" stroke-width="1.5"></path><path d="M822.19 503.84L845.51 643.4" stroke="hsl(319, 41.7%, 38.5%)" stroke-width="1.5"></path><path d="M822.19 503.84L993.47 524" stroke="hsl(319, 41.7%, 38.5%)" stroke-width="1.5"></path><path d="M822.19 503.84L961.59 369.4" stroke="hsl(319, 41.7%, 38.5%)" stroke-width="1.5"></path><path d="M845.51 643.4L845.51 643.4" stroke="hsl(319, 41.7%, 38.5%)" stroke-width="1.5"></path><path d="M845.51 643.4L993.47 524" stroke="hsl(319, 41.7%, 38.5%)" stroke-width="1.5"></path><path d="M961.59 369.4L961.59 369.4" stroke="hsl(319, 41.7%, 38.5%)" stroke-width="1.5"></path><path d="M961.59 369.4L1093.56 360.76" stroke="hsl(319, 41.7%, 38.5%)" stroke-width="1.5"></path><path d="M993.47 524L993.47 524" stroke="hsl(319, 41.7%, 38.5%)" stroke-width="1.5"></path><path d="M993.47 524L961.59 369.4" stroke="hsl(319, 41.7%, 38.5%)" stroke-width="1.5"></path><path d="M993.47 524L1157.62 490.61" stroke="hsl(319, 41.7%, 38.5%)" stroke-width="1.5"></path><path d="M993.47 524L1093.56 360.76" stroke="hsl(319, 41.7%, 38.5%)" stroke-width="1.5"></path><path d="M1093.56 360.76L1093.56 360.76" stroke="hsl(319, 41.7%, 38.5%)" stroke-width="1.5"></path><path d="M1093.56 360.76L1157.62 490.61" stroke="hsl(319, 41.7%, 38.5%)" stroke-width="1.5"></path><path d="M1093.56 360.76L1268.86 381.37" stroke="hsl(319, 41.7%, 38.5%)" stroke-width="1.5"></path><path d="M1157.62 490.61L1157.62 490.61" stroke="hsl(319, 41.7%, 38.5%)" stroke-width="1.5"></path><path d="M1157.62 490.61L1293.07 510.9" stroke="hsl(319, 41.7%, 38.5%)" stroke-width="1.5"></path><path d="M1115.64 700.99L1115.64 700.99" stroke="hsl(319, 41.7%, 38.5%)" stroke-width="1.5"></path><path d="M1115.64 700.99L1262.57 650.35" stroke="hsl(319, 41.7%, 38.5%)" stroke-width="1.5"></path><path d="M1115.64 700.99L1157.62 490.61" stroke="hsl(319, 41.7%, 38.5%)" stroke-width="1.5"></path><path d="M1115.64 700.99L993.47 524" stroke="hsl(319, 41.7%, 38.5%)" stroke-width="1.5"></path><path d="M1115.64 700.99L1293.07 510.9" stroke="hsl(319, 41.7%, 38.5%)" stroke-width="1.5"></path><path d="M1268.28 -81.93L1268.28 -81.93" stroke="hsl(319, 41.7%, 38.5%)" stroke-width="1.5"></path><path d="M1268.28 -81.93L1390.55 -44.68" stroke="hsl(319, 41.7%, 38.5%)" stroke-width="1.5"></path><path d="M1268.28 -81.93L1292.05 107.36" stroke="hsl(319, 41.7%, 38.5%)" stroke-width="1.5"></path><path d="M1268.28 -81.93L1462.21 104.63" stroke="hsl(319, 41.7%, 38.5%)" stroke-width="1.5"></path><path d="M1268.28 -81.93L1157.06 194.36" stroke="hsl(319, 41.7%, 38.5%)" stroke-width="1.5"></path><path d="M1268.28 -81.93L1291.88 237.66" stroke="hsl(319, 41.7%, 38.5%)" stroke-width="1.5"></path><path d="M1268.28 -81.93L1397.09 242.33" stroke="hsl(319, 41.7%, 38.5%)" stroke-width="1.5"></path><path d="M1292.05 107.36L1292.05 107.36" stroke="hsl(319, 41.7%, 38.5%)" stroke-width="1.5"></path><path d="M1292.05 107.36L1291.88 237.66" stroke="hsl(319, 41.7%, 38.5%)" stroke-width="1.5"></path><path d="M1292.05 107.36L1462.21 104.63" stroke="hsl(319, 41.7%, 38.5%)" stroke-width="1.5"></path><path d="M1292.05 107.36L1397.09 242.33" stroke="hsl(319, 41.7%, 38.5%)" stroke-width="1.5"></path><path d="M1292.05 107.36L1390.55 -44.68" stroke="hsl(319, 41.7%, 38.5%)" stroke-width="1.5"></path><path d="M1291.88 237.66L1291.88 237.66" stroke="hsl(319, 41.7%, 38.5%)" stroke-width="1.5"></path><path d="M1291.88 237.66L1397.09 242.33" stroke="hsl(319, 41.7%, 38.5%)" stroke-width="1.5"></path><path d="M1293.07 510.9L1293.07 510.9" stroke="hsl(319, 41.7%, 38.5%)" stroke-width="1.5"></path><path d="M1293.07 510.9L1262.57 650.35" stroke="hsl(319, 41.7%, 38.5%)" stroke-width="1.5"></path><path d="M1293.07 510.9L1408.91 368.75" stroke="hsl(319, 41.7%, 38.5%)" stroke-width="1.5"></path><path d="M1293.07 510.9L1426.56 663.55" stroke="hsl(319, 41.7%, 38.5%)" stroke-width="1.5"></path><path d="M1262.57 650.35L1262.57 650.35" stroke="hsl(319, 41.7%, 38.5%)" stroke-width="1.5"></path><path d="M1390.55 -44.68L1390.55 -44.68" stroke="hsl(319, 41.7%, 38.5%)" stroke-width="1.5"></path><path d="M1390.55 -44.68L1462.21 104.63" stroke="hsl(319, 41.7%, 38.5%)" stroke-width="1.5"></path><path d="M1390.55 -44.68L1583.41 98.62" stroke="hsl(319, 41.7%, 38.5%)" stroke-width="1.5"></path><path d="M1390.55 -44.68L1397.09 242.33" stroke="hsl(319, 41.7%, 38.5%)" stroke-width="1.5"></path><path d="M1390.55 -44.68L1565.99 188.7" stroke="hsl(319, 41.7%, 38.5%)" stroke-width="1.5"></path><path d="M1462.21 104.63L1462.21 104.63" stroke="hsl(319, 41.7%, 38.5%)" stroke-width="1.5"></path><path d="M1462.21 104.63L1583.41 98.62" stroke="hsl(319, 41.7%, 38.5%)" stroke-width="1.5"></path><path d="M1462.21 104.63L1565.99 188.7" stroke="hsl(319, 41.7%, 38.5%)" stroke-width="1.5"></path><path d="M1397.09 242.33L1397.09 242.33" stroke="hsl(319, 41.7%, 38.5%)" stroke-width="1.5"></path><path d="M1397.09 242.33L1408.91 368.75" stroke="hsl(319, 41.7%, 38.5%)" stroke-width="1.5"></path><path d="M1397.09 242.33L1462.21 104.63" stroke="hsl(319, 41.7%, 38.5%)" stroke-width="1.5"></path><path d="M1408.91 368.75L1408.91 368.75" stroke="hsl(319, 41.7%, 38.5%)" stroke-width="1.5"></path><path d="M1408.91 368.75L1575 380.77" stroke="hsl(319, 41.7%, 38.5%)" stroke-width="1.5"></path><path d="M1408.91 368.75L1291.88 237.66" stroke="hsl(319, 41.7%, 38.5%)" stroke-width="1.5"></path><path d="M1426.56 663.55L1426.56 663.55" stroke="hsl(319, 41.7%, 38.5%)" stroke-width="1.5"></path><path d="M1426.56 663.55L1262.57 650.35" stroke="hsl(319, 41.7%, 38.5%)" stroke-width="1.5"></path><path d="M1426.56 663.55L1595.24 647.19" stroke="hsl(319, 41.7%, 38.5%)" stroke-width="1.5"></path><path d="M1426.56 663.55L1561 517.91" stroke="hsl(319, 41.7%, 38.5%)" stroke-width="1.5"></path><path d="M1583.41 98.62L1583.41 98.62" stroke="hsl(319, 41.7%, 38.5%)" stroke-width="1.5"></path><path d="M1583.41 98.62L1565.99 188.7" stroke="hsl(319, 41.7%, 38.5%)" stroke-width="1.5"></path><path d="M1583.41 98.62L1397.09 242.33" stroke="hsl(319, 41.7%, 38.5%)" stroke-width="1.5"></path><path d="M1583.41 98.62L1575 380.77" stroke="hsl(319, 41.7%, 38.5%)" stroke-width="1.5"></path><path d="M1583.41 98.62L1292.05 107.36" stroke="hsl(319, 41.7%, 38.5%)" stroke-width="1.5"></path><path d="M1565.99 188.7L1565.99 188.7" stroke="hsl(319, 41.7%, 38.5%)" stroke-width="1.5"></path><path d="M1565.99 188.7L1397.09 242.33" stroke="hsl(319, 41.7%, 38.5%)" stroke-width="1.5"></path><path d="M1565.99 188.7L1575 380.77" stroke="hsl(319, 41.7%, 38.5%)" stroke-width="1.5"></path><path d="M1565.99 188.7L1408.91 368.75" stroke="hsl(319, 41.7%, 38.5%)" stroke-width="1.5"></path><path d="M1565.99 188.7L1291.88 237.66" stroke="hsl(319, 41.7%, 38.5%)" stroke-width="1.5"></path><path d="M1575 380.77L1575 380.77" stroke="hsl(319, 41.7%, 38.5%)" stroke-width="1.5"></path><path d="M1575 380.77L1561 517.91" stroke="hsl(319, 41.7%, 38.5%)" stroke-width="1.5"></path><path d="M1561 517.91L1561 517.91" stroke="hsl(319, 41.7%, 38.5%)" stroke-width="1.5"></path><path d="M1561 517.91L1595.24 647.19" stroke="hsl(319, 41.7%, 38.5%)" stroke-width="1.5"></path><path d="M1595.24 647.19L1595.24 647.19" stroke="hsl(319, 41.7%, 38.5%)" stroke-width="1.5"></path><circle r="25" cx="70.57" cy="697.15" fill="url(#SvgjsRadialGradient1047)"></circle><circle r="25" cx="200.26" cy="516.33" fill="url(#SvgjsRadialGradient1047)"></circle><circle r="25" cx="815.58" cy="411.64" fill="url(#SvgjsRadialGradient1047)"></circle><circle r="25" cx="987.58" cy="650.24" fill="url(#SvgjsRadialGradient1047)"></circle><circle r="25" cx="1157.06" cy="194.36" fill="url(#SvgjsRadialGradient1047)"></circle><circle r="25" cx="1268.86" cy="381.37" fill="url(#SvgjsRadialGradient1047)"></circle><circle r="25" cx="1433.31" cy="543.77" fill="url(#SvgjsRadialGradient1047)"></circle><circle r="5" cx="-64.98" cy="508.48" fill="#b596ab"></circle><circle r="5" cx="-93.64" cy="678.91" fill="#b596ab"></circle><circle r="5" cx="100.3" cy="526.44" fill="#b596ab"></circle><circle r="5" cx="224.89" cy="645.24" fill="#b596ab"></circle><circle r="5" cx="387.86" cy="524.36" fill="#b596ab"></circle><circle r="5" cx="400.27" cy="690.5" fill="#b596ab"></circle><circle r="5" cx="533.69" cy="547.25" fill="#b596ab"></circle><circle r="5" cx="497.96" cy="659.31" fill="#b596ab"></circle><circle r="5" cx="697.4" cy="398.36" fill="#b596ab"></circle><circle r="5" cx="692.37" cy="487.77" fill="#b596ab"></circle><circle r="5" cx="691.84" cy="681.69" fill="#b596ab"></circle><circle r="5" cx="822.19" cy="503.84" fill="#b596ab"></circle><circle r="5" cx="845.51" cy="643.4" fill="#b596ab"></circle><circle r="5" cx="961.59" cy="369.4" fill="#b596ab"></circle><circle r="5" cx="993.47" cy="524" fill="#b596ab"></circle><circle r="5" cx="1093.56" cy="360.76" fill="#b596ab"></circle><circle r="5" cx="1157.62" cy="490.61" fill="#b596ab"></circle><circle r="5" cx="1115.64" cy="700.99" fill="#b596ab"></circle><circle r="5" cx="1268.28" cy="-81.93" fill="#b596ab"></circle><circle r="5" cx="1292.05" cy="107.36" fill="#b596ab"></circle><circle r="5" cx="1291.88" cy="237.66" fill="#b596ab"></circle><circle r="5" cx="1293.07" cy="510.9" fill="#b596ab"></circle><circle r="5" cx="1262.57" cy="650.35" fill="#b596ab"></circle><circle r="5" cx="1390.55" cy="-44.68" fill="#b596ab"></circle><circle r="5" cx="1462.21" cy="104.63" fill="#b596ab"></circle><circle r="5" cx="1397.09" cy="242.33" fill="#b596ab"></circle><circle r="5" cx="1408.91" cy="368.75" fill="#b596ab"></circle><circle r="5" cx="1426.56" cy="663.55" fill="#b596ab"></circle><circle r="5" cx="1583.41" cy="98.62" fill="#b596ab"></circle><circle r="5" cx="1565.99" cy="188.7" fill="#b596ab"></circle><circle r="5" cx="1575" cy="380.77" fill="#b596ab"></circle><circle r="5" cx="1561" cy="517.91" fill="#b596ab"></circle><circle r="5" cx="1595.24" cy="647.19" fill="#b596ab"></circle></g><defs><mask id="SvgjsMask1045"><rect width="1440" height="560" fill="#ffffff"></rect></mask><linearGradient x1="15.28%" y1="-39.29%" x2="84.72%" y2="139.29%" gradientUnits="userSpaceOnUse" id="SvgjsLinearGradient1046"><stop stop-color="rgba(176, 105, 119, 1)" offset="0"></stop><stop stop-color="rgba(222, 176, 65, 1)" offset="1"></stop></linearGradient><radialGradient id="SvgjsRadialGradient1047"><stop stop-color="#ffffff" offset="0.1"></stop><stop stop-color="rgba(107, 44, 87, 1)" offset="0.2"></stop><stop stop-color="rgba(107, 44, 87, 0)" offset="1"></stop></radialGradient></defs></svg>