<svg xmlns="http://www.w3.org/2000/svg" version="1.1" xmlns:xlink="http://www.w3.org/1999/xlink" xmlns:svgjs="http://svgjs.com/svgjs" width="1440" height="250" preserveAspectRatio="none" viewBox="0 0 1440 250"><g mask="url(&quot;#SvgjsMask2178&quot;)" fill="none"><rect width="1440" height="250" x="0" y="0" fill="rgba(0, 219, 150, 1)"></rect><path d="M35 250L285 0L552 0L302 250z" fill="url(#SvgjsLinearGradient2179)"></path><path d="M246.60000000000002 250L496.6 0L694.6 0L444.6 250z" fill="url(#SvgjsLinearGradient2179)"></path><path d="M490.20000000000005 250L740.2 0L1077.7 0L827.7 250z" fill="url(#SvgjsLinearGradient2179)"></path><path d="M713.8000000000001 250L963.8000000000001 0L1026.8000000000002 0L776.8000000000001 250z" fill="url(#SvgjsLinearGradient2179)"></path><path d="M1418 250L1168 0L1049.5 0L1299.5 250z" fill="url(#SvgjsLinearGradient2180)"></path><path d="M1159.4 250L909.4000000000001 0L804.4000000000001 0L1054.4 250z" fill="url(#SvgjsLinearGradient2180)"></path><path d="M925.8 250L675.8 0L365.29999999999995 0L615.3 250z" fill="url(#SvgjsLinearGradient2180)"></path><path d="M694.1999999999999 250L444.19999999999993 0L183.19999999999993 0L433.19999999999993 250z" fill="url(#SvgjsLinearGradient2180)"></path><path d="M1232.23500615898 250L1440 42.2350061589799L1440 250z" fill="url(#SvgjsLinearGradient2179)"></path><path d="M0 250L207.7649938410201 250L 0 42.2350061589799z" fill="url(#SvgjsLinearGradient2180)"></path></g><defs><mask id="SvgjsMask2178"><rect width="1440" height="250" fill="#ffffff"></rect></mask><linearGradient x1="0%" y1="100%" x2="100%" y2="0%" id="SvgjsLinearGradient2179"><stop stop-color="rgba(15, 70, 185, 0.2)" offset="0"></stop><stop stop-opacity="0" stop-color="rgba(15, 70, 185, 0.2)" offset="0.66"></stop></linearGradient><linearGradient x1="100%" y1="100%" x2="0%" y2="0%" id="SvgjsLinearGradient2180"><stop stop-color="rgba(15, 70, 185, 0.2)" offset="0"></stop><stop stop-opacity="0" stop-color="rgba(15, 70, 185, 0.2)" offset="0.66"></stop></linearGradient></defs></svg>