<svg xmlns="http://www.w3.org/2000/svg" version="1.1" xmlns:xlink="http://www.w3.org/1999/xlink" xmlns:svgjs="http://svgjs.com/svgjs" width="1440" height="560" preserveAspectRatio="none" viewBox="0 0 1440 560"><g mask="url(&quot;#SvgjsMask1789&quot;)" fill="none"><rect width="1440" height="560" x="0" y="0" fill="url(#SvgjsLinearGradient1790)"></rect><g mask="url(&quot;#SvgjsMask1791&quot;)"><path d="M7.5 277.5L22.5 292.5L37.5 292.5L52.5 292.5M-7.5 277.5L7.5 277.5L22.5 277.5" stroke="rgba(253, 251, 118, 1)" stroke-width="2.5"></path><path d="M18.75 277.5 a3.75 3.75 0 1 0 7.5 0 a3.75 3.75 0 1 0 -7.5 0zM48.75 292.5 a3.75 3.75 0 1 0 7.5 0 a3.75 3.75 0 1 0 -7.5 0z" fill="rgba(253, 251, 118, 1)"></path><path d="M67.5 322.5L82.5 307.5L97.5 307.5M52.5 322.5L67.5 307.5L82.5 292.5L97.5 292.5M37.5 307.5L52.5 307.5M-7.5 292.5L7.5 307.5L22.5 307.5L37.5 307.5L52.5 322.5L67.5 322.5L82.5 322.5L97.5 322.5L112.5 322.5L127.5 322.5" stroke="rgba(253, 251, 118, 1)" stroke-width="2.5"></path><path d="M123.75 322.5 a3.75 3.75 0 1 0 7.5 0 a3.75 3.75 0 1 0 -7.5 0zM93.75 307.5 a3.75 3.75 0 1 0 7.5 0 a3.75 3.75 0 1 0 -7.5 0zM93.75 292.5 a3.75 3.75 0 1 0 7.5 0 a3.75 3.75 0 1 0 -7.5 0zM48.75 307.5 a3.75 3.75 0 1 0 7.5 0 a3.75 3.75 0 1 0 -7.5 0z" fill="rgba(253, 251, 118, 1)"></path><path d="M-7.5 262.5L7.5 262.5" stroke="rgba(253, 251, 118, 1)" stroke-width="2.5"></path><path d="M3.75 262.5 a3.75 3.75 0 1 0 7.5 0 a3.75 3.75 0 1 0 -7.5 0z" fill="rgba(253, 251, 118, 1)"></path><path d="M172.5 337.5L187.5 322.5L202.5 307.5L217.5 307.5L232.5 307.5L247.5 307.5L262.5 307.5L277.5 307.5L292.5 307.5M142.5 337.5L157.5 322.5L172.5 322.5M232.5 337.5L247.5 322.5M322.5 337.5L337.5 322.5M307.5 337.5L322.5 352.5L337.5 352.5L352.5 352.5L367.5 352.5M202.5 337.5L217.5 322.5L232.5 322.5M-7.5 307.5L7.5 322.5L22.5 322.5L37.5 322.5L52.5 337.5L67.5 337.5L82.5 337.5L97.5 337.5L112.5 337.5L127.5 337.5L142.5 337.5L157.5 337.5L172.5 337.5L187.5 337.5L202.5 337.5L217.5 337.5L232.5 337.5L247.5 337.5L262.5 337.5L277.5 337.5L292.5 337.5L307.5 337.5L322.5 337.5L337.5 337.5" stroke="rgba(253, 251, 118, 1)" stroke-width="2.5"></path><path d="M333.75 337.5 a3.75 3.75 0 1 0 7.5 0 a3.75 3.75 0 1 0 -7.5 0zM288.75 307.5 a3.75 3.75 0 1 0 7.5 0 a3.75 3.75 0 1 0 -7.5 0zM168.75 322.5 a3.75 3.75 0 1 0 7.5 0 a3.75 3.75 0 1 0 -7.5 0zM243.75 322.5 a3.75 3.75 0 1 0 7.5 0 a3.75 3.75 0 1 0 -7.5 0zM333.75 322.5 a3.75 3.75 0 1 0 7.5 0 a3.75 3.75 0 1 0 -7.5 0zM363.75 352.5 a3.75 3.75 0 1 0 7.5 0 a3.75 3.75 0 1 0 -7.5 0zM228.75 322.5 a3.75 3.75 0 1 0 7.5 0 a3.75 3.75 0 1 0 -7.5 0z" fill="rgba(253, 251, 118, 1)"></path><path d="M547.5 262.5L562.5 277.5L577.5 277.5L592.5 277.5L607.5 277.5L622.5 277.5L637.5 277.5L652.5 277.5L667.5 277.5L682.5 277.5L697.5 277.5L712.5 277.5L727.5 277.5L742.5 277.5M562.5 262.5L577.5 247.5L592.5 247.5L607.5 247.5L622.5 247.5L637.5 247.5L652.5 247.5L667.5 247.5L682.5 247.5L697.5 247.5L712.5 247.5L727.5 247.5L742.5 247.5L757.5 247.5L772.5 247.5L787.5 247.5L802.5 247.5M232.5 262.5L247.5 247.5L262.5 247.5L277.5 247.5L292.5 247.5L307.5 247.5L322.5 247.5L337.5 247.5L352.5 247.5L367.5 247.5L382.5 247.5L397.5 247.5L412.5 247.5L427.5 247.5L442.5 232.5L457.5 232.5L472.5 232.5M532.5 262.5L547.5 277.5L562.5 292.5L577.5 292.5L592.5 292.5L607.5 292.5L622.5 292.5L637.5 292.5L652.5 292.5M22.5 247.5L37.5 247.5L52.5 247.5M367.5 262.5L382.5 277.5L397.5 277.5L412.5 277.5M247.5 262.5L262.5 277.5L277.5 277.5L292.5 277.5L307.5 277.5L322.5 277.5L337.5 277.5L352.5 277.5L367.5 277.5L382.5 292.5L397.5 292.5L412.5 292.5L427.5 292.5L442.5 292.5L457.5 292.5L472.5 292.5M172.5 262.5L187.5 277.5L202.5 277.5M97.5 262.5L112.5 277.5L127.5 277.5L142.5 277.5L157.5 292.5L172.5 292.5L187.5 292.5L202.5 292.5L217.5 292.5M472.5 262.5L487.5 277.5L502.5 277.5L517.5 277.5L532.5 277.5L547.5 292.5L562.5 307.5L577.5 307.5L592.5 307.5L607.5 307.5L622.5 307.5L637.5 307.5L652.5 307.5L667.5 307.5L682.5 307.5M457.5 262.5L472.5 277.5M187.5 262.5L202.5 247.5L217.5 247.5M442.5 262.5L457.5 277.5M-7.5 247.5L7.5 247.5L22.5 247.5L37.5 262.5L52.5 262.5L67.5 262.5L82.5 262.5L97.5 262.5L112.5 262.5L127.5 262.5L142.5 262.5L157.5 262.5L172.5 262.5L187.5 262.5L202.5 262.5L217.5 262.5L232.5 262.5L247.5 262.5L262.5 262.5L277.5 262.5L292.5 262.5L307.5 262.5L322.5 262.5L337.5 262.5L352.5 262.5L367.5 262.5L382.5 262.5L397.5 262.5L412.5 262.5L427.5 262.5L442.5 262.5L457.5 262.5L472.5 262.5L487.5 262.5L502.5 262.5L517.5 262.5L532.5 262.5L547.5 262.5L562.5 262.5L577.5 262.5L592.5 262.5L607.5 262.5L622.5 262.5L637.5 262.5L652.5 262.5L667.5 262.5L682.5 262.5L697.5 262.5L712.5 262.5L727.5 262.5L742.5 262.5L757.5 262.5L772.5 262.5L787.5 262.5" stroke="rgba(253, 251, 118, 1)" stroke-width="2.5"></path><path d="M783.75 262.5 a3.75 3.75 0 1 0 7.5 0 a3.75 3.75 0 1 0 -7.5 0zM738.75 277.5 a3.75 3.75 0 1 0 7.5 0 a3.75 3.75 0 1 0 -7.5 0zM798.75 247.5 a3.75 3.75 0 1 0 7.5 0 a3.75 3.75 0 1 0 -7.5 0zM468.75 232.5 a3.75 3.75 0 1 0 7.5 0 a3.75 3.75 0 1 0 -7.5 0zM648.75 292.5 a3.75 3.75 0 1 0 7.5 0 a3.75 3.75 0 1 0 -7.5 0zM48.75 247.5 a3.75 3.75 0 1 0 7.5 0 a3.75 3.75 0 1 0 -7.5 0zM408.75 277.5 a3.75 3.75 0 1 0 7.5 0 a3.75 3.75 0 1 0 -7.5 0zM468.75 292.5 a3.75 3.75 0 1 0 7.5 0 a3.75 3.75 0 1 0 -7.5 0zM198.75 277.5 a3.75 3.75 0 1 0 7.5 0 a3.75 3.75 0 1 0 -7.5 0zM213.75 292.5 a3.75 3.75 0 1 0 7.5 0 a3.75 3.75 0 1 0 -7.5 0zM678.75 307.5 a3.75 3.75 0 1 0 7.5 0 a3.75 3.75 0 1 0 -7.5 0zM468.75 277.5 a3.75 3.75 0 1 0 7.5 0 a3.75 3.75 0 1 0 -7.5 0zM213.75 247.5 a3.75 3.75 0 1 0 7.5 0 a3.75 3.75 0 1 0 -7.5 0zM453.75 277.5 a3.75 3.75 0 1 0 7.5 0 a3.75 3.75 0 1 0 -7.5 0z" fill="rgba(253, 251, 118, 1)"></path><path d="M217.5 352.5L232.5 367.5L247.5 367.5L262.5 367.5L277.5 367.5L292.5 367.5M-7.5 322.5L7.5 337.5L22.5 337.5L37.5 337.5L52.5 352.5L67.5 352.5L82.5 352.5L97.5 352.5L112.5 352.5L127.5 352.5L142.5 352.5L157.5 352.5L172.5 352.5L187.5 352.5L202.5 352.5L217.5 352.5L232.5 352.5L247.5 352.5L262.5 352.5" stroke="rgba(253, 251, 118, 1)" stroke-width="2.5"></path><path d="M258.75 352.5 a3.75 3.75 0 1 0 7.5 0 a3.75 3.75 0 1 0 -7.5 0zM288.75 367.5 a3.75 3.75 0 1 0 7.5 0 a3.75 3.75 0 1 0 -7.5 0z" fill="rgba(253, 251, 118, 1)"></path><path d="M322.5 202.5L337.5 217.5M142.5 217.5L157.5 232.5L172.5 232.5L187.5 232.5L202.5 232.5L217.5 232.5L232.5 232.5L247.5 232.5L262.5 232.5L277.5 232.5M292.5 202.5L307.5 187.5L322.5 187.5L337.5 187.5L352.5 187.5L367.5 187.5L382.5 187.5L397.5 187.5L412.5 187.5M472.5 202.5L487.5 187.5L502.5 187.5L517.5 187.5M367.5 202.5L382.5 217.5L397.5 217.5L412.5 217.5L427.5 217.5L442.5 217.5L457.5 217.5L472.5 217.5M97.5 232.5L112.5 217.5L127.5 217.5M247.5 187.5L262.5 202.5L277.5 202.5L292.5 217.5L307.5 217.5L322.5 217.5L337.5 232.5L352.5 232.5L367.5 232.5L382.5 232.5L397.5 232.5L412.5 232.5L427.5 232.5M127.5 232.5L142.5 232.5L157.5 247.5L172.5 247.5L187.5 247.5M112.5 232.5L127.5 247.5L142.5 247.5M-7.5 232.5L7.5 232.5L22.5 232.5L37.5 232.5L52.5 232.5L67.5 232.5L82.5 232.5L97.5 232.5L112.5 232.5L127.5 232.5L142.5 217.5L157.5 217.5L172.5 217.5L187.5 217.5L202.5 202.5L217.5 187.5L232.5 187.5L247.5 187.5L262.5 187.5L277.5 187.5L292.5 202.5L307.5 202.5L322.5 202.5L337.5 202.5L352.5 202.5L367.5 202.5L382.5 202.5L397.5 202.5L412.5 202.5L427.5 202.5L442.5 202.5L457.5 202.5L472.5 202.5L487.5 202.5L502.5 202.5L517.5 202.5L532.5 202.5" stroke="rgba(253, 251, 118, 1)" stroke-width="2.5"></path><path d="M528.75 202.5 a3.75 3.75 0 1 0 7.5 0 a3.75 3.75 0 1 0 -7.5 0zM333.75 217.5 a3.75 3.75 0 1 0 7.5 0 a3.75 3.75 0 1 0 -7.5 0zM273.75 232.5 a3.75 3.75 0 1 0 7.5 0 a3.75 3.75 0 1 0 -7.5 0zM408.75 187.5 a3.75 3.75 0 1 0 7.5 0 a3.75 3.75 0 1 0 -7.5 0zM513.75 187.5 a3.75 3.75 0 1 0 7.5 0 a3.75 3.75 0 1 0 -7.5 0zM468.75 217.5 a3.75 3.75 0 1 0 7.5 0 a3.75 3.75 0 1 0 -7.5 0zM123.75 217.5 a3.75 3.75 0 1 0 7.5 0 a3.75 3.75 0 1 0 -7.5 0zM423.75 232.5 a3.75 3.75 0 1 0 7.5 0 a3.75 3.75 0 1 0 -7.5 0zM183.75 247.5 a3.75 3.75 0 1 0 7.5 0 a3.75 3.75 0 1 0 -7.5 0zM138.75 247.5 a3.75 3.75 0 1 0 7.5 0 a3.75 3.75 0 1 0 -7.5 0z" fill="rgba(253, 251, 118, 1)"></path><path d="M607.5 382.5L622.5 367.5L637.5 367.5M487.5 382.5L502.5 367.5L517.5 367.5M562.5 382.5L577.5 367.5L592.5 367.5L607.5 367.5L622.5 352.5L637.5 352.5L652.5 352.5M637.5 382.5L652.5 397.5L667.5 397.5L682.5 397.5L697.5 397.5L712.5 397.5L727.5 397.5L742.5 397.5L757.5 382.5M202.5 367.5L217.5 367.5M172.5 367.5L187.5 382.5L202.5 382.5M352.5 382.5L367.5 367.5L382.5 367.5L397.5 367.5L412.5 367.5L427.5 382.5L442.5 382.5L457.5 367.5L472.5 352.5L487.5 352.5L502.5 352.5L517.5 352.5L532.5 352.5M667.5 382.5L682.5 367.5L697.5 367.5L712.5 367.5L727.5 367.5L742.5 367.5M532.5 382.5L547.5 367.5L562.5 367.5M337.5 382.5L352.5 367.5M307.5 382.5L322.5 367.5L337.5 367.5M157.5 367.5L172.5 382.5M-7.5 337.5L7.5 352.5L22.5 352.5L37.5 352.5L52.5 367.5L67.5 367.5L82.5 367.5L97.5 367.5L112.5 367.5L127.5 367.5L142.5 367.5L157.5 367.5L172.5 367.5L187.5 367.5L202.5 367.5L217.5 382.5L232.5 382.5L247.5 382.5L262.5 382.5L277.5 382.5L292.5 382.5L307.5 382.5L322.5 382.5L337.5 382.5L352.5 382.5L367.5 382.5L382.5 382.5L397.5 382.5L412.5 382.5L427.5 397.5L442.5 397.5L457.5 382.5L472.5 382.5L487.5 382.5L502.5 382.5L517.5 382.5L532.5 382.5L547.5 382.5L562.5 382.5L577.5 382.5L592.5 382.5L607.5 382.5L622.5 382.5L637.5 382.5L652.5 382.5L667.5 382.5L682.5 382.5L697.5 382.5L712.5 382.5L727.5 382.5L742.5 382.5" stroke="rgba(253, 251, 118, 1)" stroke-width="2.5"></path><path d="M738.75 382.5 a3.75 3.75 0 1 0 7.5 0 a3.75 3.75 0 1 0 -7.5 0zM633.75 367.5 a3.75 3.75 0 1 0 7.5 0 a3.75 3.75 0 1 0 -7.5 0zM513.75 367.5 a3.75 3.75 0 1 0 7.5 0 a3.75 3.75 0 1 0 -7.5 0zM648.75 352.5 a3.75 3.75 0 1 0 7.5 0 a3.75 3.75 0 1 0 -7.5 0zM753.75 382.5 a3.75 3.75 0 1 0 7.5 0 a3.75 3.75 0 1 0 -7.5 0zM213.75 367.5 a3.75 3.75 0 1 0 7.5 0 a3.75 3.75 0 1 0 -7.5 0zM198.75 382.5 a3.75 3.75 0 1 0 7.5 0 a3.75 3.75 0 1 0 -7.5 0zM528.75 352.5 a3.75 3.75 0 1 0 7.5 0 a3.75 3.75 0 1 0 -7.5 0zM738.75 367.5 a3.75 3.75 0 1 0 7.5 0 a3.75 3.75 0 1 0 -7.5 0zM558.75 367.5 a3.75 3.75 0 1 0 7.5 0 a3.75 3.75 0 1 0 -7.5 0zM348.75 367.5 a3.75 3.75 0 1 0 7.5 0 a3.75 3.75 0 1 0 -7.5 0zM333.75 367.5 a3.75 3.75 0 1 0 7.5 0 a3.75 3.75 0 1 0 -7.5 0zM168.75 382.5 a3.75 3.75 0 1 0 7.5 0 a3.75 3.75 0 1 0 -7.5 0z" fill="rgba(253, 251, 118, 1)"></path><path d="M82.5 202.5L97.5 217.5M52.5 217.5L67.5 217.5L82.5 217.5M-7.5 217.5L7.5 217.5L22.5 217.5L37.5 217.5L52.5 217.5L67.5 202.5L82.5 202.5L97.5 202.5L112.5 202.5L127.5 202.5L142.5 202.5L157.5 202.5L172.5 202.5L187.5 202.5L202.5 187.5L217.5 172.5L232.5 172.5L247.5 172.5L262.5 172.5L277.5 172.5L292.5 172.5" stroke="rgba(253, 251, 118, 1)" stroke-width="2.5"></path><path d="M288.75 172.5 a3.75 3.75 0 1 0 7.5 0 a3.75 3.75 0 1 0 -7.5 0zM93.75 217.5 a3.75 3.75 0 1 0 7.5 0 a3.75 3.75 0 1 0 -7.5 0zM78.75 217.5 a3.75 3.75 0 1 0 7.5 0 a3.75 3.75 0 1 0 -7.5 0z" fill="rgba(253, 251, 118, 1)"></path><path d="M472.5 412.5L487.5 427.5M22.5 367.5L37.5 367.5M277.5 397.5L292.5 412.5L307.5 412.5L322.5 412.5L337.5 412.5L352.5 412.5L367.5 412.5L382.5 412.5L397.5 412.5L412.5 412.5L427.5 427.5L442.5 427.5L457.5 427.5L472.5 427.5L487.5 442.5L502.5 442.5L517.5 442.5L532.5 442.5L547.5 442.5L562.5 427.5L577.5 427.5L592.5 427.5L607.5 427.5L622.5 427.5L637.5 427.5M697.5 412.5L712.5 427.5L727.5 427.5L742.5 442.5L757.5 442.5L772.5 442.5L787.5 442.5M667.5 412.5L682.5 427.5L697.5 427.5L712.5 442.5M547.5 397.5L562.5 412.5L577.5 412.5L592.5 412.5L607.5 412.5L622.5 412.5M532.5 397.5L547.5 412.5M517.5 412.5L532.5 412.5L547.5 427.5M487.5 412.5L502.5 397.5L517.5 397.5M652.5 412.5L667.5 427.5L682.5 442.5L697.5 457.5L712.5 457.5L727.5 457.5L742.5 457.5L757.5 457.5M742.5 412.5L757.5 427.5L772.5 427.5L787.5 427.5L802.5 427.5M502.5 412.5L517.5 427.5L532.5 427.5M457.5 412.5L472.5 397.5L487.5 397.5M-7.5 352.5L7.5 367.5L22.5 367.5L37.5 382.5L52.5 382.5L67.5 382.5L82.5 382.5L97.5 382.5L112.5 382.5L127.5 382.5L142.5 382.5L157.5 397.5L172.5 397.5L187.5 397.5L202.5 397.5L217.5 397.5L232.5 397.5L247.5 397.5L262.5 397.5L277.5 397.5L292.5 397.5L307.5 397.5L322.5 397.5L337.5 397.5L352.5 397.5L367.5 397.5L382.5 397.5L397.5 397.5L412.5 397.5L427.5 412.5L442.5 412.5L457.5 412.5L472.5 412.5L487.5 412.5L502.5 412.5L517.5 412.5L532.5 397.5L547.5 397.5L562.5 397.5L577.5 397.5L592.5 397.5L607.5 397.5L622.5 397.5L637.5 412.5L652.5 412.5L667.5 412.5L682.5 412.5L697.5 412.5L712.5 412.5L727.5 412.5L742.5 412.5L757.5 412.5" stroke="rgba(253, 251, 118, 1)" stroke-width="2.5"></path><path d="M753.75 412.5 a3.75 3.75 0 1 0 7.5 0 a3.75 3.75 0 1 0 -7.5 0zM483.75 427.5 a3.75 3.75 0 1 0 7.5 0 a3.75 3.75 0 1 0 -7.5 0zM33.75 367.5 a3.75 3.75 0 1 0 7.5 0 a3.75 3.75 0 1 0 -7.5 0zM633.75 427.5 a3.75 3.75 0 1 0 7.5 0 a3.75 3.75 0 1 0 -7.5 0zM783.75 442.5 a3.75 3.75 0 1 0 7.5 0 a3.75 3.75 0 1 0 -7.5 0zM708.75 442.5 a3.75 3.75 0 1 0 7.5 0 a3.75 3.75 0 1 0 -7.5 0zM618.75 412.5 a3.75 3.75 0 1 0 7.5 0 a3.75 3.75 0 1 0 -7.5 0zM543.75 412.5 a3.75 3.75 0 1 0 7.5 0 a3.75 3.75 0 1 0 -7.5 0zM543.75 427.5 a3.75 3.75 0 1 0 7.5 0 a3.75 3.75 0 1 0 -7.5 0zM513.75 397.5 a3.75 3.75 0 1 0 7.5 0 a3.75 3.75 0 1 0 -7.5 0zM753.75 457.5 a3.75 3.75 0 1 0 7.5 0 a3.75 3.75 0 1 0 -7.5 0zM798.75 427.5 a3.75 3.75 0 1 0 7.5 0 a3.75 3.75 0 1 0 -7.5 0zM528.75 427.5 a3.75 3.75 0 1 0 7.5 0 a3.75 3.75 0 1 0 -7.5 0zM483.75 397.5 a3.75 3.75 0 1 0 7.5 0 a3.75 3.75 0 1 0 -7.5 0z" fill="rgba(253, 251, 118, 1)"></path><path d="M457.5 172.5L472.5 172.5L487.5 172.5L502.5 172.5L517.5 172.5M307.5 157.5L322.5 172.5L337.5 172.5M367.5 172.5L382.5 157.5L397.5 157.5L412.5 157.5L427.5 157.5L442.5 157.5L457.5 157.5L472.5 142.5L487.5 142.5L502.5 142.5L517.5 142.5M427.5 172.5L442.5 187.5L457.5 187.5L472.5 187.5M352.5 157.5L367.5 157.5M-7.5 202.5L7.5 202.5L22.5 202.5L37.5 202.5L52.5 202.5L67.5 187.5L82.5 187.5L97.5 187.5L112.5 187.5L127.5 187.5L142.5 187.5L157.5 187.5L172.5 187.5L187.5 187.5L202.5 172.5L217.5 157.5L232.5 157.5L247.5 157.5L262.5 157.5L277.5 157.5L292.5 157.5L307.5 157.5L322.5 157.5L337.5 157.5L352.5 157.5L367.5 172.5L382.5 172.5L397.5 172.5L412.5 172.5L427.5 172.5L442.5 172.5L457.5 172.5L472.5 157.5" stroke="rgba(253, 251, 118, 1)" stroke-width="2.5"></path><path d="M468.75 157.5 a3.75 3.75 0 1 0 7.5 0 a3.75 3.75 0 1 0 -7.5 0zM513.75 172.5 a3.75 3.75 0 1 0 7.5 0 a3.75 3.75 0 1 0 -7.5 0zM333.75 172.5 a3.75 3.75 0 1 0 7.5 0 a3.75 3.75 0 1 0 -7.5 0zM513.75 142.5 a3.75 3.75 0 1 0 7.5 0 a3.75 3.75 0 1 0 -7.5 0zM468.75 187.5 a3.75 3.75 0 1 0 7.5 0 a3.75 3.75 0 1 0 -7.5 0zM363.75 157.5 a3.75 3.75 0 1 0 7.5 0 a3.75 3.75 0 1 0 -7.5 0z" fill="rgba(253, 251, 118, 1)"></path><path d="M352.5 442.5L367.5 427.5L382.5 427.5L397.5 427.5L412.5 427.5M502.5 457.5L517.5 472.5L532.5 472.5L547.5 472.5L562.5 472.5L577.5 472.5L592.5 472.5L607.5 472.5L622.5 472.5L637.5 472.5L652.5 472.5M262.5 412.5L277.5 412.5M337.5 442.5L352.5 427.5M442.5 442.5L457.5 442.5L472.5 442.5M322.5 427.5L337.5 427.5M247.5 412.5L262.5 427.5M397.5 442.5L412.5 457.5L427.5 457.5L442.5 457.5L457.5 472.5M487.5 457.5L502.5 472.5L517.5 487.5L532.5 487.5L547.5 487.5M-7.5 367.5L7.5 382.5L22.5 382.5L37.5 397.5L52.5 397.5L67.5 397.5L82.5 397.5L97.5 397.5L112.5 397.5L127.5 397.5L142.5 397.5L157.5 412.5L172.5 412.5L187.5 412.5L202.5 412.5L217.5 412.5L232.5 412.5L247.5 412.5L262.5 412.5L277.5 427.5L292.5 427.5L307.5 427.5L322.5 427.5L337.5 442.5L352.5 442.5L367.5 442.5L382.5 442.5L397.5 442.5L412.5 442.5L427.5 442.5L442.5 442.5L457.5 457.5L472.5 457.5L487.5 457.5L502.5 457.5L517.5 457.5L532.5 457.5L547.5 457.5L562.5 442.5" stroke="rgba(253, 251, 118, 1)" stroke-width="2.5"></path><path d="M558.75 442.5 a3.75 3.75 0 1 0 7.5 0 a3.75 3.75 0 1 0 -7.5 0zM408.75 427.5 a3.75 3.75 0 1 0 7.5 0 a3.75 3.75 0 1 0 -7.5 0zM648.75 472.5 a3.75 3.75 0 1 0 7.5 0 a3.75 3.75 0 1 0 -7.5 0zM273.75 412.5 a3.75 3.75 0 1 0 7.5 0 a3.75 3.75 0 1 0 -7.5 0zM348.75 427.5 a3.75 3.75 0 1 0 7.5 0 a3.75 3.75 0 1 0 -7.5 0zM468.75 442.5 a3.75 3.75 0 1 0 7.5 0 a3.75 3.75 0 1 0 -7.5 0zM333.75 427.5 a3.75 3.75 0 1 0 7.5 0 a3.75 3.75 0 1 0 -7.5 0zM258.75 427.5 a3.75 3.75 0 1 0 7.5 0 a3.75 3.75 0 1 0 -7.5 0zM453.75 472.5 a3.75 3.75 0 1 0 7.5 0 a3.75 3.75 0 1 0 -7.5 0zM543.75 487.5 a3.75 3.75 0 1 0 7.5 0 a3.75 3.75 0 1 0 -7.5 0z" fill="rgba(253, 251, 118, 1)"></path><path d="M172.5 172.5L187.5 157.5L202.5 157.5M157.5 172.5L172.5 157.5M142.5 172.5L157.5 157.5M-7.5 187.5L7.5 187.5L22.5 187.5L37.5 187.5L52.5 187.5L67.5 172.5L82.5 172.5L97.5 172.5L112.5 172.5L127.5 172.5L142.5 172.5L157.5 172.5L172.5 172.5L187.5 172.5" stroke="rgba(253, 251, 118, 1)" stroke-width="2.5"></path><path d="M183.75 172.5 a3.75 3.75 0 1 0 7.5 0 a3.75 3.75 0 1 0 -7.5 0zM198.75 157.5 a3.75 3.75 0 1 0 7.5 0 a3.75 3.75 0 1 0 -7.5 0zM168.75 157.5 a3.75 3.75 0 1 0 7.5 0 a3.75 3.75 0 1 0 -7.5 0zM153.75 157.5 a3.75 3.75 0 1 0 7.5 0 a3.75 3.75 0 1 0 -7.5 0z" fill="rgba(253, 251, 118, 1)"></path><path d="M307.5 442.5L322.5 457.5L337.5 472.5L352.5 472.5L367.5 472.5L382.5 487.5L397.5 487.5L412.5 487.5L427.5 487.5L442.5 502.5L457.5 502.5M472.5 487.5L487.5 502.5L502.5 502.5L517.5 502.5M277.5 442.5L292.5 457.5L307.5 457.5L322.5 472.5L337.5 487.5L352.5 487.5M382.5 472.5L397.5 457.5M367.5 457.5L382.5 457.5M427.5 472.5L442.5 472.5M232.5 427.5L247.5 427.5M-7.5 382.5L7.5 397.5L22.5 397.5L37.5 412.5L52.5 412.5L67.5 412.5L82.5 412.5L97.5 412.5L112.5 412.5L127.5 412.5L142.5 412.5L157.5 427.5L172.5 427.5L187.5 427.5L202.5 427.5L217.5 427.5L232.5 427.5L247.5 442.5L262.5 442.5L277.5 442.5L292.5 442.5L307.5 442.5L322.5 442.5L337.5 457.5L352.5 457.5L367.5 457.5L382.5 472.5L397.5 472.5L412.5 472.5L427.5 472.5L442.5 487.5L457.5 487.5L472.5 487.5L487.5 487.5" stroke="rgba(253, 251, 118, 1)" stroke-width="2.5"></path><path d="M483.75 487.5 a3.75 3.75 0 1 0 7.5 0 a3.75 3.75 0 1 0 -7.5 0zM453.75 502.5 a3.75 3.75 0 1 0 7.5 0 a3.75 3.75 0 1 0 -7.5 0zM513.75 502.5 a3.75 3.75 0 1 0 7.5 0 a3.75 3.75 0 1 0 -7.5 0zM348.75 487.5 a3.75 3.75 0 1 0 7.5 0 a3.75 3.75 0 1 0 -7.5 0zM393.75 457.5 a3.75 3.75 0 1 0 7.5 0 a3.75 3.75 0 1 0 -7.5 0zM378.75 457.5 a3.75 3.75 0 1 0 7.5 0 a3.75 3.75 0 1 0 -7.5 0zM438.75 472.5 a3.75 3.75 0 1 0 7.5 0 a3.75 3.75 0 1 0 -7.5 0zM243.75 427.5 a3.75 3.75 0 1 0 7.5 0 a3.75 3.75 0 1 0 -7.5 0z" fill="rgba(253, 251, 118, 1)"></path><path d="M502.5 127.5L517.5 112.5L532.5 97.5L547.5 97.5L562.5 97.5L577.5 97.5L592.5 97.5L607.5 97.5L622.5 97.5M262.5 142.5L277.5 127.5L292.5 127.5L307.5 127.5M562.5 127.5L577.5 112.5L592.5 112.5L607.5 112.5L622.5 112.5L637.5 112.5M547.5 127.5L562.5 112.5M247.5 142.5L262.5 127.5L277.5 112.5L292.5 112.5L307.5 112.5L322.5 112.5L337.5 112.5L352.5 112.5L367.5 112.5L382.5 112.5L397.5 112.5L412.5 112.5L427.5 112.5L442.5 112.5L457.5 112.5L472.5 112.5L487.5 112.5M427.5 127.5L442.5 142.5M412.5 127.5L427.5 142.5M352.5 142.5L367.5 127.5L382.5 127.5M97.5 157.5L112.5 157.5L127.5 157.5L142.5 157.5M577.5 127.5L592.5 142.5L607.5 157.5L622.5 157.5L637.5 157.5L652.5 157.5L667.5 157.5L682.5 157.5L697.5 157.5L712.5 157.5L727.5 157.5L742.5 157.5L757.5 157.5L772.5 142.5L787.5 142.5M-7.5 172.5L7.5 172.5L22.5 172.5L37.5 172.5L52.5 172.5L67.5 157.5L82.5 157.5L97.5 157.5L112.5 142.5L127.5 142.5L142.5 142.5L157.5 142.5L172.5 142.5L187.5 142.5L202.5 142.5L217.5 142.5L232.5 142.5L247.5 142.5L262.5 142.5L277.5 142.5L292.5 142.5L307.5 142.5L322.5 142.5L337.5 142.5L352.5 142.5L367.5 142.5L382.5 142.5L397.5 127.5L412.5 127.5L427.5 127.5L442.5 127.5L457.5 127.5L472.5 127.5L487.5 127.5L502.5 127.5L517.5 127.5L532.5 127.5L547.5 127.5L562.5 127.5L577.5 127.5L592.5 127.5L607.5 127.5" stroke="rgba(253, 251, 118, 1)" stroke-width="2.5"></path><path d="M603.75 127.5 a3.75 3.75 0 1 0 7.5 0 a3.75 3.75 0 1 0 -7.5 0zM618.75 97.5 a3.75 3.75 0 1 0 7.5 0 a3.75 3.75 0 1 0 -7.5 0zM303.75 127.5 a3.75 3.75 0 1 0 7.5 0 a3.75 3.75 0 1 0 -7.5 0zM633.75 112.5 a3.75 3.75 0 1 0 7.5 0 a3.75 3.75 0 1 0 -7.5 0zM558.75 112.5 a3.75 3.75 0 1 0 7.5 0 a3.75 3.75 0 1 0 -7.5 0zM483.75 112.5 a3.75 3.75 0 1 0 7.5 0 a3.75 3.75 0 1 0 -7.5 0zM438.75 142.5 a3.75 3.75 0 1 0 7.5 0 a3.75 3.75 0 1 0 -7.5 0zM423.75 142.5 a3.75 3.75 0 1 0 7.5 0 a3.75 3.75 0 1 0 -7.5 0zM378.75 127.5 a3.75 3.75 0 1 0 7.5 0 a3.75 3.75 0 1 0 -7.5 0zM138.75 157.5 a3.75 3.75 0 1 0 7.5 0 a3.75 3.75 0 1 0 -7.5 0zM783.75 142.5 a3.75 3.75 0 1 0 7.5 0 a3.75 3.75 0 1 0 -7.5 0z" fill="rgba(253, 251, 118, 1)"></path><path d="M247.5 457.5L262.5 472.5L277.5 472.5L292.5 472.5L307.5 487.5M157.5 442.5L172.5 457.5L187.5 457.5L202.5 457.5L217.5 472.5M7.5 412.5L22.5 412.5M127.5 427.5L142.5 442.5M-7.5 397.5L7.5 412.5L22.5 427.5L37.5 427.5L52.5 427.5L67.5 427.5L82.5 427.5L97.5 427.5L112.5 427.5L127.5 427.5L142.5 427.5L157.5 442.5L172.5 442.5L187.5 442.5L202.5 442.5L217.5 442.5L232.5 442.5L247.5 457.5L262.5 457.5" stroke="rgba(253, 251, 118, 1)" stroke-width="2.5"></path><path d="M258.75 457.5 a3.75 3.75 0 1 0 7.5 0 a3.75 3.75 0 1 0 -7.5 0zM303.75 487.5 a3.75 3.75 0 1 0 7.5 0 a3.75 3.75 0 1 0 -7.5 0zM213.75 472.5 a3.75 3.75 0 1 0 7.5 0 a3.75 3.75 0 1 0 -7.5 0zM18.75 412.5 a3.75 3.75 0 1 0 7.5 0 a3.75 3.75 0 1 0 -7.5 0zM138.75 442.5 a3.75 3.75 0 1 0 7.5 0 a3.75 3.75 0 1 0 -7.5 0z" fill="rgba(253, 251, 118, 1)"></path><path d="M-7.5 157.5L7.5 157.5L22.5 157.5L37.5 157.5L52.5 157.5L67.5 142.5L82.5 142.5L97.5 142.5L112.5 127.5L127.5 127.5L142.5 127.5L157.5 127.5" stroke="rgba(253, 251, 118, 1)" stroke-width="2.5"></path><path d="M153.75 127.5 a3.75 3.75 0 1 0 7.5 0 a3.75 3.75 0 1 0 -7.5 0z" fill="rgba(253, 251, 118, 1)"></path><path d="M22.5 442.5L37.5 457.5L52.5 457.5M67.5 442.5L82.5 457.5L97.5 457.5M-7.5 412.5L7.5 427.5L22.5 442.5L37.5 442.5L52.5 442.5L67.5 442.5L82.5 442.5L97.5 442.5L112.5 442.5" stroke="rgba(253, 251, 118, 1)" stroke-width="2.5"></path><path d="M108.75 442.5 a3.75 3.75 0 1 0 7.5 0 a3.75 3.75 0 1 0 -7.5 0zM48.75 457.5 a3.75 3.75 0 1 0 7.5 0 a3.75 3.75 0 1 0 -7.5 0zM93.75 457.5 a3.75 3.75 0 1 0 7.5 0 a3.75 3.75 0 1 0 -7.5 0z" fill="rgba(253, 251, 118, 1)"></path><path d="M22.5 142.5L37.5 127.5L52.5 127.5L67.5 112.5L82.5 112.5L97.5 112.5M142.5 112.5L157.5 97.5M172.5 127.5L187.5 112.5L202.5 112.5L217.5 112.5L232.5 112.5M-7.5 142.5L7.5 142.5L22.5 142.5L37.5 142.5L52.5 142.5L67.5 127.5L82.5 127.5L97.5 127.5L112.5 112.5L127.5 112.5L142.5 112.5L157.5 112.5L172.5 127.5L187.5 127.5L202.5 127.5" stroke="rgba(253, 251, 118, 1)" stroke-width="2.5"></path><path d="M198.75 127.5 a3.75 3.75 0 1 0 7.5 0 a3.75 3.75 0 1 0 -7.5 0zM93.75 112.5 a3.75 3.75 0 1 0 7.5 0 a3.75 3.75 0 1 0 -7.5 0zM153.75 97.5 a3.75 3.75 0 1 0 7.5 0 a3.75 3.75 0 1 0 -7.5 0zM228.75 112.5 a3.75 3.75 0 1 0 7.5 0 a3.75 3.75 0 1 0 -7.5 0z" fill="rgba(253, 251, 118, 1)"></path></g></g><defs><mask id="SvgjsMask1789"><rect width="1440" height="560" fill="#ffffff"></rect></mask><linearGradient x1="15.28%" y1="-39.29%" x2="84.72%" y2="139.29%" gradientUnits="userSpaceOnUse" id="SvgjsLinearGradient1790"><stop stop-color="rgba(73, 41, 126, 1)" offset="0.25"></stop><stop stop-color="rgba(225, 0, 134, 1)" offset="0.7"></stop></linearGradient><mask id="SvgjsMask1791"><rect width="1440" height="560" fill="white"></rect><path d="M20.62 277.5 a1.88 1.88 0 1 0 3.76 0 a1.88 1.88 0 1 0 -3.76 0zM50.62 292.5 a1.88 1.88 0 1 0 3.76 0 a1.88 1.88 0 1 0 -3.76 0z" fill="black"></path><path d="M125.62 322.5 a1.88 1.88 0 1 0 3.76 0 a1.88 1.88 0 1 0 -3.76 0zM95.62 307.5 a1.88 1.88 0 1 0 3.76 0 a1.88 1.88 0 1 0 -3.76 0zM95.62 292.5 a1.88 1.88 0 1 0 3.76 0 a1.88 1.88 0 1 0 -3.76 0zM50.62 307.5 a1.88 1.88 0 1 0 3.76 0 a1.88 1.88 0 1 0 -3.76 0z" fill="black"></path><path d="M5.62 262.5 a1.88 1.88 0 1 0 3.76 0 a1.88 1.88 0 1 0 -3.76 0z" fill="black"></path><path d="M335.62 337.5 a1.88 1.88 0 1 0 3.76 0 a1.88 1.88 0 1 0 -3.76 0zM290.62 307.5 a1.88 1.88 0 1 0 3.76 0 a1.88 1.88 0 1 0 -3.76 0zM170.62 322.5 a1.88 1.88 0 1 0 3.76 0 a1.88 1.88 0 1 0 -3.76 0zM245.62 322.5 a1.88 1.88 0 1 0 3.76 0 a1.88 1.88 0 1 0 -3.76 0zM335.62 322.5 a1.88 1.88 0 1 0 3.76 0 a1.88 1.88 0 1 0 -3.76 0zM365.62 352.5 a1.88 1.88 0 1 0 3.76 0 a1.88 1.88 0 1 0 -3.76 0zM230.62 322.5 a1.88 1.88 0 1 0 3.76 0 a1.88 1.88 0 1 0 -3.76 0z" fill="black"></path><path d="M785.62 262.5 a1.88 1.88 0 1 0 3.76 0 a1.88 1.88 0 1 0 -3.76 0zM740.62 277.5 a1.88 1.88 0 1 0 3.76 0 a1.88 1.88 0 1 0 -3.76 0zM800.62 247.5 a1.88 1.88 0 1 0 3.76 0 a1.88 1.88 0 1 0 -3.76 0zM470.62 232.5 a1.88 1.88 0 1 0 3.76 0 a1.88 1.88 0 1 0 -3.76 0zM650.62 292.5 a1.88 1.88 0 1 0 3.76 0 a1.88 1.88 0 1 0 -3.76 0zM50.62 247.5 a1.88 1.88 0 1 0 3.76 0 a1.88 1.88 0 1 0 -3.76 0zM410.62 277.5 a1.88 1.88 0 1 0 3.76 0 a1.88 1.88 0 1 0 -3.76 0zM470.62 292.5 a1.88 1.88 0 1 0 3.76 0 a1.88 1.88 0 1 0 -3.76 0zM200.62 277.5 a1.88 1.88 0 1 0 3.76 0 a1.88 1.88 0 1 0 -3.76 0zM215.62 292.5 a1.88 1.88 0 1 0 3.76 0 a1.88 1.88 0 1 0 -3.76 0zM680.62 307.5 a1.88 1.88 0 1 0 3.76 0 a1.88 1.88 0 1 0 -3.76 0zM470.62 277.5 a1.88 1.88 0 1 0 3.76 0 a1.88 1.88 0 1 0 -3.76 0zM215.62 247.5 a1.88 1.88 0 1 0 3.76 0 a1.88 1.88 0 1 0 -3.76 0zM455.62 277.5 a1.88 1.88 0 1 0 3.76 0 a1.88 1.88 0 1 0 -3.76 0z" fill="black"></path><path d="M260.62 352.5 a1.88 1.88 0 1 0 3.76 0 a1.88 1.88 0 1 0 -3.76 0zM290.62 367.5 a1.88 1.88 0 1 0 3.76 0 a1.88 1.88 0 1 0 -3.76 0z" fill="black"></path><path d="M530.62 202.5 a1.88 1.88 0 1 0 3.76 0 a1.88 1.88 0 1 0 -3.76 0zM335.62 217.5 a1.88 1.88 0 1 0 3.76 0 a1.88 1.88 0 1 0 -3.76 0zM275.62 232.5 a1.88 1.88 0 1 0 3.76 0 a1.88 1.88 0 1 0 -3.76 0zM410.62 187.5 a1.88 1.88 0 1 0 3.76 0 a1.88 1.88 0 1 0 -3.76 0zM515.62 187.5 a1.88 1.88 0 1 0 3.76 0 a1.88 1.88 0 1 0 -3.76 0zM470.62 217.5 a1.88 1.88 0 1 0 3.76 0 a1.88 1.88 0 1 0 -3.76 0zM125.62 217.5 a1.88 1.88 0 1 0 3.76 0 a1.88 1.88 0 1 0 -3.76 0zM425.62 232.5 a1.88 1.88 0 1 0 3.76 0 a1.88 1.88 0 1 0 -3.76 0zM185.62 247.5 a1.88 1.88 0 1 0 3.76 0 a1.88 1.88 0 1 0 -3.76 0zM140.62 247.5 a1.88 1.88 0 1 0 3.76 0 a1.88 1.88 0 1 0 -3.76 0z" fill="black"></path><path d="M740.62 382.5 a1.88 1.88 0 1 0 3.76 0 a1.88 1.88 0 1 0 -3.76 0zM635.62 367.5 a1.88 1.88 0 1 0 3.76 0 a1.88 1.88 0 1 0 -3.76 0zM515.62 367.5 a1.88 1.88 0 1 0 3.76 0 a1.88 1.88 0 1 0 -3.76 0zM650.62 352.5 a1.88 1.88 0 1 0 3.76 0 a1.88 1.88 0 1 0 -3.76 0zM755.62 382.5 a1.88 1.88 0 1 0 3.76 0 a1.88 1.88 0 1 0 -3.76 0zM215.62 367.5 a1.88 1.88 0 1 0 3.76 0 a1.88 1.88 0 1 0 -3.76 0zM200.62 382.5 a1.88 1.88 0 1 0 3.76 0 a1.88 1.88 0 1 0 -3.76 0zM530.62 352.5 a1.88 1.88 0 1 0 3.76 0 a1.88 1.88 0 1 0 -3.76 0zM740.62 367.5 a1.88 1.88 0 1 0 3.76 0 a1.88 1.88 0 1 0 -3.76 0zM560.62 367.5 a1.88 1.88 0 1 0 3.76 0 a1.88 1.88 0 1 0 -3.76 0zM350.62 367.5 a1.88 1.88 0 1 0 3.76 0 a1.88 1.88 0 1 0 -3.76 0zM335.62 367.5 a1.88 1.88 0 1 0 3.76 0 a1.88 1.88 0 1 0 -3.76 0zM170.62 382.5 a1.88 1.88 0 1 0 3.76 0 a1.88 1.88 0 1 0 -3.76 0z" fill="black"></path><path d="M290.62 172.5 a1.88 1.88 0 1 0 3.76 0 a1.88 1.88 0 1 0 -3.76 0zM95.62 217.5 a1.88 1.88 0 1 0 3.76 0 a1.88 1.88 0 1 0 -3.76 0zM80.62 217.5 a1.88 1.88 0 1 0 3.76 0 a1.88 1.88 0 1 0 -3.76 0z" fill="black"></path><path d="M755.62 412.5 a1.88 1.88 0 1 0 3.76 0 a1.88 1.88 0 1 0 -3.76 0zM485.62 427.5 a1.88 1.88 0 1 0 3.76 0 a1.88 1.88 0 1 0 -3.76 0zM35.62 367.5 a1.88 1.88 0 1 0 3.76 0 a1.88 1.88 0 1 0 -3.76 0zM635.62 427.5 a1.88 1.88 0 1 0 3.76 0 a1.88 1.88 0 1 0 -3.76 0zM785.62 442.5 a1.88 1.88 0 1 0 3.76 0 a1.88 1.88 0 1 0 -3.76 0zM710.62 442.5 a1.88 1.88 0 1 0 3.76 0 a1.88 1.88 0 1 0 -3.76 0zM620.62 412.5 a1.88 1.88 0 1 0 3.76 0 a1.88 1.88 0 1 0 -3.76 0zM545.62 412.5 a1.88 1.88 0 1 0 3.76 0 a1.88 1.88 0 1 0 -3.76 0zM545.62 427.5 a1.88 1.88 0 1 0 3.76 0 a1.88 1.88 0 1 0 -3.76 0zM515.62 397.5 a1.88 1.88 0 1 0 3.76 0 a1.88 1.88 0 1 0 -3.76 0zM755.62 457.5 a1.88 1.88 0 1 0 3.76 0 a1.88 1.88 0 1 0 -3.76 0zM800.62 427.5 a1.88 1.88 0 1 0 3.76 0 a1.88 1.88 0 1 0 -3.76 0zM530.62 427.5 a1.88 1.88 0 1 0 3.76 0 a1.88 1.88 0 1 0 -3.76 0zM485.62 397.5 a1.88 1.88 0 1 0 3.76 0 a1.88 1.88 0 1 0 -3.76 0z" fill="black"></path><path d="M470.62 157.5 a1.88 1.88 0 1 0 3.76 0 a1.88 1.88 0 1 0 -3.76 0zM515.62 172.5 a1.88 1.88 0 1 0 3.76 0 a1.88 1.88 0 1 0 -3.76 0zM335.62 172.5 a1.88 1.88 0 1 0 3.76 0 a1.88 1.88 0 1 0 -3.76 0zM515.62 142.5 a1.88 1.88 0 1 0 3.76 0 a1.88 1.88 0 1 0 -3.76 0zM470.62 187.5 a1.88 1.88 0 1 0 3.76 0 a1.88 1.88 0 1 0 -3.76 0zM365.62 157.5 a1.88 1.88 0 1 0 3.76 0 a1.88 1.88 0 1 0 -3.76 0z" fill="black"></path><path d="M560.62 442.5 a1.88 1.88 0 1 0 3.76 0 a1.88 1.88 0 1 0 -3.76 0zM410.62 427.5 a1.88 1.88 0 1 0 3.76 0 a1.88 1.88 0 1 0 -3.76 0zM650.62 472.5 a1.88 1.88 0 1 0 3.76 0 a1.88 1.88 0 1 0 -3.76 0zM275.62 412.5 a1.88 1.88 0 1 0 3.76 0 a1.88 1.88 0 1 0 -3.76 0zM350.62 427.5 a1.88 1.88 0 1 0 3.76 0 a1.88 1.88 0 1 0 -3.76 0zM470.62 442.5 a1.88 1.88 0 1 0 3.76 0 a1.88 1.88 0 1 0 -3.76 0zM335.62 427.5 a1.88 1.88 0 1 0 3.76 0 a1.88 1.88 0 1 0 -3.76 0zM260.62 427.5 a1.88 1.88 0 1 0 3.76 0 a1.88 1.88 0 1 0 -3.76 0zM455.62 472.5 a1.88 1.88 0 1 0 3.76 0 a1.88 1.88 0 1 0 -3.76 0zM545.62 487.5 a1.88 1.88 0 1 0 3.76 0 a1.88 1.88 0 1 0 -3.76 0z" fill="black"></path><path d="M185.62 172.5 a1.88 1.88 0 1 0 3.76 0 a1.88 1.88 0 1 0 -3.76 0zM200.62 157.5 a1.88 1.88 0 1 0 3.76 0 a1.88 1.88 0 1 0 -3.76 0zM170.62 157.5 a1.88 1.88 0 1 0 3.76 0 a1.88 1.88 0 1 0 -3.76 0zM155.62 157.5 a1.88 1.88 0 1 0 3.76 0 a1.88 1.88 0 1 0 -3.76 0z" fill="black"></path><path d="M485.62 487.5 a1.88 1.88 0 1 0 3.76 0 a1.88 1.88 0 1 0 -3.76 0zM455.62 502.5 a1.88 1.88 0 1 0 3.76 0 a1.88 1.88 0 1 0 -3.76 0zM515.62 502.5 a1.88 1.88 0 1 0 3.76 0 a1.88 1.88 0 1 0 -3.76 0zM350.62 487.5 a1.88 1.88 0 1 0 3.76 0 a1.88 1.88 0 1 0 -3.76 0zM395.62 457.5 a1.88 1.88 0 1 0 3.76 0 a1.88 1.88 0 1 0 -3.76 0zM380.62 457.5 a1.88 1.88 0 1 0 3.76 0 a1.88 1.88 0 1 0 -3.76 0zM440.62 472.5 a1.88 1.88 0 1 0 3.76 0 a1.88 1.88 0 1 0 -3.76 0zM245.62 427.5 a1.88 1.88 0 1 0 3.76 0 a1.88 1.88 0 1 0 -3.76 0z" fill="black"></path><path d="M605.62 127.5 a1.88 1.88 0 1 0 3.76 0 a1.88 1.88 0 1 0 -3.76 0zM620.62 97.5 a1.88 1.88 0 1 0 3.76 0 a1.88 1.88 0 1 0 -3.76 0zM305.62 127.5 a1.88 1.88 0 1 0 3.76 0 a1.88 1.88 0 1 0 -3.76 0zM635.62 112.5 a1.88 1.88 0 1 0 3.76 0 a1.88 1.88 0 1 0 -3.76 0zM560.62 112.5 a1.88 1.88 0 1 0 3.76 0 a1.88 1.88 0 1 0 -3.76 0zM485.62 112.5 a1.88 1.88 0 1 0 3.76 0 a1.88 1.88 0 1 0 -3.76 0zM440.62 142.5 a1.88 1.88 0 1 0 3.76 0 a1.88 1.88 0 1 0 -3.76 0zM425.62 142.5 a1.88 1.88 0 1 0 3.76 0 a1.88 1.88 0 1 0 -3.76 0zM380.62 127.5 a1.88 1.88 0 1 0 3.76 0 a1.88 1.88 0 1 0 -3.76 0zM140.62 157.5 a1.88 1.88 0 1 0 3.76 0 a1.88 1.88 0 1 0 -3.76 0zM785.62 142.5 a1.88 1.88 0 1 0 3.76 0 a1.88 1.88 0 1 0 -3.76 0z" fill="black"></path><path d="M260.62 457.5 a1.88 1.88 0 1 0 3.76 0 a1.88 1.88 0 1 0 -3.76 0zM305.62 487.5 a1.88 1.88 0 1 0 3.76 0 a1.88 1.88 0 1 0 -3.76 0zM215.62 472.5 a1.88 1.88 0 1 0 3.76 0 a1.88 1.88 0 1 0 -3.76 0zM20.62 412.5 a1.88 1.88 0 1 0 3.76 0 a1.88 1.88 0 1 0 -3.76 0zM140.62 442.5 a1.88 1.88 0 1 0 3.76 0 a1.88 1.88 0 1 0 -3.76 0z" fill="black"></path><path d="M155.62 127.5 a1.88 1.88 0 1 0 3.76 0 a1.88 1.88 0 1 0 -3.76 0z" fill="black"></path><path d="M110.62 442.5 a1.88 1.88 0 1 0 3.76 0 a1.88 1.88 0 1 0 -3.76 0zM50.62 457.5 a1.88 1.88 0 1 0 3.76 0 a1.88 1.88 0 1 0 -3.76 0zM95.62 457.5 a1.88 1.88 0 1 0 3.76 0 a1.88 1.88 0 1 0 -3.76 0z" fill="black"></path><path d="M200.62 127.5 a1.88 1.88 0 1 0 3.76 0 a1.88 1.88 0 1 0 -3.76 0zM95.62 112.5 a1.88 1.88 0 1 0 3.76 0 a1.88 1.88 0 1 0 -3.76 0zM155.62 97.5 a1.88 1.88 0 1 0 3.76 0 a1.88 1.88 0 1 0 -3.76 0zM230.62 112.5 a1.88 1.88 0 1 0 3.76 0 a1.88 1.88 0 1 0 -3.76 0z" fill="black"></path></mask></defs></svg>