<svg xmlns="http://www.w3.org/2000/svg" version="1.1" xmlns:xlink="http://www.w3.org/1999/xlink" xmlns:svgjs="http://svgjs.com/svgjs" width="1440" height="560" preserveAspectRatio="none" viewBox="0 0 1440 560"><g mask="url(&quot;#SvgjsMask2880&quot;)" fill="none"><rect width="1440" height="560" x="0" y="0" fill="url(#SvgjsLinearGradient2881)"></rect><g mask="url(&quot;#SvgjsMask2882&quot;)"><path d="M621 63L351 63L315 99L315 135" stroke-width="3" stroke="rgba(40, 153, 66, 1)"></path><path d="M616.5 63 a4.5 4.5 0 1 0 9 0 a4.5 4.5 0 1 0 -9 0zM310.5 135 a4.5 4.5 0 1 0 9 0 a4.5 4.5 0 1 0 -9 0z" fill="rgba(40, 153, 66, 1)"></path><path d="M1161 423L891 153L819 153" stroke-width="3" stroke="rgba(40, 153, 66, 1)"></path><path d="M1156.5 423 a4.5 4.5 0 1 0 9 0 a4.5 4.5 0 1 0 -9 0zM814.5 153 a4.5 4.5 0 1 0 9 0 a4.5 4.5 0 1 0 -9 0z" fill="rgba(40, 153, 66, 1)"></path><path d="M1431 45L1359 45L1341 27L1287 27L1089 225" stroke-width="3" stroke="rgba(40, 153, 66, 1)"></path><path d="M1426.5 45 a4.5 4.5 0 1 0 9 0 a4.5 4.5 0 1 0 -9 0zM1084.5 225 a4.5 4.5 0 1 0 9 0 a4.5 4.5 0 1 0 -9 0z" fill="rgba(40, 153, 66, 1)"></path><path d="M207 207L189 189L189 135L315 9L459 9" stroke-width="3" stroke="rgba(40, 153, 66, 1)"></path><path d="M202.5 207 a4.5 4.5 0 1 0 9 0 a4.5 4.5 0 1 0 -9 0zM454.5 9 a4.5 4.5 0 1 0 9 0 a4.5 4.5 0 1 0 -9 0z" fill="rgba(40, 153, 66, 1)"></path><path d="M117 297L117 117L207 27L207 9" stroke-width="3" stroke="rgba(40, 153, 66, 1)"></path><path d="M112.5 297 a4.5 4.5 0 1 0 9 0 a4.5 4.5 0 1 0 -9 0zM202.5 9 a4.5 4.5 0 1 0 9 0 a4.5 4.5 0 1 0 -9 0z" fill="rgba(40, 153, 66, 1)"></path><path d="M855 243L693 243L513 423" stroke-width="3" stroke="rgba(40, 153, 66, 1)"></path><path d="M850.5 243 a4.5 4.5 0 1 0 9 0 a4.5 4.5 0 1 0 -9 0zM508.5 423 a4.5 4.5 0 1 0 9 0 a4.5 4.5 0 1 0 -9 0z" fill="rgba(40, 153, 66, 1)"></path><path d="M387 405L315 477L315 567" stroke-width="3" stroke="rgba(40, 153, 66, 1)"></path><path d="M382.5 405 a4.5 4.5 0 1 0 9 0 a4.5 4.5 0 1 0 -9 0zM310.5 567 a4.5 4.5 0 1 0 9 0 a4.5 4.5 0 1 0 -9 0z" fill="rgba(40, 153, 66, 1)"></path><path d="M729 549L657 477L639 477L567 405L567 387L693 261L729 261" stroke-width="3" stroke="rgba(40, 153, 66, 1)"></path><path d="M724.5 549 a4.5 4.5 0 1 0 9 0 a4.5 4.5 0 1 0 -9 0zM724.5 261 a4.5 4.5 0 1 0 9 0 a4.5 4.5 0 1 0 -9 0z" fill="rgba(40, 153, 66, 1)"></path><path d="M1053 45L1107 45L1179 117" stroke-width="3" stroke="rgba(40, 153, 66, 1)"></path><path d="M1048.5 45 a4.5 4.5 0 1 0 9 0 a4.5 4.5 0 1 0 -9 0zM1174.5 117 a4.5 4.5 0 1 0 9 0 a4.5 4.5 0 1 0 -9 0z" fill="rgba(40, 153, 66, 1)"></path><path d="M585 531L693 531L729 567L927 567" stroke-width="3" stroke="rgba(40, 153, 66, 1)"></path><path d="M580.5 531 a4.5 4.5 0 1 0 9 0 a4.5 4.5 0 1 0 -9 0zM922.5 567 a4.5 4.5 0 1 0 9 0 a4.5 4.5 0 1 0 -9 0z" fill="rgba(40, 153, 66, 1)"></path><path d="M657 369L639 351L639 333L675 297L765 297L783 315L873 315L945 387" stroke-width="3" stroke="rgba(40, 153, 66, 1)"></path><path d="M652.5 369 a4.5 4.5 0 1 0 9 0 a4.5 4.5 0 1 0 -9 0zM940.5 387 a4.5 4.5 0 1 0 9 0 a4.5 4.5 0 1 0 -9 0z" fill="rgba(40, 153, 66, 1)"></path><path d="M1017 477L1107 567L1359 567" stroke-width="3" stroke="rgba(40, 153, 66, 1)"></path><path d="M1012.5 477 a4.5 4.5 0 1 0 9 0 a4.5 4.5 0 1 0 -9 0zM1354.5 567 a4.5 4.5 0 1 0 9 0 a4.5 4.5 0 1 0 -9 0z" fill="rgba(40, 153, 66, 1)"></path><path d="M1125 117L1125 81L1107 63L999 63L909 153" stroke-width="3" stroke="rgba(40, 153, 66, 1)"></path><path d="M1120.5 117 a4.5 4.5 0 1 0 9 0 a4.5 4.5 0 1 0 -9 0zM904.5 153 a4.5 4.5 0 1 0 9 0 a4.5 4.5 0 1 0 -9 0z" fill="rgba(40, 153, 66, 1)"></path><path d="M1251 549L1089 387L999 387L981 369L981 297" stroke-width="3" stroke="rgba(40, 153, 66, 1)"></path><path d="M1246.5 549 a4.5 4.5 0 1 0 9 0 a4.5 4.5 0 1 0 -9 0zM976.5 297 a4.5 4.5 0 1 0 9 0 a4.5 4.5 0 1 0 -9 0z" fill="rgba(40, 153, 66, 1)"></path><path d="M261 207L153 315L153 351L117 387L117 405L261 549" stroke-width="3" stroke="rgba(40, 153, 66, 1)"></path><path d="M256.5 207 a4.5 4.5 0 1 0 9 0 a4.5 4.5 0 1 0 -9 0zM256.5 549 a4.5 4.5 0 1 0 9 0 a4.5 4.5 0 1 0 -9 0z" fill="rgba(40, 153, 66, 1)"></path><path d="M1251 171L1089 333" stroke-width="3" stroke="rgba(40, 153, 66, 1)"></path><path d="M1246.5 171 a4.5 4.5 0 1 0 9 0 a4.5 4.5 0 1 0 -9 0zM1084.5 333 a4.5 4.5 0 1 0 9 0 a4.5 4.5 0 1 0 -9 0z" fill="rgba(40, 153, 66, 1)"></path><path d="M81 207L9 207" stroke-width="3" stroke="rgba(40, 153, 66, 1)"></path><path d="M76.5 207 a4.5 4.5 0 1 0 9 0 a4.5 4.5 0 1 0 -9 0zM4.5 207 a4.5 4.5 0 1 0 9 0 a4.5 4.5 0 1 0 -9 0z" fill="rgba(40, 153, 66, 1)"></path><path d="M765 387L585 387" stroke-width="3" stroke="rgba(40, 153, 66, 1)"></path><path d="M760.5 387 a4.5 4.5 0 1 0 9 0 a4.5 4.5 0 1 0 -9 0zM580.5 387 a4.5 4.5 0 1 0 9 0 a4.5 4.5 0 1 0 -9 0z" fill="rgba(40, 153, 66, 1)"></path><path d="M891 405L909 387L909 369L873 333L657 333" stroke-width="3" stroke="rgba(40, 153, 66, 1)"></path><path d="M886.5 405 a4.5 4.5 0 1 0 9 0 a4.5 4.5 0 1 0 -9 0zM652.5 333 a4.5 4.5 0 1 0 9 0 a4.5 4.5 0 1 0 -9 0z" fill="rgba(40, 153, 66, 1)"></path><path d="M153 207L153 99L189 63L243 63L297 9" stroke-width="3" stroke="rgba(40, 153, 66, 1)"></path><path d="M148.5 207 a4.5 4.5 0 1 0 9 0 a4.5 4.5 0 1 0 -9 0zM292.5 9 a4.5 4.5 0 1 0 9 0 a4.5 4.5 0 1 0 -9 0z" fill="rgba(40, 153, 66, 1)"></path><path d="M423 171L351 99L333 99" stroke-width="3" stroke="rgba(40, 153, 66, 1)"></path><path d="M418.5 171 a4.5 4.5 0 1 0 9 0 a4.5 4.5 0 1 0 -9 0zM328.5 99 a4.5 4.5 0 1 0 9 0 a4.5 4.5 0 1 0 -9 0z" fill="rgba(40, 153, 66, 1)"></path><path d="M117 99L27 9L9 9" stroke-width="3" stroke="rgba(40, 153, 66, 1)"></path><path d="M112.5 99 a4.5 4.5 0 1 0 9 0 a4.5 4.5 0 1 0 -9 0zM4.5 9 a4.5 4.5 0 1 0 9 0 a4.5 4.5 0 1 0 -9 0z" fill="rgba(40, 153, 66, 1)"></path><path d="M495 315L531 315L549 333L549 369L351 567L333 567" stroke-width="3" stroke="rgba(40, 153, 66, 1)"></path><path d="M490.5 315 a4.5 4.5 0 1 0 9 0 a4.5 4.5 0 1 0 -9 0zM328.5 567 a4.5 4.5 0 1 0 9 0 a4.5 4.5 0 1 0 -9 0z" fill="rgba(40, 153, 66, 1)"></path><path d="M405 135L459 81L567 81L603 117L603 261" stroke-width="3" stroke="rgba(40, 153, 66, 1)"></path><path d="M400.5 135 a4.5 4.5 0 1 0 9 0 a4.5 4.5 0 1 0 -9 0zM598.5 261 a4.5 4.5 0 1 0 9 0 a4.5 4.5 0 1 0 -9 0z" fill="rgba(40, 153, 66, 1)"></path><path d="M1377 63L1431 117L1431 243L1413 261L1413 351L1359 405" stroke-width="3" stroke="rgba(40, 153, 66, 1)"></path><path d="M1372.5 63 a4.5 4.5 0 1 0 9 0 a4.5 4.5 0 1 0 -9 0zM1354.5 405 a4.5 4.5 0 1 0 9 0 a4.5 4.5 0 1 0 -9 0z" fill="rgba(40, 153, 66, 1)"></path><path d="M963 567L873 477L873 351" stroke-width="3" stroke="rgba(40, 153, 66, 1)"></path><path d="M958.5 567 a4.5 4.5 0 1 0 9 0 a4.5 4.5 0 1 0 -9 0zM868.5 351 a4.5 4.5 0 1 0 9 0 a4.5 4.5 0 1 0 -9 0z" fill="rgba(40, 153, 66, 1)"></path><path d="M513 243L423 153L423 135L459 99L567 99L585 117L585 189" stroke-width="3" stroke="rgba(40, 153, 66, 1)"></path><path d="M508.5 243 a4.5 4.5 0 1 0 9 0 a4.5 4.5 0 1 0 -9 0zM580.5 189 a4.5 4.5 0 1 0 9 0 a4.5 4.5 0 1 0 -9 0z" fill="rgba(40, 153, 66, 1)"></path><path d="M711 423L675 459L639 459L585 405" stroke-width="3" stroke="rgba(40, 153, 66, 1)"></path><path d="M706.5 423 a4.5 4.5 0 1 0 9 0 a4.5 4.5 0 1 0 -9 0zM580.5 405 a4.5 4.5 0 1 0 9 0 a4.5 4.5 0 1 0 -9 0z" fill="rgba(40, 153, 66, 1)"></path><path d="M693 495L747 549L927 549" stroke-width="3" stroke="rgba(40, 153, 66, 1)"></path><path d="M688.5 495 a4.5 4.5 0 1 0 9 0 a4.5 4.5 0 1 0 -9 0zM922.5 549 a4.5 4.5 0 1 0 9 0 a4.5 4.5 0 1 0 -9 0z" fill="rgba(40, 153, 66, 1)"></path><path d="M1269 171L1107 333L1107 351L1161 405L1269 405" stroke-width="3" stroke="rgba(40, 153, 66, 1)"></path><path d="M1264.5 171 a4.5 4.5 0 1 0 9 0 a4.5 4.5 0 1 0 -9 0zM1264.5 405 a4.5 4.5 0 1 0 9 0 a4.5 4.5 0 1 0 -9 0z" fill="rgba(40, 153, 66, 1)"></path><path d="M747 495L747 405" stroke-width="3" stroke="rgba(40, 153, 66, 1)"></path><path d="M742.5 495 a4.5 4.5 0 1 0 9 0 a4.5 4.5 0 1 0 -9 0zM742.5 405 a4.5 4.5 0 1 0 9 0 a4.5 4.5 0 1 0 -9 0z" fill="rgba(40, 153, 66, 1)"></path><path d="M1071 495L1125 549L1233 549" stroke-width="3" stroke="rgba(40, 153, 66, 1)"></path><path d="M1066.5 495 a4.5 4.5 0 1 0 9 0 a4.5 4.5 0 1 0 -9 0zM1228.5 549 a4.5 4.5 0 1 0 9 0 a4.5 4.5 0 1 0 -9 0z" fill="rgba(40, 153, 66, 1)"></path><path d="M945 9L819 135L621 135" stroke-width="3" stroke="rgba(40, 153, 66, 1)"></path><path d="M940.5 9 a4.5 4.5 0 1 0 9 0 a4.5 4.5 0 1 0 -9 0zM616.5 135 a4.5 4.5 0 1 0 9 0 a4.5 4.5 0 1 0 -9 0z" fill="rgba(40, 153, 66, 1)"></path><path d="M1071 9L1035 45L927 45L837 135" stroke-width="3" stroke="rgba(40, 153, 66, 1)"></path><path d="M1066.5 9 a4.5 4.5 0 1 0 9 0 a4.5 4.5 0 1 0 -9 0zM832.5 135 a4.5 4.5 0 1 0 9 0 a4.5 4.5 0 1 0 -9 0z" fill="rgba(40, 153, 66, 1)"></path><path d="M675 27L657 9L477 9L441 45L333 45" stroke-width="3" stroke="rgba(40, 153, 66, 1)"></path><path d="M670.5 27 a4.5 4.5 0 1 0 9 0 a4.5 4.5 0 1 0 -9 0zM328.5 45 a4.5 4.5 0 1 0 9 0 a4.5 4.5 0 1 0 -9 0z" fill="rgba(40, 153, 66, 1)"></path><path d="M297 549L297 207" stroke-width="3" stroke="rgba(40, 153, 66, 1)"></path><path d="M292.5 549 a4.5 4.5 0 1 0 9 0 a4.5 4.5 0 1 0 -9 0zM292.5 207 a4.5 4.5 0 1 0 9 0 a4.5 4.5 0 1 0 -9 0z" fill="rgba(40, 153, 66, 1)"></path><path d="M279 405L279 243L261 225" stroke-width="3" stroke="rgba(40, 153, 66, 1)"></path><path d="M274.5 405 a4.5 4.5 0 1 0 9 0 a4.5 4.5 0 1 0 -9 0zM256.5 225 a4.5 4.5 0 1 0 9 0 a4.5 4.5 0 1 0 -9 0z" fill="rgba(40, 153, 66, 1)"></path><path d="M567 423L567 441L477 531L405 531L369 567" stroke-width="3" stroke="rgba(40, 153, 66, 1)"></path><path d="M562.5 423 a4.5 4.5 0 1 0 9 0 a4.5 4.5 0 1 0 -9 0zM364.5 567 a4.5 4.5 0 1 0 9 0 a4.5 4.5 0 1 0 -9 0z" fill="rgba(40, 153, 66, 1)"></path><path d="M45 351L261 567L297 567" stroke-width="3" stroke="rgba(40, 153, 66, 1)"></path><path d="M40.5 351 a4.5 4.5 0 1 0 9 0 a4.5 4.5 0 1 0 -9 0zM292.5 567 a4.5 4.5 0 1 0 9 0 a4.5 4.5 0 1 0 -9 0z" fill="rgba(40, 153, 66, 1)"></path><path d="M963 243L927 243L855 171L747 171L729 153L675 153L621 207" stroke-width="3" stroke="rgba(40, 153, 66, 1)"></path><path d="M958.5 243 a4.5 4.5 0 1 0 9 0 a4.5 4.5 0 1 0 -9 0zM616.5 207 a4.5 4.5 0 1 0 9 0 a4.5 4.5 0 1 0 -9 0z" fill="rgba(40, 153, 66, 1)"></path><path d="M909 333L963 333" stroke-width="3" stroke="rgba(40, 153, 66, 1)"></path><path d="M904.5 333 a4.5 4.5 0 1 0 9 0 a4.5 4.5 0 1 0 -9 0zM958.5 333 a4.5 4.5 0 1 0 9 0 a4.5 4.5 0 1 0 -9 0z" fill="rgba(40, 153, 66, 1)"></path><path d="M459 441L369 441L333 477L333 549" stroke-width="3" stroke="rgba(40, 153, 66, 1)"></path><path d="M454.5 441 a4.5 4.5 0 1 0 9 0 a4.5 4.5 0 1 0 -9 0zM328.5 549 a4.5 4.5 0 1 0 9 0 a4.5 4.5 0 1 0 -9 0z" fill="rgba(40, 153, 66, 1)"></path><path d="M945 279L945 315" stroke-width="3" stroke="rgba(40, 153, 66, 1)"></path><path d="M940.5 279 a4.5 4.5 0 1 0 9 0 a4.5 4.5 0 1 0 -9 0zM940.5 315 a4.5 4.5 0 1 0 9 0 a4.5 4.5 0 1 0 -9 0z" fill="rgba(40, 153, 66, 1)"></path><path d="M1215 297L1395 297" stroke-width="3" stroke="rgba(40, 153, 66, 1)"></path><path d="M1210.5 297 a4.5 4.5 0 1 0 9 0 a4.5 4.5 0 1 0 -9 0zM1390.5 297 a4.5 4.5 0 1 0 9 0 a4.5 4.5 0 1 0 -9 0z" fill="rgba(40, 153, 66, 1)"></path><path d="M513 351L369 351L315 405L315 459" stroke-width="3" stroke="rgba(40, 153, 66, 1)"></path><path d="M508.5 351 a4.5 4.5 0 1 0 9 0 a4.5 4.5 0 1 0 -9 0zM310.5 459 a4.5 4.5 0 1 0 9 0 a4.5 4.5 0 1 0 -9 0z" fill="rgba(40, 153, 66, 1)"></path><path d="M513 135L567 135" stroke-width="3" stroke="rgba(40, 153, 66, 1)"></path><path d="M508.5 135 a4.5 4.5 0 1 0 9 0 a4.5 4.5 0 1 0 -9 0zM562.5 135 a4.5 4.5 0 1 0 9 0 a4.5 4.5 0 1 0 -9 0z" fill="rgba(40, 153, 66, 1)"></path><path d="M477 567L459 549L405 549L387 567" stroke-width="3" stroke="rgba(40, 153, 66, 1)"></path><path d="M472.5 567 a4.5 4.5 0 1 0 9 0 a4.5 4.5 0 1 0 -9 0zM382.5 567 a4.5 4.5 0 1 0 9 0 a4.5 4.5 0 1 0 -9 0z" fill="rgba(40, 153, 66, 1)"></path><path d="M945 441L981 405L1089 405L1215 531" stroke-width="3" stroke="rgba(40, 153, 66, 1)"></path><path d="M940.5 441 a4.5 4.5 0 1 0 9 0 a4.5 4.5 0 1 0 -9 0zM1210.5 531 a4.5 4.5 0 1 0 9 0 a4.5 4.5 0 1 0 -9 0z" fill="rgba(40, 153, 66, 1)"></path><path d="M153 405L153 423L279 549" stroke-width="3" stroke="rgba(40, 153, 66, 1)"></path><path d="M148.5 405 a4.5 4.5 0 1 0 9 0 a4.5 4.5 0 1 0 -9 0zM274.5 549 a4.5 4.5 0 1 0 9 0 a4.5 4.5 0 1 0 -9 0z" fill="rgba(40, 153, 66, 1)"></path><path d="M1287 423L1287 549" stroke-width="3" stroke="rgba(40, 153, 66, 1)"></path><path d="M1282.5 423 a4.5 4.5 0 1 0 9 0 a4.5 4.5 0 1 0 -9 0zM1282.5 549 a4.5 4.5 0 1 0 9 0 a4.5 4.5 0 1 0 -9 0z" fill="rgba(40, 153, 66, 1)"></path><path d="M243 405L261 387L261 243" stroke-width="3" stroke="rgba(40, 153, 66, 1)"></path><path d="M238.5 405 a4.5 4.5 0 1 0 9 0 a4.5 4.5 0 1 0 -9 0zM256.5 243 a4.5 4.5 0 1 0 9 0 a4.5 4.5 0 1 0 -9 0z" fill="rgba(40, 153, 66, 1)"></path><path d="M1287 81L1323 45L1341 45L1413 117L1413 243L1395 261L1395 279" stroke-width="3" stroke="rgba(40, 153, 66, 1)"></path><path d="M1282.5 81 a4.5 4.5 0 1 0 9 0 a4.5 4.5 0 1 0 -9 0zM1390.5 279 a4.5 4.5 0 1 0 9 0 a4.5 4.5 0 1 0 -9 0z" fill="rgba(40, 153, 66, 1)"></path><path d="M279 441L279 531" stroke-width="3" stroke="rgba(40, 153, 66, 1)"></path><path d="M274.5 441 a4.5 4.5 0 1 0 9 0 a4.5 4.5 0 1 0 -9 0zM274.5 531 a4.5 4.5 0 1 0 9 0 a4.5 4.5 0 1 0 -9 0z" fill="rgba(40, 153, 66, 1)"></path><path d="M837 405L855 423L855 531" stroke-width="3" stroke="rgba(40, 153, 66, 1)"></path><path d="M832.5 405 a4.5 4.5 0 1 0 9 0 a4.5 4.5 0 1 0 -9 0zM850.5 531 a4.5 4.5 0 1 0 9 0 a4.5 4.5 0 1 0 -9 0z" fill="rgba(40, 153, 66, 1)"></path><path d="M1089 99L1143 153" stroke-width="3" stroke="rgba(40, 153, 66, 1)"></path><path d="M1084.5 99 a4.5 4.5 0 1 0 9 0 a4.5 4.5 0 1 0 -9 0zM1138.5 153 a4.5 4.5 0 1 0 9 0 a4.5 4.5 0 1 0 -9 0z" fill="rgba(40, 153, 66, 1)"></path><path d="M1341 513L1305 477L1305 333L1287 315L1143 315" stroke-width="3" stroke="rgba(40, 153, 66, 1)"></path><path d="M1336.5 513 a4.5 4.5 0 1 0 9 0 a4.5 4.5 0 1 0 -9 0zM1138.5 315 a4.5 4.5 0 1 0 9 0 a4.5 4.5 0 1 0 -9 0z" fill="rgba(40, 153, 66, 1)"></path><path d="M459 477L495 441L549 441" stroke-width="3" stroke="rgba(40, 153, 66, 1)"></path><path d="M454.5 477 a4.5 4.5 0 1 0 9 0 a4.5 4.5 0 1 0 -9 0zM544.5 441 a4.5 4.5 0 1 0 9 0 a4.5 4.5 0 1 0 -9 0z" fill="rgba(40, 153, 66, 1)"></path><path d="M1125 9L1161 9L1197 45L1251 45L1287 9L1431 9" stroke-width="3" stroke="rgba(40, 153, 66, 1)"></path><path d="M1120.5 9 a4.5 4.5 0 1 0 9 0 a4.5 4.5 0 1 0 -9 0zM1426.5 9 a4.5 4.5 0 1 0 9 0 a4.5 4.5 0 1 0 -9 0z" fill="rgba(40, 153, 66, 1)"></path><path d="M459 153L459 171L603 315" stroke-width="3" stroke="rgba(40, 153, 66, 1)"></path><path d="M454.5 153 a4.5 4.5 0 1 0 9 0 a4.5 4.5 0 1 0 -9 0zM598.5 315 a4.5 4.5 0 1 0 9 0 a4.5 4.5 0 1 0 -9 0z" fill="rgba(40, 153, 66, 1)"></path><path d="M9 477L117 477L207 567L243 567" stroke-width="3" stroke="rgba(40, 153, 66, 1)"></path><path d="M4.5 477 a4.5 4.5 0 1 0 9 0 a4.5 4.5 0 1 0 -9 0zM238.5 567 a4.5 4.5 0 1 0 9 0 a4.5 4.5 0 1 0 -9 0z" fill="rgba(40, 153, 66, 1)"></path><path d="M81 225L99 207L99 99L27 27L9 27" stroke-width="3" stroke="rgba(40, 153, 66, 1)"></path><path d="M76.5 225 a4.5 4.5 0 1 0 9 0 a4.5 4.5 0 1 0 -9 0zM4.5 27 a4.5 4.5 0 1 0 9 0 a4.5 4.5 0 1 0 -9 0z" fill="rgba(40, 153, 66, 1)"></path><path d="M1251 261L1377 261L1395 243L1395 117L1341 63L1323 63" stroke-width="3" stroke="rgba(40, 153, 66, 1)"></path><path d="M1246.5 261 a4.5 4.5 0 1 0 9 0 a4.5 4.5 0 1 0 -9 0zM1318.5 63 a4.5 4.5 0 1 0 9 0 a4.5 4.5 0 1 0 -9 0z" fill="rgba(40, 153, 66, 1)"></path><path d="M999 549L963 549L891 477L891 423L927 387" stroke-width="3" stroke="rgba(40, 153, 66, 1)"></path><path d="M994.5 549 a4.5 4.5 0 1 0 9 0 a4.5 4.5 0 1 0 -9 0zM922.5 387 a4.5 4.5 0 1 0 9 0 a4.5 4.5 0 1 0 -9 0z" fill="rgba(40, 153, 66, 1)"></path><path d="M1233 135L1269 99L1269 63L1287 45L1305 45" stroke-width="3" stroke="rgba(40, 153, 66, 1)"></path><path d="M1228.5 135 a4.5 4.5 0 1 0 9 0 a4.5 4.5 0 1 0 -9 0zM1300.5 45 a4.5 4.5 0 1 0 9 0 a4.5 4.5 0 1 0 -9 0z" fill="rgba(40, 153, 66, 1)"></path><path d="M171 351L243 351" stroke-width="3" stroke="rgba(40, 153, 66, 1)"></path><path d="M166.5 351 a4.5 4.5 0 1 0 9 0 a4.5 4.5 0 1 0 -9 0zM238.5 351 a4.5 4.5 0 1 0 9 0 a4.5 4.5 0 1 0 -9 0z" fill="rgba(40, 153, 66, 1)"></path><path d="M243 297L243 333" stroke-width="3" stroke="rgba(40, 153, 66, 1)"></path><path d="M238.5 297 a4.5 4.5 0 1 0 9 0 a4.5 4.5 0 1 0 -9 0zM238.5 333 a4.5 4.5 0 1 0 9 0 a4.5 4.5 0 1 0 -9 0z" fill="rgba(40, 153, 66, 1)"></path><path d="M171 243L171 99L189 81L225 81" stroke-width="3" stroke="rgba(40, 153, 66, 1)"></path><path d="M166.5 243 a4.5 4.5 0 1 0 9 0 a4.5 4.5 0 1 0 -9 0zM220.5 81 a4.5 4.5 0 1 0 9 0 a4.5 4.5 0 1 0 -9 0z" fill="rgba(40, 153, 66, 1)"></path><path d="M1287 153L1179 153L1053 279L1035 279L981 225L981 189" stroke-width="3" stroke="rgba(40, 153, 66, 1)"></path><path d="M1282.5 153 a4.5 4.5 0 1 0 9 0 a4.5 4.5 0 1 0 -9 0zM976.5 189 a4.5 4.5 0 1 0 9 0 a4.5 4.5 0 1 0 -9 0z" fill="rgba(40, 153, 66, 1)"></path><path d="M243 9L243 45" stroke-width="3" stroke="rgba(40, 153, 66, 1)"></path><path d="M238.5 9 a4.5 4.5 0 1 0 9 0 a4.5 4.5 0 1 0 -9 0zM238.5 45 a4.5 4.5 0 1 0 9 0 a4.5 4.5 0 1 0 -9 0z" fill="rgba(40, 153, 66, 1)"></path><path d="M549 549L693 549L711 567" stroke-width="3" stroke="rgba(40, 153, 66, 1)"></path><path d="M544.5 549 a4.5 4.5 0 1 0 9 0 a4.5 4.5 0 1 0 -9 0zM706.5 567 a4.5 4.5 0 1 0 9 0 a4.5 4.5 0 1 0 -9 0z" fill="rgba(40, 153, 66, 1)"></path><path d="M657 495L639 513L585 513L549 477" stroke-width="3" stroke="rgba(40, 153, 66, 1)"></path><path d="M652.5 495 a4.5 4.5 0 1 0 9 0 a4.5 4.5 0 1 0 -9 0zM544.5 477 a4.5 4.5 0 1 0 9 0 a4.5 4.5 0 1 0 -9 0z" fill="rgba(40, 153, 66, 1)"></path><path d="M765 423L765 531" stroke-width="3" stroke="rgba(40, 153, 66, 1)"></path><path d="M760.5 423 a4.5 4.5 0 1 0 9 0 a4.5 4.5 0 1 0 -9 0zM760.5 531 a4.5 4.5 0 1 0 9 0 a4.5 4.5 0 1 0 -9 0z" fill="rgba(40, 153, 66, 1)"></path><path d="M1251 225L1233 225L1161 297" stroke-width="3" stroke="rgba(40, 153, 66, 1)"></path><path d="M1246.5 225 a4.5 4.5 0 1 0 9 0 a4.5 4.5 0 1 0 -9 0zM1156.5 297 a4.5 4.5 0 1 0 9 0 a4.5 4.5 0 1 0 -9 0z" fill="rgba(40, 153, 66, 1)"></path><path d="M1251 423L1269 441L1269 459L1233 495L1233 513L1269 549" stroke-width="3" stroke="rgba(40, 153, 66, 1)"></path><path d="M1246.5 423 a4.5 4.5 0 1 0 9 0 a4.5 4.5 0 1 0 -9 0zM1264.5 549 a4.5 4.5 0 1 0 9 0 a4.5 4.5 0 1 0 -9 0z" fill="rgba(40, 153, 66, 1)"></path><path d="M1179 333L1125 333" stroke-width="3" stroke="rgba(40, 153, 66, 1)"></path><path d="M1174.5 333 a4.5 4.5 0 1 0 9 0 a4.5 4.5 0 1 0 -9 0zM1120.5 333 a4.5 4.5 0 1 0 9 0 a4.5 4.5 0 1 0 -9 0z" fill="rgba(40, 153, 66, 1)"></path><path d="M1071 225L1071 243L1053 261L1035 261L999 225L999 153L963 117" stroke-width="3" stroke="rgba(40, 153, 66, 1)"></path><path d="M1066.5 225 a4.5 4.5 0 1 0 9 0 a4.5 4.5 0 1 0 -9 0zM958.5 117 a4.5 4.5 0 1 0 9 0 a4.5 4.5 0 1 0 -9 0z" fill="rgba(40, 153, 66, 1)"></path><path d="M873 261L837 297L783 297L765 279L765 261" stroke-width="3" stroke="rgba(40, 153, 66, 1)"></path><path d="M868.5 261 a4.5 4.5 0 1 0 9 0 a4.5 4.5 0 1 0 -9 0zM760.5 261 a4.5 4.5 0 1 0 9 0 a4.5 4.5 0 1 0 -9 0z" fill="rgba(40, 153, 66, 1)"></path><path d="M621 279L621 243L693 171L729 171L783 225L855 225L873 207" stroke-width="3" stroke="rgba(40, 153, 66, 1)"></path><path d="M616.5 279 a4.5 4.5 0 1 0 9 0 a4.5 4.5 0 1 0 -9 0zM868.5 207 a4.5 4.5 0 1 0 9 0 a4.5 4.5 0 1 0 -9 0z" fill="rgba(40, 153, 66, 1)"></path><path d="M423 279L423 189L387 153L297 153L243 99" stroke-width="3" stroke="rgba(40, 153, 66, 1)"></path><path d="M418.5 279 a4.5 4.5 0 1 0 9 0 a4.5 4.5 0 1 0 -9 0zM238.5 99 a4.5 4.5 0 1 0 9 0 a4.5 4.5 0 1 0 -9 0z" fill="rgba(40, 153, 66, 1)"></path><path d="M63 531L99 567L189 567" stroke-width="3" stroke="rgba(40, 153, 66, 1)"></path><path d="M58.5 531 a4.5 4.5 0 1 0 9 0 a4.5 4.5 0 1 0 -9 0zM184.5 567 a4.5 4.5 0 1 0 9 0 a4.5 4.5 0 1 0 -9 0z" fill="rgba(40, 153, 66, 1)"></path><path d="M189 423L189 387L207 369L243 369" stroke-width="3" stroke="rgba(40, 153, 66, 1)"></path><path d="M184.5 423 a4.5 4.5 0 1 0 9 0 a4.5 4.5 0 1 0 -9 0zM238.5 369 a4.5 4.5 0 1 0 9 0 a4.5 4.5 0 1 0 -9 0z" fill="rgba(40, 153, 66, 1)"></path><path d="M1017 171L1053 207L1053 243" stroke-width="3" stroke="rgba(40, 153, 66, 1)"></path><path d="M1012.5 171 a4.5 4.5 0 1 0 9 0 a4.5 4.5 0 1 0 -9 0zM1048.5 243 a4.5 4.5 0 1 0 9 0 a4.5 4.5 0 1 0 -9 0z" fill="rgba(40, 153, 66, 1)"></path><path d="M657 63L765 63L819 117" stroke-width="3" stroke="rgba(40, 153, 66, 1)"></path><path d="M652.5 63 a4.5 4.5 0 1 0 9 0 a4.5 4.5 0 1 0 -9 0zM814.5 117 a4.5 4.5 0 1 0 9 0 a4.5 4.5 0 1 0 -9 0z" fill="rgba(40, 153, 66, 1)"></path><path d="M189 369L171 387L171 423" stroke-width="3" stroke="rgba(40, 153, 66, 1)"></path><path d="M184.5 369 a4.5 4.5 0 1 0 9 0 a4.5 4.5 0 1 0 -9 0zM166.5 423 a4.5 4.5 0 1 0 9 0 a4.5 4.5 0 1 0 -9 0z" fill="rgba(40, 153, 66, 1)"></path><path d="M1017 207L1017 225L1035 243" stroke-width="3" stroke="rgba(40, 153, 66, 1)"></path><path d="M1012.5 207 a4.5 4.5 0 1 0 9 0 a4.5 4.5 0 1 0 -9 0zM1030.5 243 a4.5 4.5 0 1 0 9 0 a4.5 4.5 0 1 0 -9 0z" fill="rgba(40, 153, 66, 1)"></path><path d="M1233 99L1197 135" stroke-width="3" stroke="rgba(40, 153, 66, 1)"></path><path d="M1228.5 99 a4.5 4.5 0 1 0 9 0 a4.5 4.5 0 1 0 -9 0zM1192.5 135 a4.5 4.5 0 1 0 9 0 a4.5 4.5 0 1 0 -9 0z" fill="rgba(40, 153, 66, 1)"></path><path d="M531 171L495 171L459 135L459 117" stroke-width="3" stroke="rgba(40, 153, 66, 1)"></path><path d="M526.5 171 a4.5 4.5 0 1 0 9 0 a4.5 4.5 0 1 0 -9 0zM454.5 117 a4.5 4.5 0 1 0 9 0 a4.5 4.5 0 1 0 -9 0z" fill="rgba(40, 153, 66, 1)"></path><path d="M153 369L153 387L135 405" stroke-width="3" stroke="rgba(40, 153, 66, 1)"></path><path d="M148.5 369 a4.5 4.5 0 1 0 9 0 a4.5 4.5 0 1 0 -9 0zM130.5 405 a4.5 4.5 0 1 0 9 0 a4.5 4.5 0 1 0 -9 0z" fill="rgba(40, 153, 66, 1)"></path><path d="M1107 477L1035 477L981 423" stroke-width="3" stroke="rgba(40, 153, 66, 1)"></path><path d="M1102.5 477 a4.5 4.5 0 1 0 9 0 a4.5 4.5 0 1 0 -9 0zM976.5 423 a4.5 4.5 0 1 0 9 0 a4.5 4.5 0 1 0 -9 0z" fill="rgba(40, 153, 66, 1)"></path><path d="M1017 99L1071 99L1089 81L1107 81" stroke-width="3" stroke="rgba(40, 153, 66, 1)"></path><path d="M1012.5 99 a4.5 4.5 0 1 0 9 0 a4.5 4.5 0 1 0 -9 0zM1102.5 81 a4.5 4.5 0 1 0 9 0 a4.5 4.5 0 1 0 -9 0z" fill="rgba(40, 153, 66, 1)"></path><path d="M315 315L315 387" stroke-width="3" stroke="rgba(40, 153, 66, 1)"></path><path d="M310.5 315 a4.5 4.5 0 1 0 9 0 a4.5 4.5 0 1 0 -9 0zM310.5 387 a4.5 4.5 0 1 0 9 0 a4.5 4.5 0 1 0 -9 0z" fill="rgba(40, 153, 66, 1)"></path><path d="M873 63L927 9" stroke-width="3" stroke="rgba(40, 153, 66, 1)"></path><path d="M868.5 63 a4.5 4.5 0 1 0 9 0 a4.5 4.5 0 1 0 -9 0zM922.5 9 a4.5 4.5 0 1 0 9 0 a4.5 4.5 0 1 0 -9 0z" fill="rgba(40, 153, 66, 1)"></path><path d="M477 423L459 405L405 405L387 423" stroke-width="3" stroke="rgba(40, 153, 66, 1)"></path><path d="M472.5 423 a4.5 4.5 0 1 0 9 0 a4.5 4.5 0 1 0 -9 0zM382.5 423 a4.5 4.5 0 1 0 9 0 a4.5 4.5 0 1 0 -9 0z" fill="rgba(40, 153, 66, 1)"></path><path d="M1017 567L1017 495L963 441" stroke-width="3" stroke="rgba(40, 153, 66, 1)"></path><path d="M1012.5 567 a4.5 4.5 0 1 0 9 0 a4.5 4.5 0 1 0 -9 0zM958.5 441 a4.5 4.5 0 1 0 9 0 a4.5 4.5 0 1 0 -9 0z" fill="rgba(40, 153, 66, 1)"></path><path d="M387 369L369 369L333 405L333 441" stroke-width="3" stroke="rgba(40, 153, 66, 1)"></path><path d="M382.5 369 a4.5 4.5 0 1 0 9 0 a4.5 4.5 0 1 0 -9 0zM328.5 441 a4.5 4.5 0 1 0 9 0 a4.5 4.5 0 1 0 -9 0z" fill="rgba(40, 153, 66, 1)"></path><path d="M1125 45L1179 99L1197 99L1233 63" stroke-width="3" stroke="rgba(40, 153, 66, 1)"></path><path d="M1120.5 45 a4.5 4.5 0 1 0 9 0 a4.5 4.5 0 1 0 -9 0zM1228.5 63 a4.5 4.5 0 1 0 9 0 a4.5 4.5 0 1 0 -9 0z" fill="rgba(40, 153, 66, 1)"></path><path d="M801 387L819 405L819 531" stroke-width="3" stroke="rgba(40, 153, 66, 1)"></path><path d="M796.5 387 a4.5 4.5 0 1 0 9 0 a4.5 4.5 0 1 0 -9 0zM814.5 531 a4.5 4.5 0 1 0 9 0 a4.5 4.5 0 1 0 -9 0z" fill="rgba(40, 153, 66, 1)"></path><path d="M981 387L963 387L909 441L909 477L927 495L945 495L963 477L981 477L999 495L999 531" stroke-width="3" stroke="rgba(40, 153, 66, 1)"></path><path d="M976.5 387 a4.5 4.5 0 1 0 9 0 a4.5 4.5 0 1 0 -9 0zM994.5 531 a4.5 4.5 0 1 0 9 0 a4.5 4.5 0 1 0 -9 0z" fill="rgba(40, 153, 66, 1)"></path><path d="M1107 261L1197 171L1233 171" stroke-width="3" stroke="rgba(40, 153, 66, 1)"></path><path d="M1102.5 261 a4.5 4.5 0 1 0 9 0 a4.5 4.5 0 1 0 -9 0zM1228.5 171 a4.5 4.5 0 1 0 9 0 a4.5 4.5 0 1 0 -9 0z" fill="rgba(40, 153, 66, 1)"></path><path d="M441 261L441 189" stroke-width="3" stroke="rgba(40, 153, 66, 1)"></path><path d="M436.5 261 a4.5 4.5 0 1 0 9 0 a4.5 4.5 0 1 0 -9 0zM436.5 189 a4.5 4.5 0 1 0 9 0 a4.5 4.5 0 1 0 -9 0z" fill="rgba(40, 153, 66, 1)"></path><path d="M891 297L927 261L981 261L1017 297L1017 369" stroke-width="3" stroke="rgba(40, 153, 66, 1)"></path><path d="M886.5 297 a4.5 4.5 0 1 0 9 0 a4.5 4.5 0 1 0 -9 0zM1012.5 369 a4.5 4.5 0 1 0 9 0 a4.5 4.5 0 1 0 -9 0z" fill="rgba(40, 153, 66, 1)"></path><path d="M117 63L117 9" stroke-width="3" stroke="rgba(40, 153, 66, 1)"></path><path d="M112.5 63 a4.5 4.5 0 1 0 9 0 a4.5 4.5 0 1 0 -9 0zM112.5 9 a4.5 4.5 0 1 0 9 0 a4.5 4.5 0 1 0 -9 0z" fill="rgba(40, 153, 66, 1)"></path><path d="M45 135L81 99" stroke-width="3" stroke="rgba(40, 153, 66, 1)"></path><path d="M40.5 135 a4.5 4.5 0 1 0 9 0 a4.5 4.5 0 1 0 -9 0zM76.5 99 a4.5 4.5 0 1 0 9 0 a4.5 4.5 0 1 0 -9 0z" fill="rgba(40, 153, 66, 1)"></path><path d="M1431 495L1323 387L1323 315" stroke-width="3" stroke="rgba(40, 153, 66, 1)"></path><path d="M1426.5 495 a4.5 4.5 0 1 0 9 0 a4.5 4.5 0 1 0 -9 0zM1318.5 315 a4.5 4.5 0 1 0 9 0 a4.5 4.5 0 1 0 -9 0z" fill="rgba(40, 153, 66, 1)"></path><path d="M1413 369L1377 405L1377 423L1395 441L1431 441" stroke-width="3" stroke="rgba(40, 153, 66, 1)"></path><path d="M1408.5 369 a4.5 4.5 0 1 0 9 0 a4.5 4.5 0 1 0 -9 0zM1426.5 441 a4.5 4.5 0 1 0 9 0 a4.5 4.5 0 1 0 -9 0z" fill="rgba(40, 153, 66, 1)"></path><path d="M1089 189L1053 189L981 117L981 99L999 81L1071 81" stroke-width="3" stroke="rgba(40, 153, 66, 1)"></path><path d="M1084.5 189 a4.5 4.5 0 1 0 9 0 a4.5 4.5 0 1 0 -9 0zM1066.5 81 a4.5 4.5 0 1 0 9 0 a4.5 4.5 0 1 0 -9 0z" fill="rgba(40, 153, 66, 1)"></path><path d="M1395 567L1431 567" stroke-width="3" stroke="rgba(40, 153, 66, 1)"></path><path d="M1390.5 567 a4.5 4.5 0 1 0 9 0 a4.5 4.5 0 1 0 -9 0zM1426.5 567 a4.5 4.5 0 1 0 9 0 a4.5 4.5 0 1 0 -9 0z" fill="rgba(40, 153, 66, 1)"></path><path d="M63 333L63 351L99 387" stroke-width="3" stroke="rgba(40, 153, 66, 1)"></path><path d="M58.5 333 a4.5 4.5 0 1 0 9 0 a4.5 4.5 0 1 0 -9 0zM94.5 387 a4.5 4.5 0 1 0 9 0 a4.5 4.5 0 1 0 -9 0z" fill="rgba(40, 153, 66, 1)"></path><path d="M1305 117L1269 117L1251 135" stroke-width="3" stroke="rgba(40, 153, 66, 1)"></path><path d="M1300.5 117 a4.5 4.5 0 1 0 9 0 a4.5 4.5 0 1 0 -9 0zM1246.5 135 a4.5 4.5 0 1 0 9 0 a4.5 4.5 0 1 0 -9 0z" fill="rgba(40, 153, 66, 1)"></path><path d="M1125 153L1125 171L1107 189" stroke-width="3" stroke="rgba(40, 153, 66, 1)"></path><path d="M1120.5 153 a4.5 4.5 0 1 0 9 0 a4.5 4.5 0 1 0 -9 0zM1102.5 189 a4.5 4.5 0 1 0 9 0 a4.5 4.5 0 1 0 -9 0z" fill="rgba(40, 153, 66, 1)"></path><path d="M405 207L315 207L225 117" stroke-width="3" stroke="rgba(40, 153, 66, 1)"></path><path d="M400.5 207 a4.5 4.5 0 1 0 9 0 a4.5 4.5 0 1 0 -9 0zM220.5 117 a4.5 4.5 0 1 0 9 0 a4.5 4.5 0 1 0 -9 0z" fill="rgba(40, 153, 66, 1)"></path><path d="M477 243L459 225L459 207" stroke-width="3" stroke="rgba(40, 153, 66, 1)"></path><path d="M472.5 243 a4.5 4.5 0 1 0 9 0 a4.5 4.5 0 1 0 -9 0zM454.5 207 a4.5 4.5 0 1 0 9 0 a4.5 4.5 0 1 0 -9 0z" fill="rgba(40, 153, 66, 1)"></path><path d="M207 315L189 333L171 333" stroke-width="3" stroke="rgba(40, 153, 66, 1)"></path><path d="M202.5 315 a4.5 4.5 0 1 0 9 0 a4.5 4.5 0 1 0 -9 0zM166.5 333 a4.5 4.5 0 1 0 9 0 a4.5 4.5 0 1 0 -9 0z" fill="rgba(40, 153, 66, 1)"></path><path d="M729 441L729 513L747 531" stroke-width="3" stroke="rgba(40, 153, 66, 1)"></path><path d="M724.5 441 a4.5 4.5 0 1 0 9 0 a4.5 4.5 0 1 0 -9 0zM742.5 531 a4.5 4.5 0 1 0 9 0 a4.5 4.5 0 1 0 -9 0z" fill="rgba(40, 153, 66, 1)"></path><path d="M1305 135L1305 153L1251 207" stroke-width="3" stroke="rgba(40, 153, 66, 1)"></path><path d="M1300.5 135 a4.5 4.5 0 1 0 9 0 a4.5 4.5 0 1 0 -9 0zM1246.5 207 a4.5 4.5 0 1 0 9 0 a4.5 4.5 0 1 0 -9 0z" fill="rgba(40, 153, 66, 1)"></path><path d="M1035 531L1035 549L1053 567L1089 567" stroke-width="3" stroke="rgba(40, 153, 66, 1)"></path><path d="M1030.5 531 a4.5 4.5 0 1 0 9 0 a4.5 4.5 0 1 0 -9 0zM1084.5 567 a4.5 4.5 0 1 0 9 0 a4.5 4.5 0 1 0 -9 0z" fill="rgba(40, 153, 66, 1)"></path><path d="M45 81L9 117L9 189" stroke-width="3" stroke="rgba(40, 153, 66, 1)"></path><path d="M40.5 81 a4.5 4.5 0 1 0 9 0 a4.5 4.5 0 1 0 -9 0zM4.5 189 a4.5 4.5 0 1 0 9 0 a4.5 4.5 0 1 0 -9 0z" fill="rgba(40, 153, 66, 1)"></path><path d="M1359 171L1377 189L1377 243" stroke-width="3" stroke="rgba(40, 153, 66, 1)"></path><path d="M1354.5 171 a4.5 4.5 0 1 0 9 0 a4.5 4.5 0 1 0 -9 0zM1372.5 243 a4.5 4.5 0 1 0 9 0 a4.5 4.5 0 1 0 -9 0z" fill="rgba(40, 153, 66, 1)"></path><path d="M261 189L207 135" stroke-width="3" stroke="rgba(40, 153, 66, 1)"></path><path d="M256.5 189 a4.5 4.5 0 1 0 9 0 a4.5 4.5 0 1 0 -9 0zM202.5 135 a4.5 4.5 0 1 0 9 0 a4.5 4.5 0 1 0 -9 0z" fill="rgba(40, 153, 66, 1)"></path><path d="M963 531L963 513L981 495" stroke-width="3" stroke="rgba(40, 153, 66, 1)"></path><path d="M958.5 531 a4.5 4.5 0 1 0 9 0 a4.5 4.5 0 1 0 -9 0zM976.5 495 a4.5 4.5 0 1 0 9 0 a4.5 4.5 0 1 0 -9 0z" fill="rgba(40, 153, 66, 1)"></path><path d="M27 279L27 387L9 405L9 459" stroke-width="3" stroke="rgba(40, 153, 66, 1)"></path><path d="M22.5 279 a4.5 4.5 0 1 0 9 0 a4.5 4.5 0 1 0 -9 0zM4.5 459 a4.5 4.5 0 1 0 9 0 a4.5 4.5 0 1 0 -9 0z" fill="rgba(40, 153, 66, 1)"></path><path d="M135 207L153 225L153 297L99 351L81 351" stroke-width="3" stroke="rgba(40, 153, 66, 1)"></path><path d="M130.5 207 a4.5 4.5 0 1 0 9 0 a4.5 4.5 0 1 0 -9 0zM76.5 351 a4.5 4.5 0 1 0 9 0 a4.5 4.5 0 1 0 -9 0z" fill="rgba(40, 153, 66, 1)"></path><path d="M135 153L135 189" stroke-width="3" stroke="rgba(40, 153, 66, 1)"></path><path d="M130.5 153 a4.5 4.5 0 1 0 9 0 a4.5 4.5 0 1 0 -9 0zM130.5 189 a4.5 4.5 0 1 0 9 0 a4.5 4.5 0 1 0 -9 0z" fill="rgba(40, 153, 66, 1)"></path><path d="M1161 243L1161 225L1197 189L1215 189" stroke-width="3" stroke="rgba(40, 153, 66, 1)"></path><path d="M1156.5 243 a4.5 4.5 0 1 0 9 0 a4.5 4.5 0 1 0 -9 0zM1210.5 189 a4.5 4.5 0 1 0 9 0 a4.5 4.5 0 1 0 -9 0z" fill="rgba(40, 153, 66, 1)"></path><path d="M1431 81L1413 81L1395 63" stroke-width="3" stroke="rgba(40, 153, 66, 1)"></path><path d="M1426.5 81 a4.5 4.5 0 1 0 9 0 a4.5 4.5 0 1 0 -9 0zM1390.5 63 a4.5 4.5 0 1 0 9 0 a4.5 4.5 0 1 0 -9 0z" fill="rgba(40, 153, 66, 1)"></path><path d="M783 189L819 189L837 207L855 207" stroke-width="3" stroke="rgba(40, 153, 66, 1)"></path><path d="M778.5 189 a4.5 4.5 0 1 0 9 0 a4.5 4.5 0 1 0 -9 0zM850.5 207 a4.5 4.5 0 1 0 9 0 a4.5 4.5 0 1 0 -9 0z" fill="rgba(40, 153, 66, 1)"></path><path d="M837 63L837 9" stroke-width="3" stroke="rgba(40, 153, 66, 1)"></path><path d="M832.5 63 a4.5 4.5 0 1 0 9 0 a4.5 4.5 0 1 0 -9 0zM832.5 9 a4.5 4.5 0 1 0 9 0 a4.5 4.5 0 1 0 -9 0z" fill="rgba(40, 153, 66, 1)"></path><path d="M351 315L351 351L333 369" stroke-width="3" stroke="rgba(40, 153, 66, 1)"></path><path d="M346.5 315 a4.5 4.5 0 1 0 9 0 a4.5 4.5 0 1 0 -9 0zM328.5 369 a4.5 4.5 0 1 0 9 0 a4.5 4.5 0 1 0 -9 0z" fill="rgba(40, 153, 66, 1)"></path><path d="M45 279L99 333" stroke-width="3" stroke="rgba(40, 153, 66, 1)"></path><path d="M40.5 279 a4.5 4.5 0 1 0 9 0 a4.5 4.5 0 1 0 -9 0zM94.5 333 a4.5 4.5 0 1 0 9 0 a4.5 4.5 0 1 0 -9 0z" fill="rgba(40, 153, 66, 1)"></path><path d="M423 81L351 81" stroke-width="3" stroke="rgba(40, 153, 66, 1)"></path><path d="M418.5 81 a4.5 4.5 0 1 0 9 0 a4.5 4.5 0 1 0 -9 0zM346.5 81 a4.5 4.5 0 1 0 9 0 a4.5 4.5 0 1 0 -9 0z" fill="rgba(40, 153, 66, 1)"></path><path d="M1323 207L1287 243L1233 243L1179 297" stroke-width="3" stroke="rgba(40, 153, 66, 1)"></path><path d="M1318.5 207 a4.5 4.5 0 1 0 9 0 a4.5 4.5 0 1 0 -9 0zM1174.5 297 a4.5 4.5 0 1 0 9 0 a4.5 4.5 0 1 0 -9 0z" fill="rgba(40, 153, 66, 1)"></path><path d="M693 351L855 351" stroke-width="3" stroke="rgba(40, 153, 66, 1)"></path><path d="M688.5 351 a4.5 4.5 0 1 0 9 0 a4.5 4.5 0 1 0 -9 0zM850.5 351 a4.5 4.5 0 1 0 9 0 a4.5 4.5 0 1 0 -9 0z" fill="rgba(40, 153, 66, 1)"></path><path d="M729 45L819 45" stroke-width="3" stroke="rgba(40, 153, 66, 1)"></path><path d="M724.5 45 a4.5 4.5 0 1 0 9 0 a4.5 4.5 0 1 0 -9 0zM814.5 45 a4.5 4.5 0 1 0 9 0 a4.5 4.5 0 1 0 -9 0z" fill="rgba(40, 153, 66, 1)"></path><path d="M9 513L27 495L117 495L153 531L153 549" stroke-width="3" stroke="rgba(40, 153, 66, 1)"></path><path d="M4.5 513 a4.5 4.5 0 1 0 9 0 a4.5 4.5 0 1 0 -9 0zM148.5 549 a4.5 4.5 0 1 0 9 0 a4.5 4.5 0 1 0 -9 0z" fill="rgba(40, 153, 66, 1)"></path><path d="M801 405L765 369L675 369L657 351" stroke-width="3" stroke="rgba(40, 153, 66, 1)"></path><path d="M796.5 405 a4.5 4.5 0 1 0 9 0 a4.5 4.5 0 1 0 -9 0zM652.5 351 a4.5 4.5 0 1 0 9 0 a4.5 4.5 0 1 0 -9 0z" fill="rgba(40, 153, 66, 1)"></path><path d="M639 567L549 567L513 531L495 531L477 549" stroke-width="3" stroke="rgba(40, 153, 66, 1)"></path><path d="M634.5 567 a4.5 4.5 0 1 0 9 0 a4.5 4.5 0 1 0 -9 0zM472.5 549 a4.5 4.5 0 1 0 9 0 a4.5 4.5 0 1 0 -9 0z" fill="rgba(40, 153, 66, 1)"></path><path d="M1197 441L1233 441" stroke-width="3" stroke="rgba(40, 153, 66, 1)"></path><path d="M1192.5 441 a4.5 4.5 0 1 0 9 0 a4.5 4.5 0 1 0 -9 0zM1228.5 441 a4.5 4.5 0 1 0 9 0 a4.5 4.5 0 1 0 -9 0z" fill="rgba(40, 153, 66, 1)"></path><path d="M1341 117L1377 117" stroke-width="3" stroke="rgba(40, 153, 66, 1)"></path><path d="M1336.5 117 a4.5 4.5 0 1 0 9 0 a4.5 4.5 0 1 0 -9 0zM1372.5 117 a4.5 4.5 0 1 0 9 0 a4.5 4.5 0 1 0 -9 0z" fill="rgba(40, 153, 66, 1)"></path><path d="M1089 297L1089 261" stroke-width="3" stroke="rgba(40, 153, 66, 1)"></path><path d="M1084.5 297 a4.5 4.5 0 1 0 9 0 a4.5 4.5 0 1 0 -9 0zM1084.5 261 a4.5 4.5 0 1 0 9 0 a4.5 4.5 0 1 0 -9 0z" fill="rgba(40, 153, 66, 1)"></path><path d="M693 117L621 117L585 81" stroke-width="3" stroke="rgba(40, 153, 66, 1)"></path><path d="M688.5 117 a4.5 4.5 0 1 0 9 0 a4.5 4.5 0 1 0 -9 0zM580.5 81 a4.5 4.5 0 1 0 9 0 a4.5 4.5 0 1 0 -9 0z" fill="rgba(40, 153, 66, 1)"></path><path d="M1215 495L1161 441" stroke-width="3" stroke="rgba(40, 153, 66, 1)"></path><path d="M1210.5 495 a4.5 4.5 0 1 0 9 0 a4.5 4.5 0 1 0 -9 0zM1156.5 441 a4.5 4.5 0 1 0 9 0 a4.5 4.5 0 1 0 -9 0z" fill="rgba(40, 153, 66, 1)"></path><path d="M909 99L945 99L981 63" stroke-width="3" stroke="rgba(40, 153, 66, 1)"></path><path d="M904.5 99 a4.5 4.5 0 1 0 9 0 a4.5 4.5 0 1 0 -9 0zM976.5 63 a4.5 4.5 0 1 0 9 0 a4.5 4.5 0 1 0 -9 0z" fill="rgba(40, 153, 66, 1)"></path><path d="M819 279L837 261L855 261" stroke-width="3" stroke="rgba(40, 153, 66, 1)"></path><path d="M814.5 279 a4.5 4.5 0 1 0 9 0 a4.5 4.5 0 1 0 -9 0zM850.5 261 a4.5 4.5 0 1 0 9 0 a4.5 4.5 0 1 0 -9 0z" fill="rgba(40, 153, 66, 1)"></path><path d="M657 243L711 189L729 189" stroke-width="3" stroke="rgba(40, 153, 66, 1)"></path><path d="M652.5 243 a4.5 4.5 0 1 0 9 0 a4.5 4.5 0 1 0 -9 0zM724.5 189 a4.5 4.5 0 1 0 9 0 a4.5 4.5 0 1 0 -9 0z" fill="rgba(40, 153, 66, 1)"></path><path d="M981 27L999 9L1053 9" stroke-width="3" stroke="rgba(40, 153, 66, 1)"></path><path d="M976.5 27 a4.5 4.5 0 1 0 9 0 a4.5 4.5 0 1 0 -9 0zM1048.5 9 a4.5 4.5 0 1 0 9 0 a4.5 4.5 0 1 0 -9 0z" fill="rgba(40, 153, 66, 1)"></path><path d="M1431 369L1431 423" stroke-width="3" stroke="rgba(40, 153, 66, 1)"></path><path d="M1426.5 369 a4.5 4.5 0 1 0 9 0 a4.5 4.5 0 1 0 -9 0zM1426.5 423 a4.5 4.5 0 1 0 9 0 a4.5 4.5 0 1 0 -9 0z" fill="rgba(40, 153, 66, 1)"></path><path d="M657 153L621 153" stroke-width="3" stroke="rgba(40, 153, 66, 1)"></path><path d="M652.5 153 a4.5 4.5 0 1 0 9 0 a4.5 4.5 0 1 0 -9 0zM616.5 153 a4.5 4.5 0 1 0 9 0 a4.5 4.5 0 1 0 -9 0z" fill="rgba(40, 153, 66, 1)"></path><path d="M1377 171L1305 99L1287 99" stroke-width="3" stroke="rgba(40, 153, 66, 1)"></path><path d="M1372.5 171 a4.5 4.5 0 1 0 9 0 a4.5 4.5 0 1 0 -9 0zM1282.5 99 a4.5 4.5 0 1 0 9 0 a4.5 4.5 0 1 0 -9 0z" fill="rgba(40, 153, 66, 1)"></path><path d="M171 45L135 45" stroke-width="3" stroke="rgba(40, 153, 66, 1)"></path><path d="M166.5 45 a4.5 4.5 0 1 0 9 0 a4.5 4.5 0 1 0 -9 0zM130.5 45 a4.5 4.5 0 1 0 9 0 a4.5 4.5 0 1 0 -9 0z" fill="rgba(40, 153, 66, 1)"></path><path d="M1269 333L1215 387L1161 387L1125 351" stroke-width="3" stroke="rgba(40, 153, 66, 1)"></path><path d="M1264.5 333 a4.5 4.5 0 1 0 9 0 a4.5 4.5 0 1 0 -9 0zM1120.5 351 a4.5 4.5 0 1 0 9 0 a4.5 4.5 0 1 0 -9 0z" fill="rgba(40, 153, 66, 1)"></path><path d="M135 333L135 351L117 369L99 369" stroke-width="3" stroke="rgba(40, 153, 66, 1)"></path><path d="M130.5 333 a4.5 4.5 0 1 0 9 0 a4.5 4.5 0 1 0 -9 0zM94.5 369 a4.5 4.5 0 1 0 9 0 a4.5 4.5 0 1 0 -9 0z" fill="rgba(40, 153, 66, 1)"></path><path d="M243 387L207 387" stroke-width="3" stroke="rgba(40, 153, 66, 1)"></path><path d="M238.5 387 a4.5 4.5 0 1 0 9 0 a4.5 4.5 0 1 0 -9 0zM202.5 387 a4.5 4.5 0 1 0 9 0 a4.5 4.5 0 1 0 -9 0z" fill="rgba(40, 153, 66, 1)"></path><path d="M1035 423L1035 459" stroke-width="3" stroke="rgba(40, 153, 66, 1)"></path><path d="M1030.5 423 a4.5 4.5 0 1 0 9 0 a4.5 4.5 0 1 0 -9 0zM1030.5 459 a4.5 4.5 0 1 0 9 0 a4.5 4.5 0 1 0 -9 0z" fill="rgba(40, 153, 66, 1)"></path><path d="M387 279L315 279" stroke-width="3" stroke="rgba(40, 153, 66, 1)"></path><path d="M382.5 279 a4.5 4.5 0 1 0 9 0 a4.5 4.5 0 1 0 -9 0zM310.5 279 a4.5 4.5 0 1 0 9 0 a4.5 4.5 0 1 0 -9 0z" fill="rgba(40, 153, 66, 1)"></path><path d="M1341 531L1305 531" stroke-width="3" stroke="rgba(40, 153, 66, 1)"></path><path d="M1336.5 531 a4.5 4.5 0 1 0 9 0 a4.5 4.5 0 1 0 -9 0zM1300.5 531 a4.5 4.5 0 1 0 9 0 a4.5 4.5 0 1 0 -9 0z" fill="rgba(40, 153, 66, 1)"></path><path d="M405 333L531 333" stroke-width="3" stroke="rgba(40, 153, 66, 1)"></path><path d="M400.5 333 a4.5 4.5 0 1 0 9 0 a4.5 4.5 0 1 0 -9 0zM526.5 333 a4.5 4.5 0 1 0 9 0 a4.5 4.5 0 1 0 -9 0z" fill="rgba(40, 153, 66, 1)"></path><path d="M207 297L189 297L171 315" stroke-width="3" stroke="rgba(40, 153, 66, 1)"></path><path d="M202.5 297 a4.5 4.5 0 1 0 9 0 a4.5 4.5 0 1 0 -9 0zM166.5 315 a4.5 4.5 0 1 0 9 0 a4.5 4.5 0 1 0 -9 0z" fill="rgba(40, 153, 66, 1)"></path><path d="M999 117L1035 117L1089 171" stroke-width="3" stroke="rgba(40, 153, 66, 1)"></path><path d="M994.5 117 a4.5 4.5 0 1 0 9 0 a4.5 4.5 0 1 0 -9 0zM1084.5 171 a4.5 4.5 0 1 0 9 0 a4.5 4.5 0 1 0 -9 0z" fill="rgba(40, 153, 66, 1)"></path><path d="M1251 513L1251 495L1269 477" stroke-width="3" stroke="rgba(40, 153, 66, 1)"></path><path d="M1246.5 513 a4.5 4.5 0 1 0 9 0 a4.5 4.5 0 1 0 -9 0zM1264.5 477 a4.5 4.5 0 1 0 9 0 a4.5 4.5 0 1 0 -9 0z" fill="rgba(40, 153, 66, 1)"></path><path d="M765 27L693 27L675 45L567 45L549 27L495 27L477 45L459 45" stroke-width="3" stroke="rgba(40, 153, 66, 1)"></path><path d="M760.5 27 a4.5 4.5 0 1 0 9 0 a4.5 4.5 0 1 0 -9 0zM454.5 45 a4.5 4.5 0 1 0 9 0 a4.5 4.5 0 1 0 -9 0z" fill="rgba(40, 153, 66, 1)"></path><path d="M945 63L927 63L909 81" stroke-width="3" stroke="rgba(40, 153, 66, 1)"></path><path d="M940.5 63 a4.5 4.5 0 1 0 9 0 a4.5 4.5 0 1 0 -9 0zM904.5 81 a4.5 4.5 0 1 0 9 0 a4.5 4.5 0 1 0 -9 0z" fill="rgba(40, 153, 66, 1)"></path><path d="M477 369L459 387L441 387L423 369L405 369L387 387L369 387" stroke-width="3" stroke="rgba(40, 153, 66, 1)"></path><path d="M472.5 369 a4.5 4.5 0 1 0 9 0 a4.5 4.5 0 1 0 -9 0zM364.5 387 a4.5 4.5 0 1 0 9 0 a4.5 4.5 0 1 0 -9 0z" fill="rgba(40, 153, 66, 1)"></path><path d="M243 495L243 423L225 405L207 405" stroke-width="3" stroke="rgba(40, 153, 66, 1)"></path><path d="M238.5 495 a4.5 4.5 0 1 0 9 0 a4.5 4.5 0 1 0 -9 0zM202.5 405 a4.5 4.5 0 1 0 9 0 a4.5 4.5 0 1 0 -9 0z" fill="rgba(40, 153, 66, 1)"></path><path d="M27 153L27 117L63 81" stroke-width="3" stroke="rgba(40, 153, 66, 1)"></path><path d="M22.5 153 a4.5 4.5 0 1 0 9 0 a4.5 4.5 0 1 0 -9 0zM58.5 81 a4.5 4.5 0 1 0 9 0 a4.5 4.5 0 1 0 -9 0z" fill="rgba(40, 153, 66, 1)"></path><path d="M1161 513L1125 513" stroke-width="3" stroke="rgba(40, 153, 66, 1)"></path><path d="M1156.5 513 a4.5 4.5 0 1 0 9 0 a4.5 4.5 0 1 0 -9 0zM1120.5 513 a4.5 4.5 0 1 0 9 0 a4.5 4.5 0 1 0 -9 0z" fill="rgba(40, 153, 66, 1)"></path><path d="M1089 27L1161 27L1197 63L1215 63" stroke-width="3" stroke="rgba(40, 153, 66, 1)"></path><path d="M1084.5 27 a4.5 4.5 0 1 0 9 0 a4.5 4.5 0 1 0 -9 0zM1210.5 63 a4.5 4.5 0 1 0 9 0 a4.5 4.5 0 1 0 -9 0z" fill="rgba(40, 153, 66, 1)"></path><path d="M45 63L9 99" stroke-width="3" stroke="rgba(40, 153, 66, 1)"></path><path d="M40.5 63 a4.5 4.5 0 1 0 9 0 a4.5 4.5 0 1 0 -9 0zM4.5 99 a4.5 4.5 0 1 0 9 0 a4.5 4.5 0 1 0 -9 0z" fill="rgba(40, 153, 66, 1)"></path><path d="M351 261L315 225" stroke-width="3" stroke="rgba(40, 153, 66, 1)"></path><path d="M346.5 261 a4.5 4.5 0 1 0 9 0 a4.5 4.5 0 1 0 -9 0zM310.5 225 a4.5 4.5 0 1 0 9 0 a4.5 4.5 0 1 0 -9 0z" fill="rgba(40, 153, 66, 1)"></path><path d="M585 243L585 207L531 153L495 153L477 135L477 117" stroke-width="3" stroke="rgba(40, 153, 66, 1)"></path><path d="M580.5 243 a4.5 4.5 0 1 0 9 0 a4.5 4.5 0 1 0 -9 0zM472.5 117 a4.5 4.5 0 1 0 9 0 a4.5 4.5 0 1 0 -9 0z" fill="rgba(40, 153, 66, 1)"></path><path d="M783 495L783 531" stroke-width="3" stroke="rgba(40, 153, 66, 1)"></path><path d="M778.5 495 a4.5 4.5 0 1 0 9 0 a4.5 4.5 0 1 0 -9 0zM778.5 531 a4.5 4.5 0 1 0 9 0 a4.5 4.5 0 1 0 -9 0z" fill="rgba(40, 153, 66, 1)"></path><path d="M1053 153L1035 153L1017 135" stroke-width="3" stroke="rgba(40, 153, 66, 1)"></path><path d="M1048.5 153 a4.5 4.5 0 1 0 9 0 a4.5 4.5 0 1 0 -9 0zM1012.5 135 a4.5 4.5 0 1 0 9 0 a4.5 4.5 0 1 0 -9 0z" fill="rgba(40, 153, 66, 1)"></path><path d="M135 27L189 27" stroke-width="3" stroke="rgba(40, 153, 66, 1)"></path><path d="M130.5 27 a4.5 4.5 0 1 0 9 0 a4.5 4.5 0 1 0 -9 0zM184.5 27 a4.5 4.5 0 1 0 9 0 a4.5 4.5 0 1 0 -9 0z" fill="rgba(40, 153, 66, 1)"></path><path d="M765 9L783 27L819 27" stroke-width="3" stroke="rgba(40, 153, 66, 1)"></path><path d="M760.5 9 a4.5 4.5 0 1 0 9 0 a4.5 4.5 0 1 0 -9 0zM814.5 27 a4.5 4.5 0 1 0 9 0 a4.5 4.5 0 1 0 -9 0z" fill="rgba(40, 153, 66, 1)"></path><path d="M1359 27L1431 27" stroke-width="3" stroke="rgba(40, 153, 66, 1)"></path><path d="M1354.5 27 a4.5 4.5 0 1 0 9 0 a4.5 4.5 0 1 0 -9 0zM1426.5 27 a4.5 4.5 0 1 0 9 0 a4.5 4.5 0 1 0 -9 0z" fill="rgba(40, 153, 66, 1)"></path><path d="M1377 351L1341 315" stroke-width="3" stroke="rgba(40, 153, 66, 1)"></path><path d="M1372.5 351 a4.5 4.5 0 1 0 9 0 a4.5 4.5 0 1 0 -9 0zM1336.5 315 a4.5 4.5 0 1 0 9 0 a4.5 4.5 0 1 0 -9 0z" fill="rgba(40, 153, 66, 1)"></path><path d="M1341 549L1431 549" stroke-width="3" stroke="rgba(40, 153, 66, 1)"></path><path d="M1336.5 549 a4.5 4.5 0 1 0 9 0 a4.5 4.5 0 1 0 -9 0zM1426.5 549 a4.5 4.5 0 1 0 9 0 a4.5 4.5 0 1 0 -9 0z" fill="rgba(40, 153, 66, 1)"></path><path d="M963 153L963 207" stroke-width="3" stroke="rgba(40, 153, 66, 1)"></path><path d="M958.5 153 a4.5 4.5 0 1 0 9 0 a4.5 4.5 0 1 0 -9 0zM958.5 207 a4.5 4.5 0 1 0 9 0 a4.5 4.5 0 1 0 -9 0z" fill="rgba(40, 153, 66, 1)"></path><path d="M1341 207L1305 171" stroke-width="3" stroke="rgba(40, 153, 66, 1)"></path><path d="M1336.5 207 a4.5 4.5 0 1 0 9 0 a4.5 4.5 0 1 0 -9 0zM1300.5 171 a4.5 4.5 0 1 0 9 0 a4.5 4.5 0 1 0 -9 0z" fill="rgba(40, 153, 66, 1)"></path><path d="M495 45L549 45" stroke-width="3" stroke="rgba(40, 153, 66, 1)"></path><path d="M490.5 45 a4.5 4.5 0 1 0 9 0 a4.5 4.5 0 1 0 -9 0zM544.5 45 a4.5 4.5 0 1 0 9 0 a4.5 4.5 0 1 0 -9 0z" fill="rgba(40, 153, 66, 1)"></path><path d="M1143 99L1161 117L1161 135" stroke-width="3" stroke="rgba(40, 153, 66, 1)"></path><path d="M1138.5 99 a4.5 4.5 0 1 0 9 0 a4.5 4.5 0 1 0 -9 0zM1156.5 135 a4.5 4.5 0 1 0 9 0 a4.5 4.5 0 1 0 -9 0z" fill="rgba(40, 153, 66, 1)"></path><path d="M1323 441L1323 477L1377 531L1431 531" stroke-width="3" stroke="rgba(40, 153, 66, 1)"></path><path d="M1318.5 441 a4.5 4.5 0 1 0 9 0 a4.5 4.5 0 1 0 -9 0zM1426.5 531 a4.5 4.5 0 1 0 9 0 a4.5 4.5 0 1 0 -9 0z" fill="rgba(40, 153, 66, 1)"></path><path d="M513 297L441 297" stroke-width="3" stroke="rgba(40, 153, 66, 1)"></path><path d="M508.5 297 a4.5 4.5 0 1 0 9 0 a4.5 4.5 0 1 0 -9 0zM436.5 297 a4.5 4.5 0 1 0 9 0 a4.5 4.5 0 1 0 -9 0z" fill="rgba(40, 153, 66, 1)"></path><path d="M1125 459L1161 495" stroke-width="3" stroke="rgba(40, 153, 66, 1)"></path><path d="M1120.5 459 a4.5 4.5 0 1 0 9 0 a4.5 4.5 0 1 0 -9 0zM1156.5 495 a4.5 4.5 0 1 0 9 0 a4.5 4.5 0 1 0 -9 0z" fill="rgba(40, 153, 66, 1)"></path><path d="M567 531L531 531L513 513" stroke-width="3" stroke="rgba(40, 153, 66, 1)"></path><path d="M562.5 531 a4.5 4.5 0 1 0 9 0 a4.5 4.5 0 1 0 -9 0zM508.5 513 a4.5 4.5 0 1 0 9 0 a4.5 4.5 0 1 0 -9 0z" fill="rgba(40, 153, 66, 1)"></path><path d="M63 261L63 243L45 225L27 225" stroke-width="3" stroke="rgba(40, 153, 66, 1)"></path><path d="M58.5 261 a4.5 4.5 0 1 0 9 0 a4.5 4.5 0 1 0 -9 0zM22.5 225 a4.5 4.5 0 1 0 9 0 a4.5 4.5 0 1 0 -9 0z" fill="rgba(40, 153, 66, 1)"></path><path d="M1359 207L1323 171L1323 135" stroke-width="3" stroke="rgba(40, 153, 66, 1)"></path><path d="M1354.5 207 a4.5 4.5 0 1 0 9 0 a4.5 4.5 0 1 0 -9 0zM1318.5 135 a4.5 4.5 0 1 0 9 0 a4.5 4.5 0 1 0 -9 0z" fill="rgba(40, 153, 66, 1)"></path><path d="M9 567L9 531L27 513L63 513" stroke-width="3" stroke="rgba(40, 153, 66, 1)"></path><path d="M4.5 567 a4.5 4.5 0 1 0 9 0 a4.5 4.5 0 1 0 -9 0zM58.5 513 a4.5 4.5 0 1 0 9 0 a4.5 4.5 0 1 0 -9 0z" fill="rgba(40, 153, 66, 1)"></path><path d="M1251 387L1251 369L1269 351L1287 351" stroke-width="3" stroke="rgba(40, 153, 66, 1)"></path><path d="M1246.5 387 a4.5 4.5 0 1 0 9 0 a4.5 4.5 0 1 0 -9 0zM1282.5 351 a4.5 4.5 0 1 0 9 0 a4.5 4.5 0 1 0 -9 0z" fill="rgba(40, 153, 66, 1)"></path><path d="M9 315L9 261L27 243L45 243" stroke-width="3" stroke="rgba(40, 153, 66, 1)"></path><path d="M4.5 315 a4.5 4.5 0 1 0 9 0 a4.5 4.5 0 1 0 -9 0zM40.5 243 a4.5 4.5 0 1 0 9 0 a4.5 4.5 0 1 0 -9 0z" fill="rgba(40, 153, 66, 1)"></path><path d="M1071 351L1053 369L1035 369" stroke-width="3" stroke="rgba(40, 153, 66, 1)"></path><path d="M1066.5 351 a4.5 4.5 0 1 0 9 0 a4.5 4.5 0 1 0 -9 0zM1030.5 369 a4.5 4.5 0 1 0 9 0 a4.5 4.5 0 1 0 -9 0z" fill="rgba(40, 153, 66, 1)"></path><path d="M315 81L261 81" stroke-width="3" stroke="rgba(40, 153, 66, 1)"></path><path d="M310.5 81 a4.5 4.5 0 1 0 9 0 a4.5 4.5 0 1 0 -9 0zM256.5 81 a4.5 4.5 0 1 0 9 0 a4.5 4.5 0 1 0 -9 0z" fill="rgba(40, 153, 66, 1)"></path><path d="M1341 387L1359 369L1359 351" stroke-width="3" stroke="rgba(40, 153, 66, 1)"></path><path d="M1336.5 387 a4.5 4.5 0 1 0 9 0 a4.5 4.5 0 1 0 -9 0zM1354.5 351 a4.5 4.5 0 1 0 9 0 a4.5 4.5 0 1 0 -9 0z" fill="rgba(40, 153, 66, 1)"></path><path d="M9 81L27 63L27 45" stroke-width="3" stroke="rgba(40, 153, 66, 1)"></path><path d="M4.5 81 a4.5 4.5 0 1 0 9 0 a4.5 4.5 0 1 0 -9 0zM22.5 45 a4.5 4.5 0 1 0 9 0 a4.5 4.5 0 1 0 -9 0z" fill="rgba(40, 153, 66, 1)"></path><path d="M27 441L45 459L135 459L171 495L171 513L207 549L225 549" stroke-width="3" stroke="rgba(40, 153, 66, 1)"></path><path d="M22.5 441 a4.5 4.5 0 1 0 9 0 a4.5 4.5 0 1 0 -9 0zM220.5 549 a4.5 4.5 0 1 0 9 0 a4.5 4.5 0 1 0 -9 0z" fill="rgba(40, 153, 66, 1)"></path><path d="M819 387L855 387" stroke-width="3" stroke="rgba(40, 153, 66, 1)"></path><path d="M814.5 387 a4.5 4.5 0 1 0 9 0 a4.5 4.5 0 1 0 -9 0zM850.5 387 a4.5 4.5 0 1 0 9 0 a4.5 4.5 0 1 0 -9 0z" fill="rgba(40, 153, 66, 1)"></path><path d="M369 333L369 315L405 279L405 243L387 225L369 225L351 243" stroke-width="3" stroke="rgba(40, 153, 66, 1)"></path><path d="M364.5 333 a4.5 4.5 0 1 0 9 0 a4.5 4.5 0 1 0 -9 0zM346.5 243 a4.5 4.5 0 1 0 9 0 a4.5 4.5 0 1 0 -9 0z" fill="rgba(40, 153, 66, 1)"></path><path d="M909 9L873 45L855 45" stroke-width="3" stroke="rgba(40, 153, 66, 1)"></path><path d="M904.5 9 a4.5 4.5 0 1 0 9 0 a4.5 4.5 0 1 0 -9 0zM850.5 45 a4.5 4.5 0 1 0 9 0 a4.5 4.5 0 1 0 -9 0z" fill="rgba(40, 153, 66, 1)"></path><path d="M639 495L603 459" stroke-width="3" stroke="rgba(40, 153, 66, 1)"></path><path d="M634.5 495 a4.5 4.5 0 1 0 9 0 a4.5 4.5 0 1 0 -9 0zM598.5 459 a4.5 4.5 0 1 0 9 0 a4.5 4.5 0 1 0 -9 0z" fill="rgba(40, 153, 66, 1)"></path><path d="M621 423L639 441L675 441L711 405L729 405" stroke-width="3" stroke="rgba(40, 153, 66, 1)"></path><path d="M616.5 423 a4.5 4.5 0 1 0 9 0 a4.5 4.5 0 1 0 -9 0zM724.5 405 a4.5 4.5 0 1 0 9 0 a4.5 4.5 0 1 0 -9 0z" fill="rgba(40, 153, 66, 1)"></path><path d="M423 99L387 99" stroke-width="3" stroke="rgba(40, 153, 66, 1)"></path><path d="M418.5 99 a4.5 4.5 0 1 0 9 0 a4.5 4.5 0 1 0 -9 0zM382.5 99 a4.5 4.5 0 1 0 9 0 a4.5 4.5 0 1 0 -9 0z" fill="rgba(40, 153, 66, 1)"></path><path d="M891 135L909 135L927 117" stroke-width="3" stroke="rgba(40, 153, 66, 1)"></path><path d="M886.5 135 a4.5 4.5 0 1 0 9 0 a4.5 4.5 0 1 0 -9 0zM922.5 117 a4.5 4.5 0 1 0 9 0 a4.5 4.5 0 1 0 -9 0z" fill="rgba(40, 153, 66, 1)"></path><path d="M63 153L63 135L81 117" stroke-width="3" stroke="rgba(40, 153, 66, 1)"></path><path d="M58.5 153 a4.5 4.5 0 1 0 9 0 a4.5 4.5 0 1 0 -9 0zM76.5 117 a4.5 4.5 0 1 0 9 0 a4.5 4.5 0 1 0 -9 0z" fill="rgba(40, 153, 66, 1)"></path><path d="M1323 279L1215 279" stroke-width="3" stroke="rgba(40, 153, 66, 1)"></path><path d="M1318.5 279 a4.5 4.5 0 1 0 9 0 a4.5 4.5 0 1 0 -9 0zM1210.5 279 a4.5 4.5 0 1 0 9 0 a4.5 4.5 0 1 0 -9 0z" fill="rgba(40, 153, 66, 1)"></path><path d="M819 81L855 81" stroke-width="3" stroke="rgba(40, 153, 66, 1)"></path><path d="M814.5 81 a4.5 4.5 0 1 0 9 0 a4.5 4.5 0 1 0 -9 0zM850.5 81 a4.5 4.5 0 1 0 9 0 a4.5 4.5 0 1 0 -9 0z" fill="rgba(40, 153, 66, 1)"></path><path d="M81 171L63 189L45 189L27 171" stroke-width="3" stroke="rgba(40, 153, 66, 1)"></path><path d="M76.5 171 a4.5 4.5 0 1 0 9 0 a4.5 4.5 0 1 0 -9 0zM22.5 171 a4.5 4.5 0 1 0 9 0 a4.5 4.5 0 1 0 -9 0z" fill="rgba(40, 153, 66, 1)"></path><path d="M387 459L405 477L405 495" stroke-width="3" stroke="rgba(40, 153, 66, 1)"></path><path d="M382.5 459 a4.5 4.5 0 1 0 9 0 a4.5 4.5 0 1 0 -9 0zM400.5 495 a4.5 4.5 0 1 0 9 0 a4.5 4.5 0 1 0 -9 0z" fill="rgba(40, 153, 66, 1)"></path><path d="M135 549L99 549L81 531" stroke-width="3" stroke="rgba(40, 153, 66, 1)"></path><path d="M130.5 549 a4.5 4.5 0 1 0 9 0 a4.5 4.5 0 1 0 -9 0zM76.5 531 a4.5 4.5 0 1 0 9 0 a4.5 4.5 0 1 0 -9 0z" fill="rgba(40, 153, 66, 1)"></path><path d="M1215 369L1233 351L1233 333" stroke-width="3" stroke="rgba(40, 153, 66, 1)"></path><path d="M1210.5 369 a4.5 4.5 0 1 0 9 0 a4.5 4.5 0 1 0 -9 0zM1228.5 333 a4.5 4.5 0 1 0 9 0 a4.5 4.5 0 1 0 -9 0z" fill="rgba(40, 153, 66, 1)"></path><path d="M1269 207L1287 189L1305 189" stroke-width="3" stroke="rgba(40, 153, 66, 1)"></path><path d="M1264.5 207 a4.5 4.5 0 1 0 9 0 a4.5 4.5 0 1 0 -9 0zM1300.5 189 a4.5 4.5 0 1 0 9 0 a4.5 4.5 0 1 0 -9 0z" fill="rgba(40, 153, 66, 1)"></path><path d="M639 81L747 81" stroke-width="3" stroke="rgba(40, 153, 66, 1)"></path><path d="M634.5 81 a4.5 4.5 0 1 0 9 0 a4.5 4.5 0 1 0 -9 0zM742.5 81 a4.5 4.5 0 1 0 9 0 a4.5 4.5 0 1 0 -9 0z" fill="rgba(40, 153, 66, 1)"></path><path d="M729 117L801 117" stroke-width="3" stroke="rgba(40, 153, 66, 1)"></path><path d="M724.5 117 a4.5 4.5 0 1 0 9 0 a4.5 4.5 0 1 0 -9 0zM796.5 117 a4.5 4.5 0 1 0 9 0 a4.5 4.5 0 1 0 -9 0z" fill="rgba(40, 153, 66, 1)"></path><path d="M585 261L567 261L513 207" stroke-width="3" stroke="rgba(40, 153, 66, 1)"></path><path d="M580.5 261 a4.5 4.5 0 1 0 9 0 a4.5 4.5 0 1 0 -9 0zM508.5 207 a4.5 4.5 0 1 0 9 0 a4.5 4.5 0 1 0 -9 0z" fill="rgba(40, 153, 66, 1)"></path><path d="M81 45L81 9" stroke-width="3" stroke="rgba(40, 153, 66, 1)"></path><path d="M76.5 45 a4.5 4.5 0 1 0 9 0 a4.5 4.5 0 1 0 -9 0zM76.5 9 a4.5 4.5 0 1 0 9 0 a4.5 4.5 0 1 0 -9 0z" fill="rgba(40, 153, 66, 1)"></path><path d="M531 189L531 207L567 243" stroke-width="3" stroke="rgba(40, 153, 66, 1)"></path><path d="M526.5 189 a4.5 4.5 0 1 0 9 0 a4.5 4.5 0 1 0 -9 0zM562.5 243 a4.5 4.5 0 1 0 9 0 a4.5 4.5 0 1 0 -9 0z" fill="rgba(40, 153, 66, 1)"></path><path d="M27 405L45 387L63 387L117 441" stroke-width="3" stroke="rgba(40, 153, 66, 1)"></path><path d="M22.5 405 a4.5 4.5 0 1 0 9 0 a4.5 4.5 0 1 0 -9 0zM112.5 441 a4.5 4.5 0 1 0 9 0 a4.5 4.5 0 1 0 -9 0z" fill="rgba(40, 153, 66, 1)"></path><path d="M1359 495L1359 441L1323 405" stroke-width="3" stroke="rgba(40, 153, 66, 1)"></path><path d="M1354.5 495 a4.5 4.5 0 1 0 9 0 a4.5 4.5 0 1 0 -9 0zM1318.5 405 a4.5 4.5 0 1 0 9 0 a4.5 4.5 0 1 0 -9 0z" fill="rgba(40, 153, 66, 1)"></path><path d="M387 27L441 27" stroke-width="3" stroke="rgba(40, 153, 66, 1)"></path><path d="M382.5 27 a4.5 4.5 0 1 0 9 0 a4.5 4.5 0 1 0 -9 0zM436.5 27 a4.5 4.5 0 1 0 9 0 a4.5 4.5 0 1 0 -9 0z" fill="rgba(40, 153, 66, 1)"></path><path d="M315 189L333 171L351 171L369 189L387 189" stroke-width="3" stroke="rgba(40, 153, 66, 1)"></path><path d="M310.5 189 a4.5 4.5 0 1 0 9 0 a4.5 4.5 0 1 0 -9 0zM382.5 189 a4.5 4.5 0 1 0 9 0 a4.5 4.5 0 1 0 -9 0z" fill="rgba(40, 153, 66, 1)"></path><path d="M153 9L189 9" stroke-width="3" stroke="rgba(40, 153, 66, 1)"></path><path d="M148.5 9 a4.5 4.5 0 1 0 9 0 a4.5 4.5 0 1 0 -9 0zM184.5 9 a4.5 4.5 0 1 0 9 0 a4.5 4.5 0 1 0 -9 0z" fill="rgba(40, 153, 66, 1)"></path><path d="M999 315L999 369" stroke-width="3" stroke="rgba(40, 153, 66, 1)"></path><path d="M994.5 315 a4.5 4.5 0 1 0 9 0 a4.5 4.5 0 1 0 -9 0zM994.5 369 a4.5 4.5 0 1 0 9 0 a4.5 4.5 0 1 0 -9 0z" fill="rgba(40, 153, 66, 1)"></path><path d="M1197 369L1197 333" stroke-width="3" stroke="rgba(40, 153, 66, 1)"></path><path d="M1192.5 369 a4.5 4.5 0 1 0 9 0 a4.5 4.5 0 1 0 -9 0zM1192.5 333 a4.5 4.5 0 1 0 9 0 a4.5 4.5 0 1 0 -9 0z" fill="rgba(40, 153, 66, 1)"></path><path d="M927 279L927 315" stroke-width="3" stroke="rgba(40, 153, 66, 1)"></path><path d="M922.5 279 a4.5 4.5 0 1 0 9 0 a4.5 4.5 0 1 0 -9 0zM922.5 315 a4.5 4.5 0 1 0 9 0 a4.5 4.5 0 1 0 -9 0z" fill="rgba(40, 153, 66, 1)"></path><path d="M297 45L315 27L369 27" stroke-width="3" stroke="rgba(40, 153, 66, 1)"></path><path d="M292.5 45 a4.5 4.5 0 1 0 9 0 a4.5 4.5 0 1 0 -9 0zM364.5 27 a4.5 4.5 0 1 0 9 0 a4.5 4.5 0 1 0 -9 0z" fill="rgba(40, 153, 66, 1)"></path><path d="M999 27L1035 27" stroke-width="3" stroke="rgba(40, 153, 66, 1)"></path><path d="M994.5 27 a4.5 4.5 0 1 0 9 0 a4.5 4.5 0 1 0 -9 0zM1030.5 27 a4.5 4.5 0 1 0 9 0 a4.5 4.5 0 1 0 -9 0z" fill="rgba(40, 153, 66, 1)"></path><path d="M279 99L279 117L297 135" stroke-width="3" stroke="rgba(40, 153, 66, 1)"></path><path d="M274.5 99 a4.5 4.5 0 1 0 9 0 a4.5 4.5 0 1 0 -9 0zM292.5 135 a4.5 4.5 0 1 0 9 0 a4.5 4.5 0 1 0 -9 0z" fill="rgba(40, 153, 66, 1)"></path><path d="M783 279L801 261L819 261" stroke-width="3" stroke="rgba(40, 153, 66, 1)"></path><path d="M778.5 279 a4.5 4.5 0 1 0 9 0 a4.5 4.5 0 1 0 -9 0zM814.5 261 a4.5 4.5 0 1 0 9 0 a4.5 4.5 0 1 0 -9 0z" fill="rgba(40, 153, 66, 1)"></path><path d="M603 405L675 405" stroke-width="3" stroke="rgba(40, 153, 66, 1)"></path><path d="M598.5 405 a4.5 4.5 0 1 0 9 0 a4.5 4.5 0 1 0 -9 0zM670.5 405 a4.5 4.5 0 1 0 9 0 a4.5 4.5 0 1 0 -9 0z" fill="rgba(40, 153, 66, 1)"></path><path d="M261 459L261 495" stroke-width="3" stroke="rgba(40, 153, 66, 1)"></path><path d="M256.5 459 a4.5 4.5 0 1 0 9 0 a4.5 4.5 0 1 0 -9 0zM256.5 495 a4.5 4.5 0 1 0 9 0 a4.5 4.5 0 1 0 -9 0z" fill="rgba(40, 153, 66, 1)"></path><path d="M801 423L783 405L765 405" stroke-width="3" stroke="rgba(40, 153, 66, 1)"></path><path d="M796.5 423 a4.5 4.5 0 1 0 9 0 a4.5 4.5 0 1 0 -9 0zM760.5 405 a4.5 4.5 0 1 0 9 0 a4.5 4.5 0 1 0 -9 0z" fill="rgba(40, 153, 66, 1)"></path><path d="M1395 477L1431 513" stroke-width="3" stroke="rgba(40, 153, 66, 1)"></path><path d="M1390.5 477 a4.5 4.5 0 1 0 9 0 a4.5 4.5 0 1 0 -9 0zM1426.5 513 a4.5 4.5 0 1 0 9 0 a4.5 4.5 0 1 0 -9 0z" fill="rgba(40, 153, 66, 1)"></path><path d="M783 9L819 9" stroke-width="3" stroke="rgba(40, 153, 66, 1)"></path><path d="M778.5 9 a4.5 4.5 0 1 0 9 0 a4.5 4.5 0 1 0 -9 0zM814.5 9 a4.5 4.5 0 1 0 9 0 a4.5 4.5 0 1 0 -9 0z" fill="rgba(40, 153, 66, 1)"></path><path d="M549 297L567 297L585 315" stroke-width="3" stroke="rgba(40, 153, 66, 1)"></path><path d="M544.5 297 a4.5 4.5 0 1 0 9 0 a4.5 4.5 0 1 0 -9 0zM580.5 315 a4.5 4.5 0 1 0 9 0 a4.5 4.5 0 1 0 -9 0z" fill="rgba(40, 153, 66, 1)"></path><path d="M1215 423L1179 423" stroke-width="3" stroke="rgba(40, 153, 66, 1)"></path><path d="M1210.5 423 a4.5 4.5 0 1 0 9 0 a4.5 4.5 0 1 0 -9 0zM1174.5 423 a4.5 4.5 0 1 0 9 0 a4.5 4.5 0 1 0 -9 0z" fill="rgba(40, 153, 66, 1)"></path><path d="M783 477L801 495L801 531" stroke-width="3" stroke="rgba(40, 153, 66, 1)"></path><path d="M778.5 477 a4.5 4.5 0 1 0 9 0 a4.5 4.5 0 1 0 -9 0zM796.5 531 a4.5 4.5 0 1 0 9 0 a4.5 4.5 0 1 0 -9 0z" fill="rgba(40, 153, 66, 1)"></path><path d="M1359 315L1395 315" stroke-width="3" stroke="rgba(40, 153, 66, 1)"></path><path d="M1354.5 315 a4.5 4.5 0 1 0 9 0 a4.5 4.5 0 1 0 -9 0zM1390.5 315 a4.5 4.5 0 1 0 9 0 a4.5 4.5 0 1 0 -9 0z" fill="rgba(40, 153, 66, 1)"></path><path d="M1143 45L1179 81L1197 81" stroke-width="3" stroke="rgba(40, 153, 66, 1)"></path><path d="M1138.5 45 a4.5 4.5 0 1 0 9 0 a4.5 4.5 0 1 0 -9 0zM1192.5 81 a4.5 4.5 0 1 0 9 0 a4.5 4.5 0 1 0 -9 0z" fill="rgba(40, 153, 66, 1)"></path><path d="M1431 351L1431 297" stroke-width="3" stroke="rgba(40, 153, 66, 1)"></path><path d="M1426.5 351 a4.5 4.5 0 1 0 9 0 a4.5 4.5 0 1 0 -9 0zM1426.5 297 a4.5 4.5 0 1 0 9 0 a4.5 4.5 0 1 0 -9 0z" fill="rgba(40, 153, 66, 1)"></path><path d="M1269 225L1287 207L1305 207" stroke-width="3" stroke="rgba(40, 153, 66, 1)"></path><path d="M1264.5 225 a4.5 4.5 0 1 0 9 0 a4.5 4.5 0 1 0 -9 0zM1300.5 207 a4.5 4.5 0 1 0 9 0 a4.5 4.5 0 1 0 -9 0z" fill="rgba(40, 153, 66, 1)"></path><path d="M1071 423L1107 459" stroke-width="3" stroke="rgba(40, 153, 66, 1)"></path><path d="M1066.5 423 a4.5 4.5 0 1 0 9 0 a4.5 4.5 0 1 0 -9 0zM1102.5 459 a4.5 4.5 0 1 0 9 0 a4.5 4.5 0 1 0 -9 0z" fill="rgba(40, 153, 66, 1)"></path><path d="M837 495L837 531" stroke-width="3" stroke="rgba(40, 153, 66, 1)"></path><path d="M832.5 495 a4.5 4.5 0 1 0 9 0 a4.5 4.5 0 1 0 -9 0zM832.5 531 a4.5 4.5 0 1 0 9 0 a4.5 4.5 0 1 0 -9 0z" fill="rgba(40, 153, 66, 1)"></path><path d="M711 315L675 315" stroke-width="3" stroke="rgba(40, 153, 66, 1)"></path><path d="M706.5 315 a4.5 4.5 0 1 0 9 0 a4.5 4.5 0 1 0 -9 0zM670.5 315 a4.5 4.5 0 1 0 9 0 a4.5 4.5 0 1 0 -9 0z" fill="rgba(40, 153, 66, 1)"></path><path d="M657 567L693 567" stroke-width="3" stroke="rgba(40, 153, 66, 1)"></path><path d="M652.5 567 a4.5 4.5 0 1 0 9 0 a4.5 4.5 0 1 0 -9 0zM688.5 567 a4.5 4.5 0 1 0 9 0 a4.5 4.5 0 1 0 -9 0z" fill="rgba(40, 153, 66, 1)"></path><path d="M927 477L945 459L963 459" stroke-width="3" stroke="rgba(40, 153, 66, 1)"></path><path d="M922.5 477 a4.5 4.5 0 1 0 9 0 a4.5 4.5 0 1 0 -9 0zM958.5 459 a4.5 4.5 0 1 0 9 0 a4.5 4.5 0 1 0 -9 0z" fill="rgba(40, 153, 66, 1)"></path><path d="M1233 27L1215 27L1197 9" stroke-width="3" stroke="rgba(40, 153, 66, 1)"></path><path d="M1228.5 27 a4.5 4.5 0 1 0 9 0 a4.5 4.5 0 1 0 -9 0zM1192.5 9 a4.5 4.5 0 1 0 9 0 a4.5 4.5 0 1 0 -9 0z" fill="rgba(40, 153, 66, 1)"></path><path d="M531 459L513 477L495 477" stroke-width="3" stroke="rgba(40, 153, 66, 1)"></path><path d="M526.5 459 a4.5 4.5 0 1 0 9 0 a4.5 4.5 0 1 0 -9 0zM490.5 477 a4.5 4.5 0 1 0 9 0 a4.5 4.5 0 1 0 -9 0z" fill="rgba(40, 153, 66, 1)"></path><path d="M531 297L513 279L495 279L477 261" stroke-width="3" stroke="rgba(40, 153, 66, 1)"></path><path d="M526.5 297 a4.5 4.5 0 1 0 9 0 a4.5 4.5 0 1 0 -9 0zM472.5 261 a4.5 4.5 0 1 0 9 0 a4.5 4.5 0 1 0 -9 0z" fill="rgba(40, 153, 66, 1)"></path><path d="M1377 279L1341 279" stroke-width="3" stroke="rgba(40, 153, 66, 1)"></path><path d="M1372.5 279 a4.5 4.5 0 1 0 9 0 a4.5 4.5 0 1 0 -9 0zM1336.5 279 a4.5 4.5 0 1 0 9 0 a4.5 4.5 0 1 0 -9 0z" fill="rgba(40, 153, 66, 1)"></path></g></g><defs><mask id="SvgjsMask2880"><rect width="1440" height="560" fill="#ffffff"></rect></mask><linearGradient x1="50%" y1="0%" x2="50%" y2="100%" gradientUnits="userSpaceOnUse" id="SvgjsLinearGradient2881"><stop stop-color="rgba(64, 64, 68, 1)" offset="0.81"></stop><stop stop-color="rgba(170, 171, 173, 1)" offset="1"></stop></linearGradient><mask id="SvgjsMask2882"><rect width="1440" height="560" fill="white"></rect><path d="M618.75 63 a2.25 2.25 0 1 0 4.5 0 a2.25 2.25 0 1 0 -4.5 0zM312.75 135 a2.25 2.25 0 1 0 4.5 0 a2.25 2.25 0 1 0 -4.5 0z" fill="black"></path><path d="M1158.75 423 a2.25 2.25 0 1 0 4.5 0 a2.25 2.25 0 1 0 -4.5 0zM816.75 153 a2.25 2.25 0 1 0 4.5 0 a2.25 2.25 0 1 0 -4.5 0z" fill="black"></path><path d="M1428.75 45 a2.25 2.25 0 1 0 4.5 0 a2.25 2.25 0 1 0 -4.5 0zM1086.75 225 a2.25 2.25 0 1 0 4.5 0 a2.25 2.25 0 1 0 -4.5 0z" fill="black"></path><path d="M204.75 207 a2.25 2.25 0 1 0 4.5 0 a2.25 2.25 0 1 0 -4.5 0zM456.75 9 a2.25 2.25 0 1 0 4.5 0 a2.25 2.25 0 1 0 -4.5 0z" fill="black"></path><path d="M114.75 297 a2.25 2.25 0 1 0 4.5 0 a2.25 2.25 0 1 0 -4.5 0zM204.75 9 a2.25 2.25 0 1 0 4.5 0 a2.25 2.25 0 1 0 -4.5 0z" fill="black"></path><path d="M852.75 243 a2.25 2.25 0 1 0 4.5 0 a2.25 2.25 0 1 0 -4.5 0zM510.75 423 a2.25 2.25 0 1 0 4.5 0 a2.25 2.25 0 1 0 -4.5 0z" fill="black"></path><path d="M384.75 405 a2.25 2.25 0 1 0 4.5 0 a2.25 2.25 0 1 0 -4.5 0zM312.75 567 a2.25 2.25 0 1 0 4.5 0 a2.25 2.25 0 1 0 -4.5 0z" fill="black"></path><path d="M726.75 549 a2.25 2.25 0 1 0 4.5 0 a2.25 2.25 0 1 0 -4.5 0zM726.75 261 a2.25 2.25 0 1 0 4.5 0 a2.25 2.25 0 1 0 -4.5 0z" fill="black"></path><path d="M1050.75 45 a2.25 2.25 0 1 0 4.5 0 a2.25 2.25 0 1 0 -4.5 0zM1176.75 117 a2.25 2.25 0 1 0 4.5 0 a2.25 2.25 0 1 0 -4.5 0z" fill="black"></path><path d="M582.75 531 a2.25 2.25 0 1 0 4.5 0 a2.25 2.25 0 1 0 -4.5 0zM924.75 567 a2.25 2.25 0 1 0 4.5 0 a2.25 2.25 0 1 0 -4.5 0z" fill="black"></path><path d="M654.75 369 a2.25 2.25 0 1 0 4.5 0 a2.25 2.25 0 1 0 -4.5 0zM942.75 387 a2.25 2.25 0 1 0 4.5 0 a2.25 2.25 0 1 0 -4.5 0z" fill="black"></path><path d="M1014.75 477 a2.25 2.25 0 1 0 4.5 0 a2.25 2.25 0 1 0 -4.5 0zM1356.75 567 a2.25 2.25 0 1 0 4.5 0 a2.25 2.25 0 1 0 -4.5 0z" fill="black"></path><path d="M1122.75 117 a2.25 2.25 0 1 0 4.5 0 a2.25 2.25 0 1 0 -4.5 0zM906.75 153 a2.25 2.25 0 1 0 4.5 0 a2.25 2.25 0 1 0 -4.5 0z" fill="black"></path><path d="M1248.75 549 a2.25 2.25 0 1 0 4.5 0 a2.25 2.25 0 1 0 -4.5 0zM978.75 297 a2.25 2.25 0 1 0 4.5 0 a2.25 2.25 0 1 0 -4.5 0z" fill="black"></path><path d="M258.75 207 a2.25 2.25 0 1 0 4.5 0 a2.25 2.25 0 1 0 -4.5 0zM258.75 549 a2.25 2.25 0 1 0 4.5 0 a2.25 2.25 0 1 0 -4.5 0z" fill="black"></path><path d="M1248.75 171 a2.25 2.25 0 1 0 4.5 0 a2.25 2.25 0 1 0 -4.5 0zM1086.75 333 a2.25 2.25 0 1 0 4.5 0 a2.25 2.25 0 1 0 -4.5 0z" fill="black"></path><path d="M78.75 207 a2.25 2.25 0 1 0 4.5 0 a2.25 2.25 0 1 0 -4.5 0zM6.75 207 a2.25 2.25 0 1 0 4.5 0 a2.25 2.25 0 1 0 -4.5 0z" fill="black"></path><path d="M762.75 387 a2.25 2.25 0 1 0 4.5 0 a2.25 2.25 0 1 0 -4.5 0zM582.75 387 a2.25 2.25 0 1 0 4.5 0 a2.25 2.25 0 1 0 -4.5 0z" fill="black"></path><path d="M888.75 405 a2.25 2.25 0 1 0 4.5 0 a2.25 2.25 0 1 0 -4.5 0zM654.75 333 a2.25 2.25 0 1 0 4.5 0 a2.25 2.25 0 1 0 -4.5 0z" fill="black"></path><path d="M150.75 207 a2.25 2.25 0 1 0 4.5 0 a2.25 2.25 0 1 0 -4.5 0zM294.75 9 a2.25 2.25 0 1 0 4.5 0 a2.25 2.25 0 1 0 -4.5 0z" fill="black"></path><path d="M420.75 171 a2.25 2.25 0 1 0 4.5 0 a2.25 2.25 0 1 0 -4.5 0zM330.75 99 a2.25 2.25 0 1 0 4.5 0 a2.25 2.25 0 1 0 -4.5 0z" fill="black"></path><path d="M114.75 99 a2.25 2.25 0 1 0 4.5 0 a2.25 2.25 0 1 0 -4.5 0zM6.75 9 a2.25 2.25 0 1 0 4.5 0 a2.25 2.25 0 1 0 -4.5 0z" fill="black"></path><path d="M492.75 315 a2.25 2.25 0 1 0 4.5 0 a2.25 2.25 0 1 0 -4.5 0zM330.75 567 a2.25 2.25 0 1 0 4.5 0 a2.25 2.25 0 1 0 -4.5 0z" fill="black"></path><path d="M402.75 135 a2.25 2.25 0 1 0 4.5 0 a2.25 2.25 0 1 0 -4.5 0zM600.75 261 a2.25 2.25 0 1 0 4.5 0 a2.25 2.25 0 1 0 -4.5 0z" fill="black"></path><path d="M1374.75 63 a2.25 2.25 0 1 0 4.5 0 a2.25 2.25 0 1 0 -4.5 0zM1356.75 405 a2.25 2.25 0 1 0 4.5 0 a2.25 2.25 0 1 0 -4.5 0z" fill="black"></path><path d="M960.75 567 a2.25 2.25 0 1 0 4.5 0 a2.25 2.25 0 1 0 -4.5 0zM870.75 351 a2.25 2.25 0 1 0 4.5 0 a2.25 2.25 0 1 0 -4.5 0z" fill="black"></path><path d="M510.75 243 a2.25 2.25 0 1 0 4.5 0 a2.25 2.25 0 1 0 -4.5 0zM582.75 189 a2.25 2.25 0 1 0 4.5 0 a2.25 2.25 0 1 0 -4.5 0z" fill="black"></path><path d="M708.75 423 a2.25 2.25 0 1 0 4.5 0 a2.25 2.25 0 1 0 -4.5 0zM582.75 405 a2.25 2.25 0 1 0 4.5 0 a2.25 2.25 0 1 0 -4.5 0z" fill="black"></path><path d="M690.75 495 a2.25 2.25 0 1 0 4.5 0 a2.25 2.25 0 1 0 -4.5 0zM924.75 549 a2.25 2.25 0 1 0 4.5 0 a2.25 2.25 0 1 0 -4.5 0z" fill="black"></path><path d="M1266.75 171 a2.25 2.25 0 1 0 4.5 0 a2.25 2.25 0 1 0 -4.5 0zM1266.75 405 a2.25 2.25 0 1 0 4.5 0 a2.25 2.25 0 1 0 -4.5 0z" fill="black"></path><path d="M744.75 495 a2.25 2.25 0 1 0 4.5 0 a2.25 2.25 0 1 0 -4.5 0zM744.75 405 a2.25 2.25 0 1 0 4.5 0 a2.25 2.25 0 1 0 -4.5 0z" fill="black"></path><path d="M1068.75 495 a2.25 2.25 0 1 0 4.5 0 a2.25 2.25 0 1 0 -4.5 0zM1230.75 549 a2.25 2.25 0 1 0 4.5 0 a2.25 2.25 0 1 0 -4.5 0z" fill="black"></path><path d="M942.75 9 a2.25 2.25 0 1 0 4.5 0 a2.25 2.25 0 1 0 -4.5 0zM618.75 135 a2.25 2.25 0 1 0 4.5 0 a2.25 2.25 0 1 0 -4.5 0z" fill="black"></path><path d="M1068.75 9 a2.25 2.25 0 1 0 4.5 0 a2.25 2.25 0 1 0 -4.5 0zM834.75 135 a2.25 2.25 0 1 0 4.5 0 a2.25 2.25 0 1 0 -4.5 0z" fill="black"></path><path d="M672.75 27 a2.25 2.25 0 1 0 4.5 0 a2.25 2.25 0 1 0 -4.5 0zM330.75 45 a2.25 2.25 0 1 0 4.5 0 a2.25 2.25 0 1 0 -4.5 0z" fill="black"></path><path d="M294.75 549 a2.25 2.25 0 1 0 4.5 0 a2.25 2.25 0 1 0 -4.5 0zM294.75 207 a2.25 2.25 0 1 0 4.5 0 a2.25 2.25 0 1 0 -4.5 0z" fill="black"></path><path d="M276.75 405 a2.25 2.25 0 1 0 4.5 0 a2.25 2.25 0 1 0 -4.5 0zM258.75 225 a2.25 2.25 0 1 0 4.5 0 a2.25 2.25 0 1 0 -4.5 0z" fill="black"></path><path d="M564.75 423 a2.25 2.25 0 1 0 4.5 0 a2.25 2.25 0 1 0 -4.5 0zM366.75 567 a2.25 2.25 0 1 0 4.5 0 a2.25 2.25 0 1 0 -4.5 0z" fill="black"></path><path d="M42.75 351 a2.25 2.25 0 1 0 4.5 0 a2.25 2.25 0 1 0 -4.5 0zM294.75 567 a2.25 2.25 0 1 0 4.5 0 a2.25 2.25 0 1 0 -4.5 0z" fill="black"></path><path d="M960.75 243 a2.25 2.25 0 1 0 4.5 0 a2.25 2.25 0 1 0 -4.5 0zM618.75 207 a2.25 2.25 0 1 0 4.5 0 a2.25 2.25 0 1 0 -4.5 0z" fill="black"></path><path d="M906.75 333 a2.25 2.25 0 1 0 4.5 0 a2.25 2.25 0 1 0 -4.5 0zM960.75 333 a2.25 2.25 0 1 0 4.5 0 a2.25 2.25 0 1 0 -4.5 0z" fill="black"></path><path d="M456.75 441 a2.25 2.25 0 1 0 4.5 0 a2.25 2.25 0 1 0 -4.5 0zM330.75 549 a2.25 2.25 0 1 0 4.5 0 a2.25 2.25 0 1 0 -4.5 0z" fill="black"></path><path d="M942.75 279 a2.25 2.25 0 1 0 4.5 0 a2.25 2.25 0 1 0 -4.5 0zM942.75 315 a2.25 2.25 0 1 0 4.5 0 a2.25 2.25 0 1 0 -4.5 0z" fill="black"></path><path d="M1212.75 297 a2.25 2.25 0 1 0 4.5 0 a2.25 2.25 0 1 0 -4.5 0zM1392.75 297 a2.25 2.25 0 1 0 4.5 0 a2.25 2.25 0 1 0 -4.5 0z" fill="black"></path><path d="M510.75 351 a2.25 2.25 0 1 0 4.5 0 a2.25 2.25 0 1 0 -4.5 0zM312.75 459 a2.25 2.25 0 1 0 4.5 0 a2.25 2.25 0 1 0 -4.5 0z" fill="black"></path><path d="M510.75 135 a2.25 2.25 0 1 0 4.5 0 a2.25 2.25 0 1 0 -4.5 0zM564.75 135 a2.25 2.25 0 1 0 4.5 0 a2.25 2.25 0 1 0 -4.5 0z" fill="black"></path><path d="M474.75 567 a2.25 2.25 0 1 0 4.5 0 a2.25 2.25 0 1 0 -4.5 0zM384.75 567 a2.25 2.25 0 1 0 4.5 0 a2.25 2.25 0 1 0 -4.5 0z" fill="black"></path><path d="M942.75 441 a2.25 2.25 0 1 0 4.5 0 a2.25 2.25 0 1 0 -4.5 0zM1212.75 531 a2.25 2.25 0 1 0 4.5 0 a2.25 2.25 0 1 0 -4.5 0z" fill="black"></path><path d="M150.75 405 a2.25 2.25 0 1 0 4.5 0 a2.25 2.25 0 1 0 -4.5 0zM276.75 549 a2.25 2.25 0 1 0 4.5 0 a2.25 2.25 0 1 0 -4.5 0z" fill="black"></path><path d="M1284.75 423 a2.25 2.25 0 1 0 4.5 0 a2.25 2.25 0 1 0 -4.5 0zM1284.75 549 a2.25 2.25 0 1 0 4.5 0 a2.25 2.25 0 1 0 -4.5 0z" fill="black"></path><path d="M240.75 405 a2.25 2.25 0 1 0 4.5 0 a2.25 2.25 0 1 0 -4.5 0zM258.75 243 a2.25 2.25 0 1 0 4.5 0 a2.25 2.25 0 1 0 -4.5 0z" fill="black"></path><path d="M1284.75 81 a2.25 2.25 0 1 0 4.5 0 a2.25 2.25 0 1 0 -4.5 0zM1392.75 279 a2.25 2.25 0 1 0 4.5 0 a2.25 2.25 0 1 0 -4.5 0z" fill="black"></path><path d="M276.75 441 a2.25 2.25 0 1 0 4.5 0 a2.25 2.25 0 1 0 -4.5 0zM276.75 531 a2.25 2.25 0 1 0 4.5 0 a2.25 2.25 0 1 0 -4.5 0z" fill="black"></path><path d="M834.75 405 a2.25 2.25 0 1 0 4.5 0 a2.25 2.25 0 1 0 -4.5 0zM852.75 531 a2.25 2.25 0 1 0 4.5 0 a2.25 2.25 0 1 0 -4.5 0z" fill="black"></path><path d="M1086.75 99 a2.25 2.25 0 1 0 4.5 0 a2.25 2.25 0 1 0 -4.5 0zM1140.75 153 a2.25 2.25 0 1 0 4.5 0 a2.25 2.25 0 1 0 -4.5 0z" fill="black"></path><path d="M1338.75 513 a2.25 2.25 0 1 0 4.5 0 a2.25 2.25 0 1 0 -4.5 0zM1140.75 315 a2.25 2.25 0 1 0 4.5 0 a2.25 2.25 0 1 0 -4.5 0z" fill="black"></path><path d="M456.75 477 a2.25 2.25 0 1 0 4.5 0 a2.25 2.25 0 1 0 -4.5 0zM546.75 441 a2.25 2.25 0 1 0 4.5 0 a2.25 2.25 0 1 0 -4.5 0z" fill="black"></path><path d="M1122.75 9 a2.25 2.25 0 1 0 4.5 0 a2.25 2.25 0 1 0 -4.5 0zM1428.75 9 a2.25 2.25 0 1 0 4.5 0 a2.25 2.25 0 1 0 -4.5 0z" fill="black"></path><path d="M456.75 153 a2.25 2.25 0 1 0 4.5 0 a2.25 2.25 0 1 0 -4.5 0zM600.75 315 a2.25 2.25 0 1 0 4.5 0 a2.25 2.25 0 1 0 -4.5 0z" fill="black"></path><path d="M6.75 477 a2.25 2.25 0 1 0 4.5 0 a2.25 2.25 0 1 0 -4.5 0zM240.75 567 a2.25 2.25 0 1 0 4.5 0 a2.25 2.25 0 1 0 -4.5 0z" fill="black"></path><path d="M78.75 225 a2.25 2.25 0 1 0 4.5 0 a2.25 2.25 0 1 0 -4.5 0zM6.75 27 a2.25 2.25 0 1 0 4.5 0 a2.25 2.25 0 1 0 -4.5 0z" fill="black"></path><path d="M1248.75 261 a2.25 2.25 0 1 0 4.5 0 a2.25 2.25 0 1 0 -4.5 0zM1320.75 63 a2.25 2.25 0 1 0 4.5 0 a2.25 2.25 0 1 0 -4.5 0z" fill="black"></path><path d="M996.75 549 a2.25 2.25 0 1 0 4.5 0 a2.25 2.25 0 1 0 -4.5 0zM924.75 387 a2.25 2.25 0 1 0 4.5 0 a2.25 2.25 0 1 0 -4.5 0z" fill="black"></path><path d="M1230.75 135 a2.25 2.25 0 1 0 4.5 0 a2.25 2.25 0 1 0 -4.5 0zM1302.75 45 a2.25 2.25 0 1 0 4.5 0 a2.25 2.25 0 1 0 -4.5 0z" fill="black"></path><path d="M168.75 351 a2.25 2.25 0 1 0 4.5 0 a2.25 2.25 0 1 0 -4.5 0zM240.75 351 a2.25 2.25 0 1 0 4.5 0 a2.25 2.25 0 1 0 -4.5 0z" fill="black"></path><path d="M240.75 297 a2.25 2.25 0 1 0 4.5 0 a2.25 2.25 0 1 0 -4.5 0zM240.75 333 a2.25 2.25 0 1 0 4.5 0 a2.25 2.25 0 1 0 -4.5 0z" fill="black"></path><path d="M168.75 243 a2.25 2.25 0 1 0 4.5 0 a2.25 2.25 0 1 0 -4.5 0zM222.75 81 a2.25 2.25 0 1 0 4.5 0 a2.25 2.25 0 1 0 -4.5 0z" fill="black"></path><path d="M1284.75 153 a2.25 2.25 0 1 0 4.5 0 a2.25 2.25 0 1 0 -4.5 0zM978.75 189 a2.25 2.25 0 1 0 4.5 0 a2.25 2.25 0 1 0 -4.5 0z" fill="black"></path><path d="M240.75 9 a2.25 2.25 0 1 0 4.5 0 a2.25 2.25 0 1 0 -4.5 0zM240.75 45 a2.25 2.25 0 1 0 4.5 0 a2.25 2.25 0 1 0 -4.5 0z" fill="black"></path><path d="M546.75 549 a2.25 2.25 0 1 0 4.5 0 a2.25 2.25 0 1 0 -4.5 0zM708.75 567 a2.25 2.25 0 1 0 4.5 0 a2.25 2.25 0 1 0 -4.5 0z" fill="black"></path><path d="M654.75 495 a2.25 2.25 0 1 0 4.5 0 a2.25 2.25 0 1 0 -4.5 0zM546.75 477 a2.25 2.25 0 1 0 4.5 0 a2.25 2.25 0 1 0 -4.5 0z" fill="black"></path><path d="M762.75 423 a2.25 2.25 0 1 0 4.5 0 a2.25 2.25 0 1 0 -4.5 0zM762.75 531 a2.25 2.25 0 1 0 4.5 0 a2.25 2.25 0 1 0 -4.5 0z" fill="black"></path><path d="M1248.75 225 a2.25 2.25 0 1 0 4.5 0 a2.25 2.25 0 1 0 -4.5 0zM1158.75 297 a2.25 2.25 0 1 0 4.5 0 a2.25 2.25 0 1 0 -4.5 0z" fill="black"></path><path d="M1248.75 423 a2.25 2.25 0 1 0 4.5 0 a2.25 2.25 0 1 0 -4.5 0zM1266.75 549 a2.25 2.25 0 1 0 4.5 0 a2.25 2.25 0 1 0 -4.5 0z" fill="black"></path><path d="M1176.75 333 a2.25 2.25 0 1 0 4.5 0 a2.25 2.25 0 1 0 -4.5 0zM1122.75 333 a2.25 2.25 0 1 0 4.5 0 a2.25 2.25 0 1 0 -4.5 0z" fill="black"></path><path d="M1068.75 225 a2.25 2.25 0 1 0 4.5 0 a2.25 2.25 0 1 0 -4.5 0zM960.75 117 a2.25 2.25 0 1 0 4.5 0 a2.25 2.25 0 1 0 -4.5 0z" fill="black"></path><path d="M870.75 261 a2.25 2.25 0 1 0 4.5 0 a2.25 2.25 0 1 0 -4.5 0zM762.75 261 a2.25 2.25 0 1 0 4.5 0 a2.25 2.25 0 1 0 -4.5 0z" fill="black"></path><path d="M618.75 279 a2.25 2.25 0 1 0 4.5 0 a2.25 2.25 0 1 0 -4.5 0zM870.75 207 a2.25 2.25 0 1 0 4.5 0 a2.25 2.25 0 1 0 -4.5 0z" fill="black"></path><path d="M420.75 279 a2.25 2.25 0 1 0 4.5 0 a2.25 2.25 0 1 0 -4.5 0zM240.75 99 a2.25 2.25 0 1 0 4.5 0 a2.25 2.25 0 1 0 -4.5 0z" fill="black"></path><path d="M60.75 531 a2.25 2.25 0 1 0 4.5 0 a2.25 2.25 0 1 0 -4.5 0zM186.75 567 a2.25 2.25 0 1 0 4.5 0 a2.25 2.25 0 1 0 -4.5 0z" fill="black"></path><path d="M186.75 423 a2.25 2.25 0 1 0 4.5 0 a2.25 2.25 0 1 0 -4.5 0zM240.75 369 a2.25 2.25 0 1 0 4.5 0 a2.25 2.25 0 1 0 -4.5 0z" fill="black"></path><path d="M1014.75 171 a2.25 2.25 0 1 0 4.5 0 a2.25 2.25 0 1 0 -4.5 0zM1050.75 243 a2.25 2.25 0 1 0 4.5 0 a2.25 2.25 0 1 0 -4.5 0z" fill="black"></path><path d="M654.75 63 a2.25 2.25 0 1 0 4.5 0 a2.25 2.25 0 1 0 -4.5 0zM816.75 117 a2.25 2.25 0 1 0 4.5 0 a2.25 2.25 0 1 0 -4.5 0z" fill="black"></path><path d="M186.75 369 a2.25 2.25 0 1 0 4.5 0 a2.25 2.25 0 1 0 -4.5 0zM168.75 423 a2.25 2.25 0 1 0 4.5 0 a2.25 2.25 0 1 0 -4.5 0z" fill="black"></path><path d="M1014.75 207 a2.25 2.25 0 1 0 4.5 0 a2.25 2.25 0 1 0 -4.5 0zM1032.75 243 a2.25 2.25 0 1 0 4.5 0 a2.25 2.25 0 1 0 -4.5 0z" fill="black"></path><path d="M1230.75 99 a2.25 2.25 0 1 0 4.5 0 a2.25 2.25 0 1 0 -4.5 0zM1194.75 135 a2.25 2.25 0 1 0 4.5 0 a2.25 2.25 0 1 0 -4.5 0z" fill="black"></path><path d="M528.75 171 a2.25 2.25 0 1 0 4.5 0 a2.25 2.25 0 1 0 -4.5 0zM456.75 117 a2.25 2.25 0 1 0 4.5 0 a2.25 2.25 0 1 0 -4.5 0z" fill="black"></path><path d="M150.75 369 a2.25 2.25 0 1 0 4.5 0 a2.25 2.25 0 1 0 -4.5 0zM132.75 405 a2.25 2.25 0 1 0 4.5 0 a2.25 2.25 0 1 0 -4.5 0z" fill="black"></path><path d="M1104.75 477 a2.25 2.25 0 1 0 4.5 0 a2.25 2.25 0 1 0 -4.5 0zM978.75 423 a2.25 2.25 0 1 0 4.5 0 a2.25 2.25 0 1 0 -4.5 0z" fill="black"></path><path d="M1014.75 99 a2.25 2.25 0 1 0 4.5 0 a2.25 2.25 0 1 0 -4.5 0zM1104.75 81 a2.25 2.25 0 1 0 4.5 0 a2.25 2.25 0 1 0 -4.5 0z" fill="black"></path><path d="M312.75 315 a2.25 2.25 0 1 0 4.5 0 a2.25 2.25 0 1 0 -4.5 0zM312.75 387 a2.25 2.25 0 1 0 4.5 0 a2.25 2.25 0 1 0 -4.5 0z" fill="black"></path><path d="M870.75 63 a2.25 2.25 0 1 0 4.5 0 a2.25 2.25 0 1 0 -4.5 0zM924.75 9 a2.25 2.25 0 1 0 4.5 0 a2.25 2.25 0 1 0 -4.5 0z" fill="black"></path><path d="M474.75 423 a2.25 2.25 0 1 0 4.5 0 a2.25 2.25 0 1 0 -4.5 0zM384.75 423 a2.25 2.25 0 1 0 4.5 0 a2.25 2.25 0 1 0 -4.5 0z" fill="black"></path><path d="M1014.75 567 a2.25 2.25 0 1 0 4.5 0 a2.25 2.25 0 1 0 -4.5 0zM960.75 441 a2.25 2.25 0 1 0 4.5 0 a2.25 2.25 0 1 0 -4.5 0z" fill="black"></path><path d="M384.75 369 a2.25 2.25 0 1 0 4.5 0 a2.25 2.25 0 1 0 -4.5 0zM330.75 441 a2.25 2.25 0 1 0 4.5 0 a2.25 2.25 0 1 0 -4.5 0z" fill="black"></path><path d="M1122.75 45 a2.25 2.25 0 1 0 4.5 0 a2.25 2.25 0 1 0 -4.5 0zM1230.75 63 a2.25 2.25 0 1 0 4.5 0 a2.25 2.25 0 1 0 -4.5 0z" fill="black"></path><path d="M798.75 387 a2.25 2.25 0 1 0 4.5 0 a2.25 2.25 0 1 0 -4.5 0zM816.75 531 a2.25 2.25 0 1 0 4.5 0 a2.25 2.25 0 1 0 -4.5 0z" fill="black"></path><path d="M978.75 387 a2.25 2.25 0 1 0 4.5 0 a2.25 2.25 0 1 0 -4.5 0zM996.75 531 a2.25 2.25 0 1 0 4.5 0 a2.25 2.25 0 1 0 -4.5 0z" fill="black"></path><path d="M1104.75 261 a2.25 2.25 0 1 0 4.5 0 a2.25 2.25 0 1 0 -4.5 0zM1230.75 171 a2.25 2.25 0 1 0 4.5 0 a2.25 2.25 0 1 0 -4.5 0z" fill="black"></path><path d="M438.75 261 a2.25 2.25 0 1 0 4.5 0 a2.25 2.25 0 1 0 -4.5 0zM438.75 189 a2.25 2.25 0 1 0 4.5 0 a2.25 2.25 0 1 0 -4.5 0z" fill="black"></path><path d="M888.75 297 a2.25 2.25 0 1 0 4.5 0 a2.25 2.25 0 1 0 -4.5 0zM1014.75 369 a2.25 2.25 0 1 0 4.5 0 a2.25 2.25 0 1 0 -4.5 0z" fill="black"></path><path d="M114.75 63 a2.25 2.25 0 1 0 4.5 0 a2.25 2.25 0 1 0 -4.5 0zM114.75 9 a2.25 2.25 0 1 0 4.5 0 a2.25 2.25 0 1 0 -4.5 0z" fill="black"></path><path d="M42.75 135 a2.25 2.25 0 1 0 4.5 0 a2.25 2.25 0 1 0 -4.5 0zM78.75 99 a2.25 2.25 0 1 0 4.5 0 a2.25 2.25 0 1 0 -4.5 0z" fill="black"></path><path d="M1428.75 495 a2.25 2.25 0 1 0 4.5 0 a2.25 2.25 0 1 0 -4.5 0zM1320.75 315 a2.25 2.25 0 1 0 4.5 0 a2.25 2.25 0 1 0 -4.5 0z" fill="black"></path><path d="M1410.75 369 a2.25 2.25 0 1 0 4.5 0 a2.25 2.25 0 1 0 -4.5 0zM1428.75 441 a2.25 2.25 0 1 0 4.5 0 a2.25 2.25 0 1 0 -4.5 0z" fill="black"></path><path d="M1086.75 189 a2.25 2.25 0 1 0 4.5 0 a2.25 2.25 0 1 0 -4.5 0zM1068.75 81 a2.25 2.25 0 1 0 4.5 0 a2.25 2.25 0 1 0 -4.5 0z" fill="black"></path><path d="M1392.75 567 a2.25 2.25 0 1 0 4.5 0 a2.25 2.25 0 1 0 -4.5 0zM1428.75 567 a2.25 2.25 0 1 0 4.5 0 a2.25 2.25 0 1 0 -4.5 0z" fill="black"></path><path d="M60.75 333 a2.25 2.25 0 1 0 4.5 0 a2.25 2.25 0 1 0 -4.5 0zM96.75 387 a2.25 2.25 0 1 0 4.5 0 a2.25 2.25 0 1 0 -4.5 0z" fill="black"></path><path d="M1302.75 117 a2.25 2.25 0 1 0 4.5 0 a2.25 2.25 0 1 0 -4.5 0zM1248.75 135 a2.25 2.25 0 1 0 4.5 0 a2.25 2.25 0 1 0 -4.5 0z" fill="black"></path><path d="M1122.75 153 a2.25 2.25 0 1 0 4.5 0 a2.25 2.25 0 1 0 -4.5 0zM1104.75 189 a2.25 2.25 0 1 0 4.5 0 a2.25 2.25 0 1 0 -4.5 0z" fill="black"></path><path d="M402.75 207 a2.25 2.25 0 1 0 4.5 0 a2.25 2.25 0 1 0 -4.5 0zM222.75 117 a2.25 2.25 0 1 0 4.5 0 a2.25 2.25 0 1 0 -4.5 0z" fill="black"></path><path d="M474.75 243 a2.25 2.25 0 1 0 4.5 0 a2.25 2.25 0 1 0 -4.5 0zM456.75 207 a2.25 2.25 0 1 0 4.5 0 a2.25 2.25 0 1 0 -4.5 0z" fill="black"></path><path d="M204.75 315 a2.25 2.25 0 1 0 4.5 0 a2.25 2.25 0 1 0 -4.5 0zM168.75 333 a2.25 2.25 0 1 0 4.5 0 a2.25 2.25 0 1 0 -4.5 0z" fill="black"></path><path d="M726.75 441 a2.25 2.25 0 1 0 4.5 0 a2.25 2.25 0 1 0 -4.5 0zM744.75 531 a2.25 2.25 0 1 0 4.5 0 a2.25 2.25 0 1 0 -4.5 0z" fill="black"></path><path d="M1302.75 135 a2.25 2.25 0 1 0 4.5 0 a2.25 2.25 0 1 0 -4.5 0zM1248.75 207 a2.25 2.25 0 1 0 4.5 0 a2.25 2.25 0 1 0 -4.5 0z" fill="black"></path><path d="M1032.75 531 a2.25 2.25 0 1 0 4.5 0 a2.25 2.25 0 1 0 -4.5 0zM1086.75 567 a2.25 2.25 0 1 0 4.5 0 a2.25 2.25 0 1 0 -4.5 0z" fill="black"></path><path d="M42.75 81 a2.25 2.25 0 1 0 4.5 0 a2.25 2.25 0 1 0 -4.5 0zM6.75 189 a2.25 2.25 0 1 0 4.5 0 a2.25 2.25 0 1 0 -4.5 0z" fill="black"></path><path d="M1356.75 171 a2.25 2.25 0 1 0 4.5 0 a2.25 2.25 0 1 0 -4.5 0zM1374.75 243 a2.25 2.25 0 1 0 4.5 0 a2.25 2.25 0 1 0 -4.5 0z" fill="black"></path><path d="M258.75 189 a2.25 2.25 0 1 0 4.5 0 a2.25 2.25 0 1 0 -4.5 0zM204.75 135 a2.25 2.25 0 1 0 4.5 0 a2.25 2.25 0 1 0 -4.5 0z" fill="black"></path><path d="M960.75 531 a2.25 2.25 0 1 0 4.5 0 a2.25 2.25 0 1 0 -4.5 0zM978.75 495 a2.25 2.25 0 1 0 4.5 0 a2.25 2.25 0 1 0 -4.5 0z" fill="black"></path><path d="M24.75 279 a2.25 2.25 0 1 0 4.5 0 a2.25 2.25 0 1 0 -4.5 0zM6.75 459 a2.25 2.25 0 1 0 4.5 0 a2.25 2.25 0 1 0 -4.5 0z" fill="black"></path><path d="M132.75 207 a2.25 2.25 0 1 0 4.5 0 a2.25 2.25 0 1 0 -4.5 0zM78.75 351 a2.25 2.25 0 1 0 4.5 0 a2.25 2.25 0 1 0 -4.5 0z" fill="black"></path><path d="M132.75 153 a2.25 2.25 0 1 0 4.5 0 a2.25 2.25 0 1 0 -4.5 0zM132.75 189 a2.25 2.25 0 1 0 4.5 0 a2.25 2.25 0 1 0 -4.5 0z" fill="black"></path><path d="M1158.75 243 a2.25 2.25 0 1 0 4.5 0 a2.25 2.25 0 1 0 -4.5 0zM1212.75 189 a2.25 2.25 0 1 0 4.5 0 a2.25 2.25 0 1 0 -4.5 0z" fill="black"></path><path d="M1428.75 81 a2.25 2.25 0 1 0 4.5 0 a2.25 2.25 0 1 0 -4.5 0zM1392.75 63 a2.25 2.25 0 1 0 4.5 0 a2.25 2.25 0 1 0 -4.5 0z" fill="black"></path><path d="M780.75 189 a2.25 2.25 0 1 0 4.5 0 a2.25 2.25 0 1 0 -4.5 0zM852.75 207 a2.25 2.25 0 1 0 4.5 0 a2.25 2.25 0 1 0 -4.5 0z" fill="black"></path><path d="M834.75 63 a2.25 2.25 0 1 0 4.5 0 a2.25 2.25 0 1 0 -4.5 0zM834.75 9 a2.25 2.25 0 1 0 4.5 0 a2.25 2.25 0 1 0 -4.5 0z" fill="black"></path><path d="M348.75 315 a2.25 2.25 0 1 0 4.5 0 a2.25 2.25 0 1 0 -4.5 0zM330.75 369 a2.25 2.25 0 1 0 4.5 0 a2.25 2.25 0 1 0 -4.5 0z" fill="black"></path><path d="M42.75 279 a2.25 2.25 0 1 0 4.5 0 a2.25 2.25 0 1 0 -4.5 0zM96.75 333 a2.25 2.25 0 1 0 4.5 0 a2.25 2.25 0 1 0 -4.5 0z" fill="black"></path><path d="M420.75 81 a2.25 2.25 0 1 0 4.5 0 a2.25 2.25 0 1 0 -4.5 0zM348.75 81 a2.25 2.25 0 1 0 4.5 0 a2.25 2.25 0 1 0 -4.5 0z" fill="black"></path><path d="M1320.75 207 a2.25 2.25 0 1 0 4.5 0 a2.25 2.25 0 1 0 -4.5 0zM1176.75 297 a2.25 2.25 0 1 0 4.5 0 a2.25 2.25 0 1 0 -4.5 0z" fill="black"></path><path d="M690.75 351 a2.25 2.25 0 1 0 4.5 0 a2.25 2.25 0 1 0 -4.5 0zM852.75 351 a2.25 2.25 0 1 0 4.5 0 a2.25 2.25 0 1 0 -4.5 0z" fill="black"></path><path d="M726.75 45 a2.25 2.25 0 1 0 4.5 0 a2.25 2.25 0 1 0 -4.5 0zM816.75 45 a2.25 2.25 0 1 0 4.5 0 a2.25 2.25 0 1 0 -4.5 0z" fill="black"></path><path d="M6.75 513 a2.25 2.25 0 1 0 4.5 0 a2.25 2.25 0 1 0 -4.5 0zM150.75 549 a2.25 2.25 0 1 0 4.5 0 a2.25 2.25 0 1 0 -4.5 0z" fill="black"></path><path d="M798.75 405 a2.25 2.25 0 1 0 4.5 0 a2.25 2.25 0 1 0 -4.5 0zM654.75 351 a2.25 2.25 0 1 0 4.5 0 a2.25 2.25 0 1 0 -4.5 0z" fill="black"></path><path d="M636.75 567 a2.25 2.25 0 1 0 4.5 0 a2.25 2.25 0 1 0 -4.5 0zM474.75 549 a2.25 2.25 0 1 0 4.5 0 a2.25 2.25 0 1 0 -4.5 0z" fill="black"></path><path d="M1194.75 441 a2.25 2.25 0 1 0 4.5 0 a2.25 2.25 0 1 0 -4.5 0zM1230.75 441 a2.25 2.25 0 1 0 4.5 0 a2.25 2.25 0 1 0 -4.5 0z" fill="black"></path><path d="M1338.75 117 a2.25 2.25 0 1 0 4.5 0 a2.25 2.25 0 1 0 -4.5 0zM1374.75 117 a2.25 2.25 0 1 0 4.5 0 a2.25 2.25 0 1 0 -4.5 0z" fill="black"></path><path d="M1086.75 297 a2.25 2.25 0 1 0 4.5 0 a2.25 2.25 0 1 0 -4.5 0zM1086.75 261 a2.25 2.25 0 1 0 4.5 0 a2.25 2.25 0 1 0 -4.5 0z" fill="black"></path><path d="M690.75 117 a2.25 2.25 0 1 0 4.5 0 a2.25 2.25 0 1 0 -4.5 0zM582.75 81 a2.25 2.25 0 1 0 4.5 0 a2.25 2.25 0 1 0 -4.5 0z" fill="black"></path><path d="M1212.75 495 a2.25 2.25 0 1 0 4.5 0 a2.25 2.25 0 1 0 -4.5 0zM1158.75 441 a2.25 2.25 0 1 0 4.5 0 a2.25 2.25 0 1 0 -4.5 0z" fill="black"></path><path d="M906.75 99 a2.25 2.25 0 1 0 4.5 0 a2.25 2.25 0 1 0 -4.5 0zM978.75 63 a2.25 2.25 0 1 0 4.5 0 a2.25 2.25 0 1 0 -4.5 0z" fill="black"></path><path d="M816.75 279 a2.25 2.25 0 1 0 4.5 0 a2.25 2.25 0 1 0 -4.5 0zM852.75 261 a2.25 2.25 0 1 0 4.5 0 a2.25 2.25 0 1 0 -4.5 0z" fill="black"></path><path d="M654.75 243 a2.25 2.25 0 1 0 4.5 0 a2.25 2.25 0 1 0 -4.5 0zM726.75 189 a2.25 2.25 0 1 0 4.5 0 a2.25 2.25 0 1 0 -4.5 0z" fill="black"></path><path d="M978.75 27 a2.25 2.25 0 1 0 4.5 0 a2.25 2.25 0 1 0 -4.5 0zM1050.75 9 a2.25 2.25 0 1 0 4.5 0 a2.25 2.25 0 1 0 -4.5 0z" fill="black"></path><path d="M1428.75 369 a2.25 2.25 0 1 0 4.5 0 a2.25 2.25 0 1 0 -4.5 0zM1428.75 423 a2.25 2.25 0 1 0 4.5 0 a2.25 2.25 0 1 0 -4.5 0z" fill="black"></path><path d="M654.75 153 a2.25 2.25 0 1 0 4.5 0 a2.25 2.25 0 1 0 -4.5 0zM618.75 153 a2.25 2.25 0 1 0 4.5 0 a2.25 2.25 0 1 0 -4.5 0z" fill="black"></path><path d="M1374.75 171 a2.25 2.25 0 1 0 4.5 0 a2.25 2.25 0 1 0 -4.5 0zM1284.75 99 a2.25 2.25 0 1 0 4.5 0 a2.25 2.25 0 1 0 -4.5 0z" fill="black"></path><path d="M168.75 45 a2.25 2.25 0 1 0 4.5 0 a2.25 2.25 0 1 0 -4.5 0zM132.75 45 a2.25 2.25 0 1 0 4.5 0 a2.25 2.25 0 1 0 -4.5 0z" fill="black"></path><path d="M1266.75 333 a2.25 2.25 0 1 0 4.5 0 a2.25 2.25 0 1 0 -4.5 0zM1122.75 351 a2.25 2.25 0 1 0 4.5 0 a2.25 2.25 0 1 0 -4.5 0z" fill="black"></path><path d="M132.75 333 a2.25 2.25 0 1 0 4.5 0 a2.25 2.25 0 1 0 -4.5 0zM96.75 369 a2.25 2.25 0 1 0 4.5 0 a2.25 2.25 0 1 0 -4.5 0z" fill="black"></path><path d="M240.75 387 a2.25 2.25 0 1 0 4.5 0 a2.25 2.25 0 1 0 -4.5 0zM204.75 387 a2.25 2.25 0 1 0 4.5 0 a2.25 2.25 0 1 0 -4.5 0z" fill="black"></path><path d="M1032.75 423 a2.25 2.25 0 1 0 4.5 0 a2.25 2.25 0 1 0 -4.5 0zM1032.75 459 a2.25 2.25 0 1 0 4.5 0 a2.25 2.25 0 1 0 -4.5 0z" fill="black"></path><path d="M384.75 279 a2.25 2.25 0 1 0 4.5 0 a2.25 2.25 0 1 0 -4.5 0zM312.75 279 a2.25 2.25 0 1 0 4.5 0 a2.25 2.25 0 1 0 -4.5 0z" fill="black"></path><path d="M1338.75 531 a2.25 2.25 0 1 0 4.5 0 a2.25 2.25 0 1 0 -4.5 0zM1302.75 531 a2.25 2.25 0 1 0 4.5 0 a2.25 2.25 0 1 0 -4.5 0z" fill="black"></path><path d="M402.75 333 a2.25 2.25 0 1 0 4.5 0 a2.25 2.25 0 1 0 -4.5 0zM528.75 333 a2.25 2.25 0 1 0 4.5 0 a2.25 2.25 0 1 0 -4.5 0z" fill="black"></path><path d="M204.75 297 a2.25 2.25 0 1 0 4.5 0 a2.25 2.25 0 1 0 -4.5 0zM168.75 315 a2.25 2.25 0 1 0 4.5 0 a2.25 2.25 0 1 0 -4.5 0z" fill="black"></path><path d="M996.75 117 a2.25 2.25 0 1 0 4.5 0 a2.25 2.25 0 1 0 -4.5 0zM1086.75 171 a2.25 2.25 0 1 0 4.5 0 a2.25 2.25 0 1 0 -4.5 0z" fill="black"></path><path d="M1248.75 513 a2.25 2.25 0 1 0 4.5 0 a2.25 2.25 0 1 0 -4.5 0zM1266.75 477 a2.25 2.25 0 1 0 4.5 0 a2.25 2.25 0 1 0 -4.5 0z" fill="black"></path><path d="M762.75 27 a2.25 2.25 0 1 0 4.5 0 a2.25 2.25 0 1 0 -4.5 0zM456.75 45 a2.25 2.25 0 1 0 4.5 0 a2.25 2.25 0 1 0 -4.5 0z" fill="black"></path><path d="M942.75 63 a2.25 2.25 0 1 0 4.5 0 a2.25 2.25 0 1 0 -4.5 0zM906.75 81 a2.25 2.25 0 1 0 4.5 0 a2.25 2.25 0 1 0 -4.5 0z" fill="black"></path><path d="M474.75 369 a2.25 2.25 0 1 0 4.5 0 a2.25 2.25 0 1 0 -4.5 0zM366.75 387 a2.25 2.25 0 1 0 4.5 0 a2.25 2.25 0 1 0 -4.5 0z" fill="black"></path><path d="M240.75 495 a2.25 2.25 0 1 0 4.5 0 a2.25 2.25 0 1 0 -4.5 0zM204.75 405 a2.25 2.25 0 1 0 4.5 0 a2.25 2.25 0 1 0 -4.5 0z" fill="black"></path><path d="M24.75 153 a2.25 2.25 0 1 0 4.5 0 a2.25 2.25 0 1 0 -4.5 0zM60.75 81 a2.25 2.25 0 1 0 4.5 0 a2.25 2.25 0 1 0 -4.5 0z" fill="black"></path><path d="M1158.75 513 a2.25 2.25 0 1 0 4.5 0 a2.25 2.25 0 1 0 -4.5 0zM1122.75 513 a2.25 2.25 0 1 0 4.5 0 a2.25 2.25 0 1 0 -4.5 0z" fill="black"></path><path d="M1086.75 27 a2.25 2.25 0 1 0 4.5 0 a2.25 2.25 0 1 0 -4.5 0zM1212.75 63 a2.25 2.25 0 1 0 4.5 0 a2.25 2.25 0 1 0 -4.5 0z" fill="black"></path><path d="M42.75 63 a2.25 2.25 0 1 0 4.5 0 a2.25 2.25 0 1 0 -4.5 0zM6.75 99 a2.25 2.25 0 1 0 4.5 0 a2.25 2.25 0 1 0 -4.5 0z" fill="black"></path><path d="M348.75 261 a2.25 2.25 0 1 0 4.5 0 a2.25 2.25 0 1 0 -4.5 0zM312.75 225 a2.25 2.25 0 1 0 4.5 0 a2.25 2.25 0 1 0 -4.5 0z" fill="black"></path><path d="M582.75 243 a2.25 2.25 0 1 0 4.5 0 a2.25 2.25 0 1 0 -4.5 0zM474.75 117 a2.25 2.25 0 1 0 4.5 0 a2.25 2.25 0 1 0 -4.5 0z" fill="black"></path><path d="M780.75 495 a2.25 2.25 0 1 0 4.5 0 a2.25 2.25 0 1 0 -4.5 0zM780.75 531 a2.25 2.25 0 1 0 4.5 0 a2.25 2.25 0 1 0 -4.5 0z" fill="black"></path><path d="M1050.75 153 a2.25 2.25 0 1 0 4.5 0 a2.25 2.25 0 1 0 -4.5 0zM1014.75 135 a2.25 2.25 0 1 0 4.5 0 a2.25 2.25 0 1 0 -4.5 0z" fill="black"></path><path d="M132.75 27 a2.25 2.25 0 1 0 4.5 0 a2.25 2.25 0 1 0 -4.5 0zM186.75 27 a2.25 2.25 0 1 0 4.5 0 a2.25 2.25 0 1 0 -4.5 0z" fill="black"></path><path d="M762.75 9 a2.25 2.25 0 1 0 4.5 0 a2.25 2.25 0 1 0 -4.5 0zM816.75 27 a2.25 2.25 0 1 0 4.5 0 a2.25 2.25 0 1 0 -4.5 0z" fill="black"></path><path d="M1356.75 27 a2.25 2.25 0 1 0 4.5 0 a2.25 2.25 0 1 0 -4.5 0zM1428.75 27 a2.25 2.25 0 1 0 4.5 0 a2.25 2.25 0 1 0 -4.5 0z" fill="black"></path><path d="M1374.75 351 a2.25 2.25 0 1 0 4.5 0 a2.25 2.25 0 1 0 -4.5 0zM1338.75 315 a2.25 2.25 0 1 0 4.5 0 a2.25 2.25 0 1 0 -4.5 0z" fill="black"></path><path d="M1338.75 549 a2.25 2.25 0 1 0 4.5 0 a2.25 2.25 0 1 0 -4.5 0zM1428.75 549 a2.25 2.25 0 1 0 4.5 0 a2.25 2.25 0 1 0 -4.5 0z" fill="black"></path><path d="M960.75 153 a2.25 2.25 0 1 0 4.5 0 a2.25 2.25 0 1 0 -4.5 0zM960.75 207 a2.25 2.25 0 1 0 4.5 0 a2.25 2.25 0 1 0 -4.5 0z" fill="black"></path><path d="M1338.75 207 a2.25 2.25 0 1 0 4.5 0 a2.25 2.25 0 1 0 -4.5 0zM1302.75 171 a2.25 2.25 0 1 0 4.5 0 a2.25 2.25 0 1 0 -4.5 0z" fill="black"></path><path d="M492.75 45 a2.25 2.25 0 1 0 4.5 0 a2.25 2.25 0 1 0 -4.5 0zM546.75 45 a2.25 2.25 0 1 0 4.5 0 a2.25 2.25 0 1 0 -4.5 0z" fill="black"></path><path d="M1140.75 99 a2.25 2.25 0 1 0 4.5 0 a2.25 2.25 0 1 0 -4.5 0zM1158.75 135 a2.25 2.25 0 1 0 4.5 0 a2.25 2.25 0 1 0 -4.5 0z" fill="black"></path><path d="M1320.75 441 a2.25 2.25 0 1 0 4.5 0 a2.25 2.25 0 1 0 -4.5 0zM1428.75 531 a2.25 2.25 0 1 0 4.5 0 a2.25 2.25 0 1 0 -4.5 0z" fill="black"></path><path d="M510.75 297 a2.25 2.25 0 1 0 4.5 0 a2.25 2.25 0 1 0 -4.5 0zM438.75 297 a2.25 2.25 0 1 0 4.5 0 a2.25 2.25 0 1 0 -4.5 0z" fill="black"></path><path d="M1122.75 459 a2.25 2.25 0 1 0 4.5 0 a2.25 2.25 0 1 0 -4.5 0zM1158.75 495 a2.25 2.25 0 1 0 4.5 0 a2.25 2.25 0 1 0 -4.5 0z" fill="black"></path><path d="M564.75 531 a2.25 2.25 0 1 0 4.5 0 a2.25 2.25 0 1 0 -4.5 0zM510.75 513 a2.25 2.25 0 1 0 4.5 0 a2.25 2.25 0 1 0 -4.5 0z" fill="black"></path><path d="M60.75 261 a2.25 2.25 0 1 0 4.5 0 a2.25 2.25 0 1 0 -4.5 0zM24.75 225 a2.25 2.25 0 1 0 4.5 0 a2.25 2.25 0 1 0 -4.5 0z" fill="black"></path><path d="M1356.75 207 a2.25 2.25 0 1 0 4.5 0 a2.25 2.25 0 1 0 -4.5 0zM1320.75 135 a2.25 2.25 0 1 0 4.5 0 a2.25 2.25 0 1 0 -4.5 0z" fill="black"></path><path d="M6.75 567 a2.25 2.25 0 1 0 4.5 0 a2.25 2.25 0 1 0 -4.5 0zM60.75 513 a2.25 2.25 0 1 0 4.5 0 a2.25 2.25 0 1 0 -4.5 0z" fill="black"></path><path d="M1248.75 387 a2.25 2.25 0 1 0 4.5 0 a2.25 2.25 0 1 0 -4.5 0zM1284.75 351 a2.25 2.25 0 1 0 4.5 0 a2.25 2.25 0 1 0 -4.5 0z" fill="black"></path><path d="M6.75 315 a2.25 2.25 0 1 0 4.5 0 a2.25 2.25 0 1 0 -4.5 0zM42.75 243 a2.25 2.25 0 1 0 4.5 0 a2.25 2.25 0 1 0 -4.5 0z" fill="black"></path><path d="M1068.75 351 a2.25 2.25 0 1 0 4.5 0 a2.25 2.25 0 1 0 -4.5 0zM1032.75 369 a2.25 2.25 0 1 0 4.5 0 a2.25 2.25 0 1 0 -4.5 0z" fill="black"></path><path d="M312.75 81 a2.25 2.25 0 1 0 4.5 0 a2.25 2.25 0 1 0 -4.5 0zM258.75 81 a2.25 2.25 0 1 0 4.5 0 a2.25 2.25 0 1 0 -4.5 0z" fill="black"></path><path d="M1338.75 387 a2.25 2.25 0 1 0 4.5 0 a2.25 2.25 0 1 0 -4.5 0zM1356.75 351 a2.25 2.25 0 1 0 4.5 0 a2.25 2.25 0 1 0 -4.5 0z" fill="black"></path><path d="M6.75 81 a2.25 2.25 0 1 0 4.5 0 a2.25 2.25 0 1 0 -4.5 0zM24.75 45 a2.25 2.25 0 1 0 4.5 0 a2.25 2.25 0 1 0 -4.5 0z" fill="black"></path><path d="M24.75 441 a2.25 2.25 0 1 0 4.5 0 a2.25 2.25 0 1 0 -4.5 0zM222.75 549 a2.25 2.25 0 1 0 4.5 0 a2.25 2.25 0 1 0 -4.5 0z" fill="black"></path><path d="M816.75 387 a2.25 2.25 0 1 0 4.5 0 a2.25 2.25 0 1 0 -4.5 0zM852.75 387 a2.25 2.25 0 1 0 4.5 0 a2.25 2.25 0 1 0 -4.5 0z" fill="black"></path><path d="M366.75 333 a2.25 2.25 0 1 0 4.5 0 a2.25 2.25 0 1 0 -4.5 0zM348.75 243 a2.25 2.25 0 1 0 4.5 0 a2.25 2.25 0 1 0 -4.5 0z" fill="black"></path><path d="M906.75 9 a2.25 2.25 0 1 0 4.5 0 a2.25 2.25 0 1 0 -4.5 0zM852.75 45 a2.25 2.25 0 1 0 4.5 0 a2.25 2.25 0 1 0 -4.5 0z" fill="black"></path><path d="M636.75 495 a2.25 2.25 0 1 0 4.5 0 a2.25 2.25 0 1 0 -4.5 0zM600.75 459 a2.25 2.25 0 1 0 4.5 0 a2.25 2.25 0 1 0 -4.5 0z" fill="black"></path><path d="M618.75 423 a2.25 2.25 0 1 0 4.5 0 a2.25 2.25 0 1 0 -4.5 0zM726.75 405 a2.25 2.25 0 1 0 4.5 0 a2.25 2.25 0 1 0 -4.5 0z" fill="black"></path><path d="M420.75 99 a2.25 2.25 0 1 0 4.5 0 a2.25 2.25 0 1 0 -4.5 0zM384.75 99 a2.25 2.25 0 1 0 4.5 0 a2.25 2.25 0 1 0 -4.5 0z" fill="black"></path><path d="M888.75 135 a2.25 2.25 0 1 0 4.5 0 a2.25 2.25 0 1 0 -4.5 0zM924.75 117 a2.25 2.25 0 1 0 4.5 0 a2.25 2.25 0 1 0 -4.5 0z" fill="black"></path><path d="M60.75 153 a2.25 2.25 0 1 0 4.5 0 a2.25 2.25 0 1 0 -4.5 0zM78.75 117 a2.25 2.25 0 1 0 4.5 0 a2.25 2.25 0 1 0 -4.5 0z" fill="black"></path><path d="M1320.75 279 a2.25 2.25 0 1 0 4.5 0 a2.25 2.25 0 1 0 -4.5 0zM1212.75 279 a2.25 2.25 0 1 0 4.5 0 a2.25 2.25 0 1 0 -4.5 0z" fill="black"></path><path d="M816.75 81 a2.25 2.25 0 1 0 4.5 0 a2.25 2.25 0 1 0 -4.5 0zM852.75 81 a2.25 2.25 0 1 0 4.5 0 a2.25 2.25 0 1 0 -4.5 0z" fill="black"></path><path d="M78.75 171 a2.25 2.25 0 1 0 4.5 0 a2.25 2.25 0 1 0 -4.5 0zM24.75 171 a2.25 2.25 0 1 0 4.5 0 a2.25 2.25 0 1 0 -4.5 0z" fill="black"></path><path d="M384.75 459 a2.25 2.25 0 1 0 4.5 0 a2.25 2.25 0 1 0 -4.5 0zM402.75 495 a2.25 2.25 0 1 0 4.5 0 a2.25 2.25 0 1 0 -4.5 0z" fill="black"></path><path d="M132.75 549 a2.25 2.25 0 1 0 4.5 0 a2.25 2.25 0 1 0 -4.5 0zM78.75 531 a2.25 2.25 0 1 0 4.5 0 a2.25 2.25 0 1 0 -4.5 0z" fill="black"></path><path d="M1212.75 369 a2.25 2.25 0 1 0 4.5 0 a2.25 2.25 0 1 0 -4.5 0zM1230.75 333 a2.25 2.25 0 1 0 4.5 0 a2.25 2.25 0 1 0 -4.5 0z" fill="black"></path><path d="M1266.75 207 a2.25 2.25 0 1 0 4.5 0 a2.25 2.25 0 1 0 -4.5 0zM1302.75 189 a2.25 2.25 0 1 0 4.5 0 a2.25 2.25 0 1 0 -4.5 0z" fill="black"></path><path d="M636.75 81 a2.25 2.25 0 1 0 4.5 0 a2.25 2.25 0 1 0 -4.5 0zM744.75 81 a2.25 2.25 0 1 0 4.5 0 a2.25 2.25 0 1 0 -4.5 0z" fill="black"></path><path d="M726.75 117 a2.25 2.25 0 1 0 4.5 0 a2.25 2.25 0 1 0 -4.5 0zM798.75 117 a2.25 2.25 0 1 0 4.5 0 a2.25 2.25 0 1 0 -4.5 0z" fill="black"></path><path d="M582.75 261 a2.25 2.25 0 1 0 4.5 0 a2.25 2.25 0 1 0 -4.5 0zM510.75 207 a2.25 2.25 0 1 0 4.5 0 a2.25 2.25 0 1 0 -4.5 0z" fill="black"></path><path d="M78.75 45 a2.25 2.25 0 1 0 4.5 0 a2.25 2.25 0 1 0 -4.5 0zM78.75 9 a2.25 2.25 0 1 0 4.5 0 a2.25 2.25 0 1 0 -4.5 0z" fill="black"></path><path d="M528.75 189 a2.25 2.25 0 1 0 4.5 0 a2.25 2.25 0 1 0 -4.5 0zM564.75 243 a2.25 2.25 0 1 0 4.5 0 a2.25 2.25 0 1 0 -4.5 0z" fill="black"></path><path d="M24.75 405 a2.25 2.25 0 1 0 4.5 0 a2.25 2.25 0 1 0 -4.5 0zM114.75 441 a2.25 2.25 0 1 0 4.5 0 a2.25 2.25 0 1 0 -4.5 0z" fill="black"></path><path d="M1356.75 495 a2.25 2.25 0 1 0 4.5 0 a2.25 2.25 0 1 0 -4.5 0zM1320.75 405 a2.25 2.25 0 1 0 4.5 0 a2.25 2.25 0 1 0 -4.5 0z" fill="black"></path><path d="M384.75 27 a2.25 2.25 0 1 0 4.5 0 a2.25 2.25 0 1 0 -4.5 0zM438.75 27 a2.25 2.25 0 1 0 4.5 0 a2.25 2.25 0 1 0 -4.5 0z" fill="black"></path><path d="M312.75 189 a2.25 2.25 0 1 0 4.5 0 a2.25 2.25 0 1 0 -4.5 0zM384.75 189 a2.25 2.25 0 1 0 4.5 0 a2.25 2.25 0 1 0 -4.5 0z" fill="black"></path><path d="M150.75 9 a2.25 2.25 0 1 0 4.5 0 a2.25 2.25 0 1 0 -4.5 0zM186.75 9 a2.25 2.25 0 1 0 4.5 0 a2.25 2.25 0 1 0 -4.5 0z" fill="black"></path><path d="M996.75 315 a2.25 2.25 0 1 0 4.5 0 a2.25 2.25 0 1 0 -4.5 0zM996.75 369 a2.25 2.25 0 1 0 4.5 0 a2.25 2.25 0 1 0 -4.5 0z" fill="black"></path><path d="M1194.75 369 a2.25 2.25 0 1 0 4.5 0 a2.25 2.25 0 1 0 -4.5 0zM1194.75 333 a2.25 2.25 0 1 0 4.5 0 a2.25 2.25 0 1 0 -4.5 0z" fill="black"></path><path d="M924.75 279 a2.25 2.25 0 1 0 4.5 0 a2.25 2.25 0 1 0 -4.5 0zM924.75 315 a2.25 2.25 0 1 0 4.5 0 a2.25 2.25 0 1 0 -4.5 0z" fill="black"></path><path d="M294.75 45 a2.25 2.25 0 1 0 4.5 0 a2.25 2.25 0 1 0 -4.5 0zM366.75 27 a2.25 2.25 0 1 0 4.5 0 a2.25 2.25 0 1 0 -4.5 0z" fill="black"></path><path d="M996.75 27 a2.25 2.25 0 1 0 4.5 0 a2.25 2.25 0 1 0 -4.5 0zM1032.75 27 a2.25 2.25 0 1 0 4.5 0 a2.25 2.25 0 1 0 -4.5 0z" fill="black"></path><path d="M276.75 99 a2.25 2.25 0 1 0 4.5 0 a2.25 2.25 0 1 0 -4.5 0zM294.75 135 a2.25 2.25 0 1 0 4.5 0 a2.25 2.25 0 1 0 -4.5 0z" fill="black"></path><path d="M780.75 279 a2.25 2.25 0 1 0 4.5 0 a2.25 2.25 0 1 0 -4.5 0zM816.75 261 a2.25 2.25 0 1 0 4.5 0 a2.25 2.25 0 1 0 -4.5 0z" fill="black"></path><path d="M600.75 405 a2.25 2.25 0 1 0 4.5 0 a2.25 2.25 0 1 0 -4.5 0zM672.75 405 a2.25 2.25 0 1 0 4.5 0 a2.25 2.25 0 1 0 -4.5 0z" fill="black"></path><path d="M258.75 459 a2.25 2.25 0 1 0 4.5 0 a2.25 2.25 0 1 0 -4.5 0zM258.75 495 a2.25 2.25 0 1 0 4.5 0 a2.25 2.25 0 1 0 -4.5 0z" fill="black"></path><path d="M798.75 423 a2.25 2.25 0 1 0 4.5 0 a2.25 2.25 0 1 0 -4.5 0zM762.75 405 a2.25 2.25 0 1 0 4.5 0 a2.25 2.25 0 1 0 -4.5 0z" fill="black"></path><path d="M1392.75 477 a2.25 2.25 0 1 0 4.5 0 a2.25 2.25 0 1 0 -4.5 0zM1428.75 513 a2.25 2.25 0 1 0 4.5 0 a2.25 2.25 0 1 0 -4.5 0z" fill="black"></path><path d="M780.75 9 a2.25 2.25 0 1 0 4.5 0 a2.25 2.25 0 1 0 -4.5 0zM816.75 9 a2.25 2.25 0 1 0 4.5 0 a2.25 2.25 0 1 0 -4.5 0z" fill="black"></path><path d="M546.75 297 a2.25 2.25 0 1 0 4.5 0 a2.25 2.25 0 1 0 -4.5 0zM582.75 315 a2.25 2.25 0 1 0 4.5 0 a2.25 2.25 0 1 0 -4.5 0z" fill="black"></path><path d="M1212.75 423 a2.25 2.25 0 1 0 4.5 0 a2.25 2.25 0 1 0 -4.5 0zM1176.75 423 a2.25 2.25 0 1 0 4.5 0 a2.25 2.25 0 1 0 -4.5 0z" fill="black"></path><path d="M780.75 477 a2.25 2.25 0 1 0 4.5 0 a2.25 2.25 0 1 0 -4.5 0zM798.75 531 a2.25 2.25 0 1 0 4.5 0 a2.25 2.25 0 1 0 -4.5 0z" fill="black"></path><path d="M1356.75 315 a2.25 2.25 0 1 0 4.5 0 a2.25 2.25 0 1 0 -4.5 0zM1392.75 315 a2.25 2.25 0 1 0 4.5 0 a2.25 2.25 0 1 0 -4.5 0z" fill="black"></path><path d="M1140.75 45 a2.25 2.25 0 1 0 4.5 0 a2.25 2.25 0 1 0 -4.5 0zM1194.75 81 a2.25 2.25 0 1 0 4.5 0 a2.25 2.25 0 1 0 -4.5 0z" fill="black"></path><path d="M1428.75 351 a2.25 2.25 0 1 0 4.5 0 a2.25 2.25 0 1 0 -4.5 0zM1428.75 297 a2.25 2.25 0 1 0 4.5 0 a2.25 2.25 0 1 0 -4.5 0z" fill="black"></path><path d="M1266.75 225 a2.25 2.25 0 1 0 4.5 0 a2.25 2.25 0 1 0 -4.5 0zM1302.75 207 a2.25 2.25 0 1 0 4.5 0 a2.25 2.25 0 1 0 -4.5 0z" fill="black"></path><path d="M1068.75 423 a2.25 2.25 0 1 0 4.5 0 a2.25 2.25 0 1 0 -4.5 0zM1104.75 459 a2.25 2.25 0 1 0 4.5 0 a2.25 2.25 0 1 0 -4.5 0z" fill="black"></path><path d="M834.75 495 a2.25 2.25 0 1 0 4.5 0 a2.25 2.25 0 1 0 -4.5 0zM834.75 531 a2.25 2.25 0 1 0 4.5 0 a2.25 2.25 0 1 0 -4.5 0z" fill="black"></path><path d="M708.75 315 a2.25 2.25 0 1 0 4.5 0 a2.25 2.25 0 1 0 -4.5 0zM672.75 315 a2.25 2.25 0 1 0 4.5 0 a2.25 2.25 0 1 0 -4.5 0z" fill="black"></path><path d="M654.75 567 a2.25 2.25 0 1 0 4.5 0 a2.25 2.25 0 1 0 -4.5 0zM690.75 567 a2.25 2.25 0 1 0 4.5 0 a2.25 2.25 0 1 0 -4.5 0z" fill="black"></path><path d="M924.75 477 a2.25 2.25 0 1 0 4.5 0 a2.25 2.25 0 1 0 -4.5 0zM960.75 459 a2.25 2.25 0 1 0 4.5 0 a2.25 2.25 0 1 0 -4.5 0z" fill="black"></path><path d="M1230.75 27 a2.25 2.25 0 1 0 4.5 0 a2.25 2.25 0 1 0 -4.5 0zM1194.75 9 a2.25 2.25 0 1 0 4.5 0 a2.25 2.25 0 1 0 -4.5 0z" fill="black"></path><path d="M528.75 459 a2.25 2.25 0 1 0 4.5 0 a2.25 2.25 0 1 0 -4.5 0zM492.75 477 a2.25 2.25 0 1 0 4.5 0 a2.25 2.25 0 1 0 -4.5 0z" fill="black"></path><path d="M528.75 297 a2.25 2.25 0 1 0 4.5 0 a2.25 2.25 0 1 0 -4.5 0zM474.75 261 a2.25 2.25 0 1 0 4.5 0 a2.25 2.25 0 1 0 -4.5 0z" fill="black"></path><path d="M1374.75 279 a2.25 2.25 0 1 0 4.5 0 a2.25 2.25 0 1 0 -4.5 0zM1338.75 279 a2.25 2.25 0 1 0 4.5 0 a2.25 2.25 0 1 0 -4.5 0z" fill="black"></path></mask></defs></svg>