<svg xmlns="http://www.w3.org/2000/svg" version="1.1" xmlns:xlink="http://www.w3.org/1999/xlink" xmlns:svgjs="http://svgjs.com/svgjs" width="1440" height="560" preserveAspectRatio="none" viewBox="0 0 1440 560"><g mask="url(&quot;#SvgjsMask1012&quot;)" fill="none"><rect width="1440" height="560" x="0" y="0" fill="url(#SvgjsLinearGradient1013)"></rect><path d="M0 0L44.27 0L0 170.09z" fill="rgba(255, 255, 255, .1)"></path><path d="M0 170.09L44.27 0L366.53999999999996 0L0 252.61z" fill="rgba(255, 255, 255, .075)"></path><path d="M0 252.61L366.53999999999996 0L786.03 0L0 293.33000000000004z" fill="rgba(255, 255, 255, .05)"></path><path d="M0 293.33000000000004L786.03 0L978.0699999999999 0L0 351.39000000000004z" fill="rgba(255, 255, 255, .025)"></path><path d="M1440 560L962.44 560L1440 305.08000000000004z" fill="rgba(0, 0, 0, .1)"></path><path d="M1440 305.08000000000004L962.44 560L900.6700000000001 560L1440 176.46000000000004z" fill="rgba(0, 0, 0, .075)"></path><path d="M1440 176.46000000000004L900.67 560L368.5999999999999 560L1440 75.73000000000003z" fill="rgba(0, 0, 0, .05)"></path><path d="M1440 75.73000000000002L368.5999999999999 560L299.2299999999999 560L1440 74.62000000000002z" fill="rgba(0, 0, 0, .025)"></path></g><defs><mask id="SvgjsMask1012"><rect width="1440" height="560" fill="#ffffff"></rect></mask><linearGradient x1="15.28%" y1="-39.29%" x2="84.72%" y2="139.29%" gradientUnits="userSpaceOnUse" id="SvgjsLinearGradient1013"><stop stop-color="rgba(56, 10, 98, 1)" offset="0"></stop><stop stop-color="rgba(188, 174, 210, 1)" offset="1"></stop></linearGradient></defs></svg>