<svg xmlns="http://www.w3.org/2000/svg" version="1.1" xmlns:xlink="http://www.w3.org/1999/xlink" xmlns:svgjs="http://svgjs.com/svgjs" width="1440" height="560" preserveAspectRatio="none" viewBox="0 0 1440 560"><g mask="url(&quot;#SvgjsMask7051&quot;)" fill="none"><rect width="1440" height="560" x="0" y="0" fill="rgba(37, 169, 168, 1)"></rect><g transform="translate(0, 0)" stroke-linecap="round"><path d="M213 166.43 L213 393.57" stroke-width="9.75" stroke="rgba(234, 195, 65, 1)"></path><path d="M226 95.72 L226 464.28" stroke-width="9.75" stroke="rgba(234, 195, 65, 1)"></path><path d="M239 170.34 L239 389.66" stroke-width="9.75" stroke="rgba(234, 174, 163, 1)"></path><path d="M252 98.09 L252 461.91" stroke-width="9.75" stroke="rgba(234, 195, 65, 1)"></path><path d="M265 125.06 L265 434.94" stroke-width="9.75" stroke="rgba(234, 195, 65, 1)"></path><path d="M278 137.53 L278 422.47" stroke-width="9.75" stroke="rgba(234, 195, 65, 1)"></path><path d="M291 183.15 L291 376.85" stroke-width="9.75" stroke="rgba(234, 195, 65, 1)"></path><path d="M304 173.87 L304 386.13" stroke-width="9.75" stroke="rgba(234, 174, 163, 1)"></path><path d="M317 89.32 L317 470.68" stroke-width="9.75" stroke="rgba(234, 195, 65, 1)"></path><path d="M330 161.44 L330 398.56" stroke-width="9.75" stroke="rgba(234, 174, 163, 1)"></path><path d="M343 143.77 L343 416.23" stroke-width="9.75" stroke="rgba(234, 174, 163, 1)"></path><path d="M356 228.44 L356 331.56" stroke-width="9.75" stroke="rgba(234, 174, 163, 1)"></path><path d="M369 126.41 L369 433.6" stroke-width="9.75" stroke="rgba(234, 174, 163, 1)"></path><path d="M382 224.39 L382 335.61" stroke-width="9.75" stroke="rgba(234, 174, 163, 1)"></path><path d="M395 154.11 L395 405.89" stroke-width="9.75" stroke="rgba(234, 195, 65, 1)"></path><path d="M408 126.85 L408 433.14" stroke-width="9.75" stroke="rgba(234, 195, 65, 1)"></path><path d="M421 88.29 L421 471.71" stroke-width="9.75" stroke="rgba(234, 174, 163, 1)"></path><path d="M434 136.03 L434 423.97" stroke-width="9.75" stroke="rgba(234, 195, 65, 1)"></path><path d="M447 175.95 L447 384.05" stroke-width="9.75" stroke="rgba(234, 195, 65, 1)"></path><path d="M460 220.91 L460 339.08" stroke-width="9.75" stroke="rgba(234, 174, 163, 1)"></path><path d="M473 144 L473 416" stroke-width="9.75" stroke="rgba(234, 174, 163, 1)"></path><path d="M486 177.02 L486 382.98" stroke-width="9.75" stroke="rgba(234, 174, 163, 1)"></path><path d="M499 255.34 L499 304.65" stroke-width="9.75" stroke="rgba(234, 195, 65, 1)"></path><path d="M512 137.19 L512 422.81" stroke-width="9.75" stroke="rgba(234, 195, 65, 1)"></path><path d="M525 153.16 L525 406.84" stroke-width="9.75" stroke="rgba(234, 195, 65, 1)"></path><path d="M538 217.41 L538 342.6" stroke-width="9.75" stroke="rgba(234, 174, 163, 1)"></path><path d="M551 207.63 L551 352.37" stroke-width="9.75" stroke="rgba(234, 174, 163, 1)"></path><path d="M564 155.09 L564 404.9" stroke-width="9.75" stroke="rgba(234, 174, 163, 1)"></path><path d="M577 238.6 L577 321.4" stroke-width="9.75" stroke="rgba(234, 195, 65, 1)"></path><path d="M590 208.84 L590 351.15" stroke-width="9.75" stroke="rgba(234, 174, 163, 1)"></path><path d="M603 149.63 L603 410.37" stroke-width="9.75" stroke="rgba(234, 174, 163, 1)"></path><path d="M616 117.73 L616 442.27" stroke-width="9.75" stroke="rgba(234, 195, 65, 1)"></path><path d="M629 122.63 L629 437.37" stroke-width="9.75" stroke="rgba(234, 174, 163, 1)"></path><path d="M642 118.2 L642 441.8" stroke-width="9.75" stroke="rgba(234, 174, 163, 1)"></path><path d="M655 250 L655 310" stroke-width="9.75" stroke="rgba(234, 174, 163, 1)"></path><path d="M668 220.72 L668 339.28" stroke-width="9.75" stroke="rgba(234, 195, 65, 1)"></path><path d="M681 235.07 L681 324.93" stroke-width="9.75" stroke="rgba(234, 174, 163, 1)"></path><path d="M694 209.38 L694 350.63" stroke-width="9.75" stroke="rgba(234, 174, 163, 1)"></path><path d="M707 85.47 L707 474.52" stroke-width="9.75" stroke="rgba(234, 174, 163, 1)"></path><path d="M720 142.94 L720 417.06" stroke-width="9.75" stroke="rgba(234, 174, 163, 1)"></path><path d="M733 111.43 L733 448.57" stroke-width="9.75" stroke="rgba(234, 174, 163, 1)"></path><path d="M746 162.29 L746 397.71" stroke-width="9.75" stroke="rgba(234, 195, 65, 1)"></path><path d="M759 205.8 L759 354.2" stroke-width="9.75" stroke="rgba(234, 174, 163, 1)"></path><path d="M772 198.35 L772 361.65" stroke-width="9.75" stroke="rgba(234, 195, 65, 1)"></path><path d="M785 230.99 L785 329.01" stroke-width="9.75" stroke="rgba(234, 174, 163, 1)"></path><path d="M798 240.71 L798 319.29" stroke-width="9.75" stroke="rgba(234, 174, 163, 1)"></path><path d="M811 259.75 L811 300.25" stroke-width="9.75" stroke="rgba(234, 174, 163, 1)"></path><path d="M824 110.75 L824 449.25" stroke-width="9.75" stroke="rgba(234, 195, 65, 1)"></path><path d="M837 88.07 L837 471.93" stroke-width="9.75" stroke="rgba(234, 195, 65, 1)"></path><path d="M850 160.28 L850 399.72" stroke-width="9.75" stroke="rgba(234, 195, 65, 1)"></path><path d="M863 140.29 L863 419.71" stroke-width="9.75" stroke="rgba(234, 174, 163, 1)"></path><path d="M876 225.31 L876 334.69" stroke-width="9.75" stroke="rgba(234, 195, 65, 1)"></path><path d="M889 93.85 L889 466.15" stroke-width="9.75" stroke="rgba(234, 174, 163, 1)"></path><path d="M902 201.38 L902 358.62" stroke-width="9.75" stroke="rgba(234, 195, 65, 1)"></path><path d="M915 247.06 L915 312.94" stroke-width="9.75" stroke="rgba(234, 174, 163, 1)"></path><path d="M928 128.91 L928 431.09" stroke-width="9.75" stroke="rgba(234, 174, 163, 1)"></path><path d="M941 106.13 L941 453.87" stroke-width="9.75" stroke="rgba(234, 195, 65, 1)"></path><path d="M954 229.67 L954 330.33" stroke-width="9.75" stroke="rgba(234, 174, 163, 1)"></path><path d="M967 163.2 L967 396.8" stroke-width="9.75" stroke="rgba(234, 174, 163, 1)"></path><path d="M980 224.22 L980 335.78" stroke-width="9.75" stroke="rgba(234, 195, 65, 1)"></path><path d="M993 223.02 L993 336.98" stroke-width="9.75" stroke="rgba(234, 174, 163, 1)"></path><path d="M1006 153.53 L1006 406.47" stroke-width="9.75" stroke="rgba(234, 174, 163, 1)"></path><path d="M1019 88.28 L1019 471.73" stroke-width="9.75" stroke="rgba(234, 174, 163, 1)"></path><path d="M1032 144.75 L1032 415.25" stroke-width="9.75" stroke="rgba(234, 195, 65, 1)"></path><path d="M1045 169.08 L1045 390.92" stroke-width="9.75" stroke="rgba(234, 174, 163, 1)"></path><path d="M1058 182.96 L1058 377.04" stroke-width="9.75" stroke="rgba(234, 195, 65, 1)"></path><path d="M1071 162.99 L1071 397.01" stroke-width="9.75" stroke="rgba(234, 174, 163, 1)"></path><path d="M1084 138.91 L1084 421.1" stroke-width="9.75" stroke="rgba(234, 174, 163, 1)"></path><path d="M1097 187.13 L1097 372.87" stroke-width="9.75" stroke="rgba(234, 195, 65, 1)"></path><path d="M1110 257.19 L1110 302.81" stroke-width="9.75" stroke="rgba(234, 174, 163, 1)"></path><path d="M1123 135.58 L1123 424.42" stroke-width="9.75" stroke="rgba(234, 174, 163, 1)"></path><path d="M1136 117.69 L1136 442.31" stroke-width="9.75" stroke="rgba(234, 174, 163, 1)"></path><path d="M1149 226.25 L1149 333.75" stroke-width="9.75" stroke="rgba(234, 195, 65, 1)"></path><path d="M1162 128.15 L1162 431.86" stroke-width="9.75" stroke="rgba(234, 195, 65, 1)"></path><path d="M1175 248.93 L1175 311.07" stroke-width="9.75" stroke="rgba(234, 174, 163, 1)"></path><path d="M1188 170.04 L1188 389.96" stroke-width="9.75" stroke="rgba(234, 174, 163, 1)"></path><path d="M1201 184.67 L1201 375.33" stroke-width="9.75" stroke="rgba(234, 195, 65, 1)"></path><path d="M1214 177.19 L1214 382.81" stroke-width="9.75" stroke="rgba(234, 195, 65, 1)"></path><path d="M1227 131.12 L1227 428.88" stroke-width="9.75" stroke="rgba(234, 174, 163, 1)"></path></g></g><defs><mask id="SvgjsMask7051"><rect width="1440" height="560" fill="#ffffff"></rect></mask></defs></svg>